<svg xmlns="http://www.w3.org/2000/svg" version="1.1" width="600px" height="600px" viewBox="0 0 200 200" style="overflow:hidden!important;"><g id="svga-group-wrapper"><g id="svga-group-backs-single"><path id="SvgjsPath8026" d="M0 0h200v200H0V0z" fill="#ecf0f1" stroke-width="none" opacity="1"></path><path id="SvgjsPath8027" d="M100 124.2c-13.3 0-24.2-10.8-24.2-24.2S86.7 75.8 100 75.8s24.2 10.8 24.2 24.2-10.9 24.2-24.2 24.2zm0-42.4c-10 0-18.2 8.2-18.2 18.2s8.2 18.2 18.2 18.2 18.2-8.2 18.2-18.2S110 81.8 100 81.8zm0 57.4c-21.6 0-39.2-17.6-39.2-39.2S78.4 60.8 100 60.8s39.2 17.6 39.2 39.2-17.6 39.2-39.2 39.2zm0-72.4c-18.3 0-33.2 14.9-33.2 33.2s14.9 33.2 33.2 33.2 33.2-14.9 33.2-33.2-14.9-33.2-33.2-33.2zm0 87.5c-29.9 0-54.3-24.4-54.3-54.3S70.1 45.7 100 45.7 154.3 70 154.3 100s-24.4 54.3-54.3 54.3zm0-102.6c-26.6 0-48.3 21.7-48.3 48.3 0 26.6 21.7 48.3 48.3 48.3 26.6 0 48.3-21.7 48.3-48.3 0-26.6-21.7-48.3-48.3-48.3zm0 116.4c-37.6 0-68.1-30.6-68.1-68.1S62.4 31.9 100 31.9s68.1 30.6 68.1 68.1-30.5 68.1-68.1 68.1zm0-130.2c-34.2 0-62.1 27.9-62.1 62.1s27.9 62.1 62.1 62.1 62.1-27.9 62.1-62.1-27.9-62.1-62.1-62.1zm0 146.2c-46.4 0-84.1-37.7-84.1-84.1S53.6 15.9 100 15.9s84.1 37.7 84.1 84.1-37.7 84.1-84.1 84.1zm0-162.2c-43.1 0-78.1 35-78.1 78.1s35 78.1 78.1 78.1 78.1-35.1 78.1-78.1-35-78.1-78.1-78.1zm0 90c-6.6 0-11.9-5.4-11.9-11.9 0-6.6 5.4-11.9 11.9-11.9 6.6 0 11.9 5.4 11.9 11.9 0 6.6-5.3 11.9-11.9 11.9zm0-17.8c-3.3 0-5.9 2.7-5.9 5.9 0 3.3 2.7 5.9 5.9 5.9 3.3 0 5.9-2.7 5.9-5.9 0-3.3-2.6-5.9-5.9-5.9zM0 146.7v12.8c9.9 16.6 23.9 30.6 40.5 40.5h12.8C29.9 189 11 170.1 0 146.7zm200 0c-11 23.4-29.9 42.3-53.3 53.3h12.8c16.6-9.9 30.6-23.9 40.5-40.5v-12.8zm0-93.4V40.5C190.1 23.9 176.1 9.9 159.5 0h-12.8C170.1 11 189 29.9 200 53.3zm-200 0C11 29.9 29.9 11 53.3 0H40.5C23.9 9.9 9.9 23.9 0 40.5v12.8zm200 36.3C195.1 42.5 157.6 4.9 110.4 0H89.6C42.5 4.9 4.9 42.5 0 89.6v20.8c4.9 47.1 42.5 84.7 89.6 89.6h20.8c47.1-4.9 84.7-42.4 89.6-89.6V89.6zM100 194.5c-52.1 0-94.5-42.4-94.5-94.5S47.9 5.5 100 5.5s94.5 42.4 94.5 94.5-42.4 94.5-94.5 94.5zM0 176.2v9.5c4.4 5.1 9.1 9.9 14.3 14.3h9.5c-9-6.8-17-14.8-23.8-23.8zm200 0c-6.8 8.9-14.8 16.9-23.8 23.8h9.5c5.1-4.4 9.9-9.1 14.3-14.3v-9.5zM0 23.8c6.8-9 14.8-17 23.8-23.8h-9.5C9.1 4.4 4.4 9.1 0 14.3v9.5zm200 0v-9.5c-4.4-5.1-9.1-9.9-14.3-14.3h-9.5c9 6.8 17 14.8 23.8 23.8z" fill="#c6dce2" stroke-width="none" opacity="1"></path></g><g id="svga-group-humanwrap-move" transform="matrix(1,0,0,1,0,0)"><g id="svga-group-humanwrap"><g id="svga-group-hair-back-move" transform="matrix(1,0,0,1,0,0)"><g id="svga-group-hair-back"><path id="SvgjsPath7067" d="M171 148.7c.2 5.7 2.3 13.4-2.7 17.6-4.7 4-12.1 1.8-17.5 1.3-.6-.1-1.6-.1-2.4 0 1.1-.6 2.1-1.4 3-2.4 4-4.4 1.7-9.1-2.3-12 0-.5 0-1.1-.1-1.6 1.9-.2 3.7-.5 5.6-.8 4.9-.8 3.6-8.6-1.1-8.5-2.4 0-4.8.1-7.1.1 1.1-1.8 1-4.4-.3-6.2 1.8-10.1 2.5-20.4 1.6-30.6-.4-4-.2-9.7-4.2-12.1-4.1-2.5-11.4-1.3-16.1-1.4-23.7-.6-47.4-1.4-71.2-2.1-2.6-.1-5.5 2.5-5.2 5.2 1.2 9.3 2.3 18.6 3.6 27.8.6 4.4 1.3 8.8 2.1 13.2.5 3.2.7 7.5 3.4 9.7-1.3 0-2.6.1-3.9.4-2.2.5-3.7 3.2-3 5.3.5 1.7 1.6 2.8 2.9 3.6-1.5.7-2.2 3.1-.3 4.1-1.1.3-2 1.1-2 2.5 0 1 .2 2 .5 2.9-.9.3-2.2.2-3.1.2-2.7-.1-5.5-.6-8.2-.8-1.1-.1-2.4-.3-3.4.3-1.3.8-1.5 2.5-2.2 3.8-3.9 2-5.7.2-4.7 5.6 0 .1.3.1.3 0 0-3.6 2.6-2.9 4.8-3.4.3-.2.7-.5 1-.8 1-1.3 2.5-2 4.6-1.9 1.4.1 2.8.8 4.2.9 2.4.2 5.7-.3 7.4-2 1.1 2.1 2.8 3.9 4.8 5.1h-.2c-5.6-.4-1.9 1.7-5.2 4.6-.2.2 0 .7.3.6 1.8-.6.5-.1 2-1.3.4-.3.1-1.3.4-1.5 2.1-1.5 6.9.7 9.5.4 2.8-.3 5.2-1.7 7.2-3.6.7-.5 1.4-1 2-1.6 1 .6 2.1 1 3.2 1.2 1.7 1.8 4.1 2.7 6.9 2.9 2.6.2 5.3-.1 7.9-.7 1.4-.4 2.8-.8 4.1-1.4 1.4-.6 1.9-.9 2.9-.7 1.9.4 3.5 1.8 5.6 2 2 .3 4.1.1 6.1-.5 2.1-.6 4.1-1.8 5.7-3.3.7-.7 1.4-1.5 1.9-2.3 0-.1.1-.1.1-.2h.1c2.1 1 4 2.5 6.8 2.4.8 0 1.5-.1 2.2-.3.1.1.2.3.3.4.1.1.2.3.3.4.1.1.2.2.3.4l.2.2c.1.1.2.1.3.2l.2.2c.9.7 2.7 1.7 3.8 1 1.2.4 2.4.5 3.7.2.5-.1.5-.9 0-1-1.7-.4-3.4-.5-5-1.5-.2-.1-.4-.3-.6-.5-.1-.4-.3-.8-.3-1.2l.6-.3c3.8 2.1 8.5 2.9 12.7 1.7-.1.1-.2.3-.3.5-1.1 2.4 3.2 3.6 1.4 6.2-.4.6.4 1.1.9.7 1-.8 1.6-1.6 1.6-2.9 0-.7-1.2-2.2-1.2-2.5.2-1.9 7-.1 8.6.1 2.2.2 4.5.1 6.7-.3 3.3-.7 7.7-2.2 9.4-5.4 2.2-4.4.2-11.7-.7-16.3-.3-.7-1.2-.6-1.2 0zm16.6-7.1c-.1-.6-.9-.8-1.1-.1-4.2 1.3-6.2.4-5.9-2.4-.1-.6-.2-1.1-.4-1.7-.2-.5-.5-1-.9-1.4-.7-.8-1.7-1.1-2.5-1.8-.5-.3-1-.6-1.5-.8-2.1-2.4-2.7-4.9-1.6-7.4 1-4 4.3-8.8-.3-11.8-.5-.3-.9.4-.6.8 4.1 4.7-3 10.9-1.7 16.2.3 1.4 1 2.4 2 3.3.6.6 1.4.8 2 1.3 2.1 1.7 2.7 3.7 3.4 6.2.6 2.3 1.6 4.5 4.5 4.6 3.1.1 4.9-2.3 4.6-5z" fill="#000000" stroke-width="none" opacity="1" stroke="none"></path></g></g><g id="svga-group-humanbody-back"><path id="SvgjsPath3440" d="M77.8 105.9s4.8 37.7 10 55.8c0 0-6.4 8.8-14.5 11.9-28.7 11.2-35 11.2-39.6 15.2-2.4 2.1.2 11.1 1.8 17.2 1.3 5 1.7 13.2 1.7 13.2h132.2s1.6-33-.6-39.8-7.1-2.9-21.9-4.5c-14.8-1.6-28.7-10.3-31-13.2l.3-60-38.4 4.2z" fill="#582812" stroke-width="none" opacity="1" stroke="none"></path></g><g id="svga-group-chinshadow-single"><path id="SvgjsPath5255" d="M86.1 156.4c4.7.8 10.3 1 10.3 1s11.6-.6 15.5-2.3c.7-.3 2.1-1.4 3.7-2.8l.3-50.7-38.4 4.2s4 31.4 8.6 50.6z" fill="#391200" stroke-width="none" opacity="1" stroke="none"></path></g><g id="svga-group-humanbody-front"><path id="SvgjsPath3441" d="M72.1 183.1s14.6-.2 20.4 2.6c5.8 2.9 12.7 2.4 16.1-1s21.6-7 21.6-7-19.7 1.9-25 4.6c-5.3 2.7-22.3-2.8-33.1.8z" fill="#391200" stroke-width="none" opacity="1" stroke="none"></path><path id="SvgjsPath3442" d="M74.2 173.2c6.7-1.3 14.7-6.4 14.7-6.4l6.2 5.5c-4.3-7.9-12.7-41.1-12.7-41.1l-.7.7c1.7 10.5 3.9 21.9 6.1 29.7 0 0-6 8.2-13.6 11.6z" fill="#391200" stroke-width="none" opacity="1" stroke="none"></path><path id="SvgjsPath3443" d="M170.7 188.5c-.1-2.1-.2-4.1-.4-6.2-.1-1-.3-2.1-.6-3.2-.2-.5-.4-1-.6-1.6-.2-.5-.6-1-1-1.5s-.9-.9-1.5-1.1c-.6-.3-1.1-.4-1.7-.6-1.1-.2-2.2-.2-3.2-.2-2.1 0-4.1.1-6.1.1s-4-.1-6-.2-4-.4-6-.7c-1-.2-2-.4-2.9-.6l-1.5-.4c-.5-.1-1-.3-1.4-.4-3.8-1.1-7.6-2.6-11.2-4.4l-1.3-.7-1.3-.7c-.4-.2-.9-.5-1.3-.8s-.9-.5-1.3-.8-.8-.5-1.3-.8l-1.2-.9-.6-.5-.3-.2-.3-.2c-.2-.2-.4-.3-.5-.5l-.2-.3v-44.6l-.1-15v-.6l-.6.1c-6.4.8-12.9 1.5-19.3 2.3l-19.1 2.3v.5l.1.4.1.9.2 1.8c.1 1.2.3 2.3.4 3.5l.9 7c.6 4.7 1.3 9.4 2.1 14 .8 4.7 1.5 9.3 2.5 14 .9 4.5 1.8 9 3 13.5-1.1 1.4-2.3 2.7-3.6 4-1.3 1.3-2.8 2.6-4.3 3.8-1.5 1.1-3.1 2.2-4.8 3l-1.3.6c-.4.2-.9.3-1.3.5l-2.7 1c-7.2 2.7-14.5 5.3-21.8 7.7l-5.5 1.8c-1.8.6-3.7 1.3-5.5 2.2-.4.2-.9.5-1.3.7-.4.3-.9.5-1.3.9l-.6.5c-.2.2-.5.5-.6.8-.3.5-.4 1.1-.5 1.6-.2 1.1-.1 2.1 0 3.1s.3 2 .4 2.9c.4 1.9.8 3.8 1.3 5.7l.8 2.8c.3.9.5 1.8.7 2.8.4 1.9.7 3.8.9 5.7s.4 3.8.5 5.7v.8h133.4v-.8c.2-4.1.4-8.2.5-12.3s.2-8.2.2-12.3c0-1.8-.1-3.8-.1-5.9zm-67.4 30.3H70.2l-16.5-.1-16-.1c-.1-1.8-.2-3.5-.4-5.3-.2-1.9-.4-3.9-.8-5.8-.2-1-.4-1.9-.7-2.9l-.7-2.8c-.5-1.9-.9-3.7-1.2-5.6-.2-.9-.3-1.9-.4-2.8-.1-.9-.1-1.9 0-2.7.1-.4.2-.8.4-1.1.1-.2.2-.3.3-.4l.5-.4c.3-.3.7-.5 1.1-.8.4-.2.8-.5 1.2-.7 1.7-.8 3.5-1.4 5.3-2l5.5-1.8c7.3-2.4 14.6-5 21.8-7.8l2.7-1c.5-.2.9-.3 1.4-.5l1.4-.6c1.8-.9 3.4-2 5-3.2s3-2.5 4.4-3.9 2.7-2.9 3.8-4.5l.2-.3-.1-.3c-1.3-4.5-2.3-9.1-3.3-13.7s-1.9-9.3-2.7-13.9c-.8-4.6-1.6-9.3-2.4-14l-2.2-13.9 19.3-1.8c6.2-.6 12.3-1.2 18.5-1.8l-.2 14.4-.2 15-.3 30v.4l.2.2.6.7.6.6.3.3.3.2.6.5c.4.3.9.6 1.3.9.4.3.9.6 1.3.9.4.3.9.5 1.3.8s.9.5 1.3.8l1.4.8 1.4.7c.5.2.9.5 1.4.7l1.4.7c1 .4 1.9.8 2.9 1.2s1.9.8 2.9 1.1l1.5.5c.5.2 1 .3 1.5.4.5.1 1 .3 1.5.4l1.5.4c1 .3 2 .4 3 .6 2 .4 4.1.6 6.2.8 2.1.2 4.1.2 6.2.2 2.1 0 4.1-.1 6.1-.1s4 .1 5 1.3c.5.6.9 1.4 1.2 2.3.3.9.4 1.9.6 2.8.3 2 .4 4 .5 6s.1 4.1.2 6.1c.1 7.9-.1 15.8-.4 23.7-10.8.1-21.5.1-32.3.2h-33.1z" fill="#2a0d00" stroke-width="none" opacity="1" stroke="none"></path><path id="SvgjsPath3444" d="M150.7 219.2 147 198l-.4 21.2z" fill="#391200" stroke-width="none" opacity="1" stroke="none"></path><path id="SvgjsPath3445" d="M47.3 203.5s2.2 11.5 2.9 15.7h3.5l-6.4-15.7z" fill="#391200" stroke-width="none" opacity="1" stroke="none"></path></g><g id="svga-group-clothes-single"><path id="SvgjsPath8004" d="M65.8 172.7c-3.8 1.5-13.8 4.8-17.9 5.2s-15.6 4.2-15.8 6.3c0 0-2.3.4-3.1 4.2s2.3 13.2 3.7 17.7c1.3 4.4 1.5 13.1 1.5 13.1h136.5s2.1-14.8 1.9-25.7 1.9-15.4-3.3-18.8c0 0-.2-3.3-8.4-3.1-8.3.2-26.7-1.5-28.6-2.7 0 0-8.4 15.9-29.2 16.7s-37.3-12.9-37.3-12.9z" fill="#002207" stroke-width="none" opacity="1" stroke="none"></path><path id="SvgjsPath8005" d="M85.6 154s-7.3-1.3-13.4-.1c.6.1 1.7.5 2.7 1.5 1.2 1.1 1.6 2.4 1.8 3-1.3-.8-3-1.6-5.1-2.2-3-.9-7-1.4-10.9.1 0 0 3.8.7 5.5 1.6s-7.5 1.9-11.5.2c0 0 3.2 4 8.3 3.8 0 0-6.3 3.3-7.3 6.1l8.1-2s-5.1 3.9-4.9 9.2c0 0 2.2-3.5 4.5-4.6 0 0-4.2 7.8.7 15.4 0 0-.2-4.4.8-6.6 0 0 0 12.7 10.4 19.1 0 0-1.7-4.2-1.5-6.1 0 0 6.2 11.6 17.6 14.9l-1.9-6.1s3.7 1.3 7.3 4.3c3.6 3 5.4 8.4 5.4 8.4s1.3-6.5-.6-10.1c0 0 3.8 4 4.9 7.4 0 0 1.3-5.4.5-7.5l5.7 7s-1.3-5.3.8-6.8 6.6-5.3 6.6-5.3l-1.3 4.2s4-2.5 6.6-8.1c0 0 .4 2.1 1.3 3.8 0 0 .4-6.2 1.9-8.5s5.9-6.4 6.6-9.3c0 0 .4 4-1.9 7.8 0 0 4.4-3.4 5.1-6.8.8-3.4 1.3-7.4-1.5-11.9 0 0 2.9.4 4.8 3.3 0 0 1.4-5.7-7.1-8.3 0 0 5.1-1.8 5.7-5.9 0 0-4.4 2.9-7.3 2.3s-5.5-.8-5.5-.8 4.5-3.4 6.2-5.5c0 0-7.9 2.8-9.7 1.5l2.4-3s-6.1 1.3-9.5 0c0 0-1.5 2.4-1.8 7.5-.3 5.1-7.8 8.9-7.8 8.9l5.7-.3s-.6 1.6-3.3 3.1c-2.7 1.5-5.3 1.4-5.3 1.4s2.1 1.8 3.9 2.2c0 0-5.4 1.9-6.5 4.5 0 0-2.4-6.9-7.2-8.4 0 0 3.2-.4 4.9-.2 0 0-6.1-4.4-10.4-4.4-.4 0 4.6-1.3 5.1-1.9 0 0-4.9-.1-5.8-2.8l3-.6-1.6-.8c-1.9-.9-3.3-2-3.8-4l-.4-3.6z" fill="#0d4118" stroke-width="none" opacity="1" stroke="none"></path><path id="SvgjsPath8006" d="M85.6 154s-7.3-1.3-13.4-.1c.6.1 1.7.5 2.7 1.5 1.2 1.1 1.6 2.4 1.8 3-1.3-.8-3-1.6-5.1-2.2-3-.9-7-1.4-10.9.1 0 0 3.8.7 5.5 1.6s-7.5 1.9-11.5.2c0 0 3.2 4 8.3 3.8 0 0-6.3 3.3-7.3 6.1l8.1-2s-5.1 3.9-4.9 9.2c0 0 2.2-3.5 4.5-4.6 0 0-4.2 7.8.7 15.4 0 0-.2-4.4.8-6.6 0 0 0 12.7 10.4 19.1 0 0-1.7-4.2-1.5-6.1 0 0 6.2 11.6 17.6 14.9l-1.9-6.1s3.7 1.3 7.3 4.3c3.6 3 5.4 8.4 5.4 8.4s1.3-6.5-.6-10.1c0 0 3.8 4 4.9 7.4 0 0 1.3-5.4.5-7.5l5.7 7s-1.3-5.3.8-6.8 6.6-5.3 6.6-5.3l-1.3 4.2s4-2.5 6.6-8.1c0 0 .4 2.1 1.3 3.8 0 0 .4-6.2 1.9-8.5s5.9-6.4 6.6-9.3c0 0 .4 4-1.9 7.8 0 0 4.4-3.4 5.1-6.8.8-3.4 1.3-7.4-1.5-11.9 0 0 2.9.4 4.8 3.3 0 0 1.4-5.7-7.1-8.3 0 0 5.1-1.8 5.7-5.9 0 0-4.4 2.9-7.3 2.3s-5.5-.8-5.5-.8 4.5-3.4 6.2-5.5c0 0-7.9 2.8-9.7 1.5l2.4-3s-6.1 1.3-9.5 0c0 0-1.5 2.4-1.8 7.5-.3 5.1-7.8 8.9-7.8 8.9l5.7-.3s-.6 1.6-3.3 3.1c-2.7 1.5-5.3 1.4-5.3 1.4s2.1 1.8 3.9 2.2c0 0-5.4 1.9-6.5 4.5 0 0-2.4-6.9-7.2-8.4 0 0 3.2-.4 4.9-.2 0 0-6.1-4.4-10.4-4.4-.4 0 4.6-1.3 5.1-1.9 0 0-4.9-.1-5.8-2.8l3-.6-1.6-.8c-1.9-.9-3.3-2-3.8-4l-.4-3.6z" fill="#ffffff" stroke-width="none" opacity=".85"></path><path id="SvgjsPath8007" d="M69.5 174.1c.1 2.9 1.6 5.7 3.9 7.3-1.8-2.1-2.8-4.7-2.9-7.3s.8-5.2 2.4-7.5c-2.2 1.7-3.5 4.6-3.4 7.5zM85 191c.3 1.2.2 2.5-.2 3.7-.4 1.2-1.3 2.3-2.5 2.9 1.3-.3 2.5-1.3 3.2-2.6.7-1.3.8-2.8.5-4.2-.3-1.4-1-2.7-1.8-3.8-.9-1.1-1.9-2-3.1-2.7.9 1.1 1.7 2.1 2.4 3.2s1.2 2.3 1.5 3.5zm11.8 5.9c1.3.9 3 1.3 4.6.9-1.5-.4-2.8-.9-4-1.7-1.2-.8-2.3-1.7-3.3-2.9.3 1.5 1.4 2.9 2.7 3.7zm-29.4-34.1c.7.2 1.4.1 2.1-.1.7-.2 1.2-.5 1.8-.9.5-.4 1-.9 1.3-1.4-1.2.5-2.2 1.1-3.3 1.4-.5.2-1.1.3-1.6.2-.6 0-1.1-.2-1.7-.5.2.7.7 1.1 1.4 1.3zm8 27.4c.6 0 1.2-.1 1.7-.5s1-.9 1.1-1.6c.1-.7 0-1.3-.2-1.9l-.3-.9-.3-.8c-.4-1-.8-2.1-1-3.1-.2-1.1-.2-2.2.4-3.2-.5.3-.8.9-1 1.5-.2.6-.2 1.2-.2 1.8 0 1.2.4 2.4.8 3.4.1.3.2.5.4.8l.3.7c.2.5.3 1 .3 1.5 0 1.1-.9 1.9-2 2.3zm56.7-21.8c.1 1.2 0 2.5-.1 3.9.4-.6.7-1.2.9-1.9.2-.7.2-1.4.2-2.1 0-.7-.2-1.4-.5-2-.3-.6-.7-1.2-1.3-1.6.2.7.4 1.3.5 1.9.2.6.3 1.2.3 1.8zm-7.3 13c.2-.8.4-1.5.7-2.2.3-.7.6-1.3 1.1-1.9.5-.6 1.1-1 1.9-1.2-.8-.2-1.7.1-2.4.7s-1.2 1.3-1.5 2.1c-.2.4-.3.8-.4 1.2-.1.4-.2.8-.2 1.2-.1.8 0 1.6.2 2.4.3-.8.4-1.5.6-2.3zm48.9-2.4c-.2-1-.7-2.1-1.3-3-.6-.8-1.3-1.4-2-1.9-.1-.1-.1-.3-.2-.4-.1-.3-.3-.5-.5-.7-.4-.4-.8-.7-1.2-1-.8-.5-1.7-.8-2.5-1-1.7-.4-3.4-.4-5-.4-3.1.1-6.3-.1-9.5-.3-2.6-.2-7.7-.6-9.6-.8-.4-.9-.9-1.7-1.6-2.4-.7-.8-1.6-1.3-2.5-1.8-.5-.2-.9-.4-1.4-.6l-.3-.1c.3-.1.6-.3.9-.5.6-.4 1.2-.8 1.8-1.3.6-.5 1-1.1 1.4-1.8.4-.7.6-1.4.8-2.2l.2-1-.9.6c-.9.6-1.9 1.1-2.9 1.5-1 .4-2 .7-3.1.8-.5 0-.9 0-1.5-.2l-1.7-.3c-.7-.1-1.5-.2-2.2-.3.8-.6 1.6-1.2 2.3-1.9 1.1-.9 2.1-1.8 3-2.9l1.1-1.3-1.7.6c-1.6.5-3.1 1-4.7 1.4-.8.2-1.6.3-2.4.4-.5.1-1.1.1-1.6 0l2-2.5.9-1.1-1.3.3c-1.5.3-3.1.5-4.7.6-1.6.1-3.1 0-4.5-.5l-.4-.1-.2.4c-.9 1.6-1.3 3.2-1.6 4.9-.1.8-.2 1.7-.3 2.5 0 .4-.1.8-.2 1.2-.1.4-.2.8-.4 1.1-.7 1.4-1.8 2.7-3 3.7-1.2 1.1-2.6 2-4 2.8l-1.7.9 1.9-.1 4.9-.2c-.3.4-.7.8-1.1 1.2-.6.5-1.3 1-2 1.4-.7.4-1.5.6-2.3.8-.8.2-1.6.3-2.4.3h-1.1l.8.7c.6.5 1.2.9 1.9 1.4l1.2.6c-1 .4-1.9.8-2.8 1.4-.6.4-1.2.8-1.7 1.2-.3.3-.7.7-1 1.1-.3-.7-.6-1.4-.9-2-.5-.8-1-1.7-1.6-2.4-.6-.8-1.3-1.5-2-2.1-.5-.4-1-.7-1.5-1 .4 0 .9-.1 1.3-.1.8 0 1.6-.1 2.4 0l1 .1-.8-.6c-1.2-.8-2.4-1.5-3.7-2.2-1.3-.6-2.6-1.2-3.9-1.6-.6-.2-1.2-.3-1.9-.4l.2-.1 2-.7c.3-.1.7-.2 1-.4.3-.1.7-.2 1-.5l.4-.3h-.5c-1.1-.1-2.2-.2-3.3-.6-1-.3-1.9-1-2.3-1.9l2.8-.6.3-.1-.3-.2c-1.6-.8-3.4-1.5-4.5-2.9-.6-.7-.9-1.5-1-2.4l-.5-2.7c-1.2-.2-2.2-.3-3.4-.5-1.1-.1-2.2-.2-3.4-.2-2.2-.1-4.5 0-6.7.4l-.7.1.6.2c2 .5 3.6 2.1 4.2 4-1.1-.6-2.2-1.1-3.3-1.6-1.3-.5-2.7-.9-4.1-1.1-2.8-.5-5.7-.4-8.3.7l-.9.3.9.2c1.5.3 2.9.6 4.3 1.1.3.1.7.3 1 .4h.1c-.1 0-.2.1-.2.1-.7.2-1.4.3-2.2.4-1.5.1-3 .2-4.5.1s-3-.3-4.3-.9l-1.3-.5.9 1c.5.6 1.1 1.2 1.8 1.7s1.3.9 2.1 1.2c.7.4 1.5.6 2.3.8.4.1.8.1 1.2.2-1.1.6-2.1 1.2-3.1 2-.7.5-1.3 1-1.9 1.6-.6.6-1.2 1.2-1.5 2.1l-.2.6.7-.2 6.6-1.6c-.3.3-.5.6-.8.8-.6.7-1.2 1.4-1.6 2.2-.5.8-.8 1.7-1.1 2.6-.2.8-.3 1.6-.3 2.4-.7.2-1.3.4-1.4.4-2.9.8-5.8 1.6-8.7 2-1.5.1-3 .4-4.5.8s-2.9.8-4.3 1.3-2.9 1-4.2 1.6c-.7.3-1.4.6-2.1 1.1-.3.2-.7.4-1 .7-.2.2-.5.4-.7.9-.4.1-.6.3-.9.5-.4.3-.7.6-1 .9-.5.7-.9 1.5-1.1 2.3-.2.8-.4 1.7-.4 2.5s.1 1.6.2 2.4c.4 3.1 1.2 6.1 2.1 9.1l1.3 4.4c.5 1.4.7 2.9.9 4.4.4 3 .6 6.1.7 9.1v.9h.9c11.4 0 22.8-.1 34.1-.2 11.4-.1 22.8-.3 34.1-.3 5.7-.1 11.4 0 17.1 0 5.7 0 11.4 0 17.1.1l34.1.4h.7l.1-.7c.6-3.8 1-7.6 1.4-11.4.4-3.8.6-7.7.7-11.5v-5.7c0-1.9.1-3.8.2-5.7.2-2.4.3-4.3-.1-6.4zm-114-6.3c.2-.8.6-1.6 1-2.4s1-1.5 1.5-2.1c.6-.7 1.2-1.3 1.9-1.8l1.4-1.1-1.8.4-7.3 1.8c.2-.4.6-.8.9-1.1.5-.6 1.2-1.1 1.8-1.5 1.3-.9 2.6-1.8 4-2.6l1.2-.7H63c-.8 0-1.5 0-2.3-.2-.7-.1-1.5-.4-2.2-.7s-1.3-.7-2-1.2c-.3-.2-.5-.4-.8-.6 1.1.3 2.2.4 3.2.5 1.5.1 3 .1 4.6-.1.8-.1 1.5-.2 2.3-.4.2-.1.4-.1.6-.4.1-.1.1-.2.1-.4s-.1-.2-.2-.3c-.1-.1-.2-.2-.3-.2-.3-.2-.7-.3-1.1-.5-1.1-.4-2.3-.7-3.5-.9 2.3-.7 4.8-.8 7.1-.4 1.3.2 2.7.6 4 1s2.6 1 3.7 1.7l.4.2-.1-.5c-.3-1.1-.9-2.1-1.7-2.9-.7-.7-1.5-1.2-2.4-1.5 2-.3 4.1-.5 6.1-.4 1.1 0 2.2.1 3.4.2 1.1.1 2.3.2 3.3.4l.5 2.6c.1.9.5 1.8 1 2.5.6.7 1.3 1.3 2.1 1.8.7.4 1.4.8 2.1 1.1l-2.6.5h-.2l.1.2c.4 1.1 1.5 1.9 2.6 2.2.9.3 1.8.5 2.7.6-.4.2-.9.4-1.4.5l-2 .6-1 .3-.1.1h-.1l-.1.1c-.1 0-.1.2-.1.2 0 .1 0 .1.1.1s.1.1.2.1h.8c.7.1 1.4.2 2 .4 2.3.8 4.5 1.9 6.6 3.3h-1.5c-.8 0-1.7.1-2.5.2l-1.3.1 1.2.4c.9.3 1.7.8 2.4 1.4.7.6 1.3 1.3 1.9 2 1.1 1.5 2 3.2 2.7 4.9l.3.8.3-.8c.2-.6.7-1 1.2-1.5.5-.4 1-.8 1.6-1.1 1.1-.7 2.4-1.2 3.6-1.7l1.2-.4-1.2-.3c-1.1-.2-2.1-.8-3-1.5.5-.1 1-.1 1.6-.2.8-.2 1.7-.5 2.5-.9s1.5-.9 2.2-1.4c.7-.6 1.3-1.2 1.7-2.1l.3-.6h-.7l-3.9.2c.9-.6 1.8-1.2 2.7-2 1.3-1.1 2.5-2.4 3.2-4 .2-.4.3-.8.5-1.3.1-.4.2-.9.2-1.3l.3-2.4c.3-1.5.7-3 1.3-4.3 1.5.4 3 .5 4.5.5 1.2-.1 2.4-.2 3.5-.4l-1.6 2-.3.4.4.3c.5.3 1 .4 1.4.4h1.3c.9-.1 1.7-.2 2.5-.4 1-.2 2-.5 3-.8-.5.5-1.1 1-1.6 1.5-1 .9-2.1 1.8-3.2 2.6l-1 .8 1.2.1c1.1.1 2.2.2 3.3.4l1.6.3c.5.1 1.2.2 1.8.2 1.2-.1 2.3-.4 3.4-.9.7-.3 1.4-.6 2-1-.1.3-.2.5-.4.8-.3.6-.8 1.1-1.3 1.5-.5.5-1.1.9-1.6 1.2-.6.4-1.2.7-1.8.9l-1.2.4 1.2.4 1.4.5c.4.2.9.4 1.3.6.8.5 1.7 1 2.3 1.7.7.7 1.2 1.4 1.5 2.3.2.5.3 1 .3 1.5-.4-.5-.9-.9-1.4-1.2-.4-.3-.9-.6-1.4-.8-.5-.2-1-.4-1.5-.5l-1-.2.5.9c.9 1.4 1.6 3 1.9 4.7.3 1.7.2 3.4-.1 5.1-.1.8-.3 1.7-.6 2.5s-.7 1.5-1.2 2.2c-.6.8-1.2 1.5-1.9 2.2.2-.6.4-1.2.5-1.8.2-.7.3-1.4.3-2.1.1-.7.1-1.4 0-2.1l-.2-2.4-.7 2.3c-.4 1.5-1.5 2.9-2.5 4.2-1 1.3-2.2 2.6-3.2 3.9-.3.3-.5.7-.8 1l-.6 1.2c-.3.8-.5 1.7-.7 2.5-.2 1.2-.4 2.5-.5 3.8-.3-.8-.6-1.7-.8-2.5l-.2-1-.4.9c-.7 1.6-1.7 3.1-2.7 4.4-.5.7-1.1 1.3-1.8 1.9-.4.4-.8.8-1.3 1.1l1-3.3.3-.9-.8.6-6.1 4.9c-.3.2-.5.4-.8.6-.3.2-.5.6-.6.9-.3.6-.4 1.3-.4 2-.1 1 0 2 .2 3l-5.1-6.2-.8-1 .4 1.2c.2.6.2 1.2.2 1.8 0 .6 0 1.2-.1 1.9-.1 1-.3 2.1-.5 3.1-.5-1.2-1.2-2.3-1.9-3.3-.9-1.2-1.8-2.4-2.8-3.5l-.9-.9.6 1.1c.8 1.5 1 3.2 1 4.9 0 1.5-.1 3-.3 4.5-.5-1.3-1.1-2.5-1.8-3.7-.8-1.4-1.7-2.6-2.8-3.7-1.2-1.1-2.4-2-3.8-2.8-1.3-.8-2.7-1.5-4.2-2.1l-.4-.1.1.4 1.7 5.7c-1.7-.6-3.4-1.2-4.9-2.2-1.7-1-3.3-2.1-4.7-3.4-1.4-1.3-2.8-2.7-4-4.2-1.2-1.5-2.4-3.1-3.3-4.8l-.5-.8-.1.9c-.1.6 0 1.1.1 1.6s.2 1.1.4 1.6c.2.7.4 1.4.7 2.1-1.2-.9-2.4-1.8-3.4-3-1.2-1.4-2.3-2.9-3.2-4.6-.8-1.6-1.5-3.4-2-5.2-.5-1.8-.8-3.7-.8-5.5l-.1-1.9-.7 1.7c-.4 1.1-.6 2.3-.7 3.4 0 .6-.1 1.2-.1 1.8-.4-.7-.7-1.4-.9-2.2-.2-.6-.3-1.3-.5-1.9-.1-.6-.2-1.3-.2-1.9 0-1.3.1-2.6.4-3.9.3-1.3.7-2.5 1.3-3.7l.6-1.2-1.2.6c-1.1.6-1.9 1.3-2.6 2.1-.4.4-.8.9-1.1 1.4.8.1.9-.2 1-.6zm1.6.3c.4-.4.8-.8 1.2-1.1-.2.7-.4 1.3-.6 2-.4.1-1.1.3-1.8.6.4-.6.7-1.1 1.2-1.5zm7.1 45.5c-4.7-.1-9.4-.1-14.2-.1 0-3-.1-6.1-.5-9.1-.1-.8-.2-1.7-.4-2.5l-.1-.6-.2-.7c-.1-.5-.3-.8-.5-1.2-.8-1.6-1.7-3-2.7-4.4-2-2.8-4.2-5.3-6.6-7.7-1.2-1.2-2.5-2.3-3.8-3.4-1.3-1-2.8-2.1-4.4-2.6 1.4.9 2.6 2.1 3.7 3.3 1.2 1.2 2.2 2.4 3.3 3.7 2.1 2.5 4.2 5.1 6.1 7.8 1 1.3 1.9 2.7 2.6 4.1.2.3.4.7.5 1l.2.5.2.6.6 2.4 1.8 8.8c-6.3 0-12.6-.1-18.9-.1-.1-2.8-.3-5.6-.8-8.4-.2-1.5-.5-3.1-1-4.6l-1.4-4.4c-.9-2.9-1.7-5.9-2.1-8.8-.1-.7-.2-1.5-.2-2.2 0-.7.1-1.4.3-2.1.2-.7.5-1.3.9-1.8.2-.3.4-.5.7-.7.2-.2.6-.3.7-.4l.6-.6s.2-.3.4-.5.5-.4.8-.6c.6-.4 1.2-.7 1.9-1 1.3-.6 2.7-1.2 4.1-1.7 2.8-1 5.6-1.9 8.6-2.2 3-.5 5.9-1.4 8.7-2.4.3-.1.7-.2 1.2-.4v1.1l.8-1.2c.1-.1.1-.2.2-.3.8-.3 1.6-.5 2.2-.7-.3 1.3-.4 2.6-.3 4 0 .7.1 1.4.2 2.1.2.7.3 1.4.5 2 .4 1.3 1 2.6 1.8 3.7l.8 1.3-.1-1.6c0-1.1 0-2.2.1-3.3 0-.3.1-.6.1-1 .2 1.1.4 2.2.7 3.4.5 1.9 1.2 3.6 2.1 5.4.9 1.7 2 3.3 3.3 4.7 1.3 1.5 2.8 2.6 4.4 3.7l.8.6-.4-1c-.4-1-.7-1.9-1-2.9-.2-.5-.3-1-.4-1.5 0-.1 0-.2-.1-.3.8 1.3 1.8 2.6 2.8 3.8 1.3 1.5 2.6 2.9 4.1 4.3 1.5 1.3 3.1 2.5 4.8 3.5 1.7 1 3.6 1.7 5.5 2.3l.4.1-.1-.4-1.8-5.7c1.3.5 2.6 1.2 3.8 1.9 1.3.8 2.6 1.7 3.7 2.8.4.4.8.9 1.2 1.4l1.5 11.4c-10.6-.3-21.2-.4-31.7-.6zm103.5-33.6c-.1 1.9-.2 3.8-.2 5.8v5.7c0 3.8-.3 7.6-.6 11.4-.3 3.6-.7 7.1-1.1 10.7l-18.4.2c1-3.6 1.9-7.2 2.7-10.8.9-3.9 1.7-7.7 2.7-11.6.4-1.9.9-3.9 1.5-5.6.6-1.8 1.5-3.5 2.5-5.2 1-1.6 2.1-3.2 3.4-4.8 1.2-1.5 2.5-3 4-4.4-1.7 1-3.2 2.4-4.7 3.8-1.4 1.4-2.8 2.9-3.9 4.6-1.2 1.6-2.2 3.4-3 5.4-.8 2-1.2 3.9-1.7 5.8-.9 3.9-1.6 7.8-2.2 11.7-.6 3.7-1 7.3-1.3 11.1l-14.9.1c-5.7.1-11.4.1-17.1.1h-12.3l-.6-7.2.1-.5c.3-1.2.5-2.5.7-3.8.1-.6.1-1.3.1-1.9 0-.3 0-.7-.1-1l5.1 6.3.7.8-.2-1c-.3-1.2-.4-2.5-.4-3.8 0-.6.1-1.3.4-1.8.2-.6.7-.9 1.2-1.3l5.4-4.3-1.1 3.2-.3.8.7-.5c.8-.5 1.4-1.1 2.1-1.7.7-.6 1.3-1.3 1.8-2 .9-1.1 1.7-2.4 2.4-3.7.3 1 .6 2 1.1 3l.6 1.1.1-1.2c.1-1.7.3-3.3.7-5 .2-.8.4-1.6.7-2.4.1-.4.3-.7.5-1.1.2-.3.5-.7.7-1 1.1-1.3 2.2-2.6 3.2-3.9.6-.8 1.2-1.6 1.8-2.5-.1.6-.2 1.2-.3 1.9-.3 1.3-.8 2.5-1.5 3.6l-1.3 2.2 1.9-1.6c1.4-1.1 2.6-2.4 3.7-3.9.5-.7 1-1.5 1.3-2.4.3-.9.4-1.8.6-2.6.3-1.8.4-3.6.1-5.4-.2-1.4-.8-2.8-1.4-4 .1 0 .2.1.3.1.4.2.8.4 1.2.7.8.5 1.4 1.2 1.9 2l.6 1 .2-1.1c.1-.5.1-.9.1-1.4 1.7.2 6.3.6 9 .8 3.2.2 6.4.4 9.7.3 1.5 0 3.1.1 4.5.4.7.2 1.4.4 1.9.7.3.2.5.4.7.5.1.1.2.2.2.3 0 .1 0 .1.1.1 0 0 0 .1 0 0l.5.8c.7.5 1.4 1 1.8 1.7.5.6.8 1.4 1 2.2.6 1.7.5 3.6.4 5.5z" fill="#000301" stroke-width="none" opacity="1" stroke="none"></path></g><g id="svga-group-head" transform="matrix(1,0,0,1,0,0)"><g id="svga-group-ears-left-move" transform="matrix(1,0,0,1,0,0)"><g id="svga-group-ears-left"><path id="SvgjsPath7015" d="M65.8 98.48s-4.2-8.27-8.66-11.42c-4.46-3.15-9.84-3.15-9.84-3.15s-3.02 2.1-1.97 12.6c0 0 4.46 10.76 12.47 14.7 0 0 5.77 1.31 8.66.66-.01-.01 2.09-6.18-.66-13.39z" fill="#582812" stroke-width="none" opacity="1" stroke="none"></path><path id="SvgjsPath7016" d="M64.88 101.76s-3.67-7.87-6.04-9.84c-2.36-1.97-7.87-5.12-9.32-3.28-1.44 1.84-1.57 7.61-1.57 7.61s1.57 4.59 6.3 7.09c4.72 2.49 10.37 2.76 10.37 2.76l.26-4.34z" fill="#491c08" stroke-width="none" opacity="1" stroke="none"></path><path id="SvgjsPath7017" d="M44.99 93.25c.02 1.09.09 2.19.17 3.28v.02l.01.03a39.54 39.54 0 0 0 2.2 4.42c.82 1.43 1.75 2.79 2.75 4.11 1.02 1.3 2.15 2.51 3.38 3.64 1.25 1.1 2.62 2.07 4.12 2.83l.04.02.05.01c1.45.31 2.89.55 4.36.7.73.07 1.47.13 2.22.13.74-.01 1.5-.05 2.25-.23l.19-.05.05-.17c.33-1.14.5-2.27.58-3.42.08-1.15.08-2.3-.01-3.44a23.99 23.99 0 0 0-.52-3.38c-.23-1.12-.59-2.2-.99-3.27-.94-1.86-2.02-3.63-3.13-5.4-1.14-1.74-2.35-3.46-3.85-4.95-.75-.74-1.6-1.4-2.5-1.96-.91-.56-1.88-.98-2.87-1.35-1.99-.73-4.08-1.08-6.19-1.12h-.08l-.04.04c-.89.85-1.22 1.93-1.54 2.98-.29 1.06-.45 2.16-.54 3.25-.09 1.09-.13 2.18-.11 3.28zm.33-3.27c.11-1.08.28-2.15.59-3.19.15-.52.35-1.02.59-1.49.23-.44.53-.89.86-1.18 2.01.12 4.01.6 5.9 1.29 1.9.73 3.7 1.74 5.19 3.13 1.5 1.39 2.82 2.99 4.04 4.67 1.22 1.67 2.29 3.46 3.28 5.28.37 1.07.71 2.15.91 3.27.24 1.11.32 2.24.36 3.37.04 1.13-.04 2.26-.19 3.37-.14 1.04-.35 2.09-.65 3.07-.62.1-1.26.12-1.91.1-.71-.01-1.43-.06-2.14-.14-1.41-.15-2.83-.4-4.21-.7-1.39-.74-2.72-1.62-3.93-2.66-1.2-1.07-2.33-2.24-3.35-3.49a42.391 42.391 0 0 1-2.82-3.96c-.86-1.37-1.66-2.79-2.33-4.25l-.16-1.59c-.05-.54-.06-1.09-.09-1.63-.04-1.1-.03-2.18.06-3.27z" fill="#491c08" stroke-width="none" opacity="1" stroke="none"></path><path id="SvgjsPath7018" d="M49.2 91.53c.18-.69.39-1.36.67-2.03.07-.16.16-.33.26-.48.11-.15.23-.33.48-.37.45.02.72.22 1.06.37a18.3 18.3 0 0 1 3.48 2.44c.53.48 1.03 1.01 1.42 1.66.18.33.36.69.38 1.14.01.25-.01.36-.01.54l.01.51c.16 2.77.58 5.56.83 8.36l-.07.01c-.34-1.37-.61-2.75-.86-4.13-.26-1.39-.44-2.78-.55-4.2l-.03-.54v-.51c0-.26-.13-.56-.28-.84-.31-.57-.74-1.11-1.21-1.61-.94-1-2.01-1.94-3.22-2.61-.29-.16-.65-.33-.91-.33-.23.06-.41.43-.53.73-.26.63-.39 1.33-.52 2.01-.23 1.37-.39 2.77-.48 4.15-.02.34-.04.7-.02 1.01-.01.17.21.46.41.71.42.52.91 1.02 1.4 1.5.81.79 1.65 1.57 2.5 2.33.09-.91.18-1.82.24-2.74.04-.59.07-1.17.08-1.75.01-.53.01-1.07-.06-1.58-.15-.02-.33-.03-.5-.02a4.1 4.1 0 0 0-.69.1c-.46.1-.91.25-1.35.43l-.03-.07c.41-.25.85-.46 1.32-.62.23-.08.47-.15.72-.19.26-.04.49-.07.79-.01l.11.02.03.13c.15.61.18 1.21.22 1.81.02.6.02 1.19.01 1.79-.03 1.19-.08 2.37-.19 3.56l-.07.75-.58-.49c-1.08-.92-2.11-1.87-3.11-2.88-.49-.51-.98-1.03-1.43-1.61-.11-.15-.22-.3-.32-.47-.05-.09-.1-.18-.14-.29-.05-.11-.07-.28-.07-.37-.01-.39.03-.74.06-1.1.14-1.45.39-2.84.75-4.22z" fill="#2a0d00" stroke-width="none" opacity="1" stroke="none"></path></g></g><g id="svga-group-ears-right-move" transform="matrix(1,0,0,1,0,0)"><g id="svga-group-ears-right"><path id="SvgjsPath7019" d="M134.2 98.48s4.2-8.27 8.66-11.42c4.46-3.15 9.84-3.15 9.84-3.15s3.02 2.1 1.97 12.6c0 0-4.46 10.76-12.47 14.7 0 0-5.77 1.31-8.66.66.01-.01-2.09-6.18.66-13.39z" fill="#582812" stroke-width="none" opacity="1" stroke="none"></path><path id="SvgjsPath7020" d="M135.12 101.76s3.67-7.87 6.04-9.84c2.36-1.97 7.87-5.12 9.32-3.28 1.44 1.84 1.57 7.61 1.57 7.61s-1.57 4.59-6.3 7.09c-4.72 2.49-10.37 2.76-10.37 2.76l-.26-4.34z" fill="#491c08" stroke-width="none" opacity="1" stroke="none"></path><path id="SvgjsPath7021" d="M154.91 89.96c-.09-1.09-.25-2.18-.54-3.25-.32-1.05-.65-2.13-1.54-2.98l-.04-.04h-.08c-2.11.04-4.21.39-6.19 1.12-.99.37-1.96.79-2.87 1.35-.9.56-1.75 1.22-2.5 1.96-1.5 1.49-2.71 3.21-3.85 4.95-1.11 1.77-2.18 3.54-3.13 5.4-.39 1.07-.76 2.15-.99 3.27a23.99 23.99 0 0 0-.52 3.38c-.1 1.14-.09 2.29-.01 3.44s.25 2.28.58 3.42l.05.17.19.05c.75.18 1.51.22 2.25.23.75 0 1.48-.05 2.22-.13 1.47-.15 2.91-.39 4.36-.7l.05-.01.04-.02c1.5-.76 2.87-1.73 4.12-2.83 1.23-1.12 2.36-2.34 3.38-3.64 1-1.31 1.93-2.68 2.75-4.11.82-1.43 1.57-2.89 2.2-4.42l.01-.03v-.02c.07-1.09.14-2.18.17-3.28.01-1.09-.03-2.18-.11-3.28zm-.16 3.28c-.03.54-.04 1.09-.09 1.63l-.16 1.59c-.67 1.47-1.47 2.89-2.33 4.25-.87 1.37-1.8 2.7-2.82 3.96a29.855 29.855 0 0 1-3.35 3.49 21.554 21.554 0 0 1-3.93 2.66c-1.38.3-2.8.54-4.21.7-.71.08-1.43.13-2.14.14-.64.01-1.29 0-1.91-.1-.3-.98-.51-2.03-.65-3.07-.15-1.11-.22-2.24-.19-3.37.04-1.13.12-2.26.36-3.37.2-1.12.54-2.2.91-3.27.98-1.82 2.05-3.61 3.28-5.28 1.21-1.67 2.54-3.28 4.04-4.67 1.49-1.39 3.28-2.4 5.19-3.13 1.88-.69 3.89-1.17 5.9-1.29.34.29.63.74.86 1.18.25.47.44.97.59 1.49.3 1.03.48 2.11.59 3.19.08 1.1.09 2.18.06 3.27z" fill="#491c08" stroke-width="none" opacity="1" stroke="none"></path><path id="SvgjsPath7022" d="M150.8 91.53c-.18-.69-.39-1.36-.67-2.03-.07-.16-.16-.33-.26-.48-.11-.15-.23-.33-.48-.37-.45.02-.72.22-1.06.37a18.3 18.3 0 0 0-3.48 2.44c-.53.48-1.03 1.01-1.42 1.66-.18.33-.36.69-.38 1.14-.01.25.01.36.01.54l-.01.51c-.16 2.77-.58 5.56-.83 8.36l.07.01c.34-1.37.61-2.75.86-4.13.26-1.39.44-2.78.55-4.2l.03-.54v-.51c0-.26.13-.56.28-.84.31-.57.74-1.11 1.21-1.61.94-1 2.01-1.94 3.22-2.61.29-.16.65-.33.91-.33.23.06.41.43.53.73.26.63.39 1.33.52 2.01.23 1.37.39 2.77.48 4.15.02.34.04.7.02 1.01.01.17-.21.46-.41.71-.42.52-.91 1.02-1.4 1.5-.81.79-1.65 1.57-2.5 2.33-.09-.91-.18-1.82-.24-2.74-.04-.59-.07-1.17-.08-1.75-.01-.53-.01-1.07.06-1.58.15-.02.33-.03.5-.02.23.01.46.05.69.1.46.1.91.25 1.35.43l.03-.07c-.41-.25-.85-.46-1.32-.62a4.23 4.23 0 0 0-.72-.19c-.26-.04-.49-.07-.79-.01l-.11.02-.03.13c-.15.61-.18 1.21-.22 1.81-.02.6-.02 1.19-.01 1.79.03 1.19.08 2.37.19 3.56l.07.75.58-.49c1.08-.92 2.11-1.87 3.11-2.88.49-.51.98-1.03 1.43-1.61.11-.15.22-.3.32-.47.05-.09.1-.18.14-.29.05-.11.07-.28.07-.37.01-.39-.03-.74-.06-1.1a26.8 26.8 0 0 0-.75-4.22z" fill="#2a0d00" stroke-width="none" opacity="1" stroke="none"></path></g></g><g id="svga-group-faceshape-wrap"><g id="svga-group-faceshape-single"><path id="SvgjsPath5245" d="M135.9 49.8c-6.7-7.4-11.3-13.2-28.8-17.3-1.8-.4-12.3-.4-14.1 0-17.5 4.1-22.1 9.9-28.8 17.3-7.1 7.8-9.5 29-9.5 29 0 21.4 2.7 35.2 5 41.3 2.3 6.2 21.1 25.2 24.9 27s15.5 2.3 15.5 2.3 11.6-.6 15.5-2.3c3.8-1.8 22.6-20.8 24.9-27s5.1-19.9 5-41.3c-.1 0-2.5-21.2-9.6-29z" fill="#582812" stroke-width="none" opacity="1" stroke="none"></path><path id="SvgjsPath5246" d="M107.1 32.5c-1.8-.4-12.3-.4-14.1 0-17.5 4.1-22.1 9.9-28.8 17.3-7.1 7.8-9.5 29-9.5 29 0 21.4 2.7 35.2 5 41.3 2.3 6.2 21.1 25.2 24.9 27s15.5 2.3 15.5 2.3 11.6-.6 15.5-2.3c3.8-1.8 22.6-20.8 24.9-27s5.1-19.9 5-41.3c0 0-2.4-21.2-9.5-29-6.8-7.4-11.4-13.2-28.9-17.3zm35 31.2c.7 2.5 1.2 5 1.6 7.5.4 2.5.8 5 1 7.5-.1 3.9-.3 7.8-.7 11.7l-.3 2.9-.3 2.9-.3 2.9-.4 2.9c-.6 3.9-1.2 7.7-2.1 11.4-.5 1.9-1 3.7-1.6 5.5-.81 1.95-2.2 3.8-2.7 4.6-1.2 1.5-2.4 3-3.7 4.5-1.3 1.5-2.6 2.9-3.9 4.4-2.6 2.9-5.4 5.6-8.2 8.3-1.4 1.3-2.8 2.7-4.3 3.8-.4.3-1.22.92-2.1 1.3-.8.3-1.7.5-2.6.7-1.8.4-3.8.6-5.7.9-1.9.2-3.8.4-5.7.5-1.9-.1-3.8-.2-5.7-.4-1.9-.2-3.9-.4-5.7-.7-.9-.2-2.76-.53-4.8-1.9-1.5-1.1-3-2.4-4.4-3.7-2.9-2.6-5.7-5.3-8.4-8.2-2.7-2.8-5.4-5.7-7.8-8.8-.6-.8-1.2-1.5-1.7-2.3-.3-.4-.5-.8-.7-1.2l-.3-.6c-.1-.2-.2-.4-.3-.7-.7-1.8-1.2-3.7-1.7-5.6s-.9-3.8-1.2-5.7c-.2-1-.3-1.9-.5-2.9l-.4-2.9c-1-7.8-1.2-15.6-1.1-23.4.7-4.6 1.7-9.3 3-13.7.7-2.2 1.4-4.5 2.3-6.6.4-1.1.9-2.1 1.4-3.1s1.1-2 1.7-2.9c1.87-2.75 3.8-4.3 4.6-5.2 1.6-1.7 3.3-3.3 5-4.7 1.8-1.4 3.7-2.6 5.7-3.7s4.1-2 6.3-2.8l1.6-.6c.5-.2 5.91-1.79 8.3-2.1 1.2-.1 2.3-.1 3.5-.2 2.3-.1 4.65-.14 6.95-.14.1 0 3.35.64 3.35.64l1.8.4 1.7.4c2.3.6 4.5 1.3 6.7 2.3.3.1.5.2.8.3l.8.4c.5.3 1.1.5 1.6.8l1.5.9 1.5.9c2 1.3 3.8 2.8 5.4 4.5 1.7 1.7 3.3 3.4 4.9 5.2 1.7 1.9 2.9 4.2 3.9 6.6 1 2.3 1.8 4.8 2.4 7.2z" fill="#2a0d00" stroke-width="none" opacity="1" stroke="none"></path></g></g><g id="svga-group-mouth-single-move" transform="matrix(1,0,0,1,0,0)"><g id="svga-group-mouth-single"><path id="SvgjsPath7884" d="M91.48 129.63c.86 1.78 1.72 4.79 3.93 4.85 2.21.06 3.62-.98 5.16-1.23s3.38.8 4.91 1.17c1.54.37 3.13-.43 3.68-2.21.55-1.78 3.68-8.84 3.68-8.84s-9.33 3.5-12.77 2.82c-3.44-.68-6.82-.06-8.66-1.11-1.84-1.04-3.07-1.47-3.07-1.47s1.23 1.72 1.78 2.7c.56.98 1.36 3.32 1.36 3.32z" fill="#881e0d" stroke-width="none" opacity="1" stroke="none"></path><path id="SvgjsPath7885" d="M87.61 122.87s2.52 2.82 5.1 3.75 10.56 1.41 14.37.37c3.81-1.04 6.57-4.24 6.57-4.24s-1.84.98-3.68.49c-1.14-.3-2.09-2.95-4.24-3.5-1.34-.34-3.19 1.23-3.75 2.27-.55 1.04-1.23 1.47-2.09.86s-1.84-2.82-3.93-2.89c-1.29-.04-2.52 1.41-3.13 2.46-.62 1.05-2.95 2.03-5.22.43z" fill="#791100" stroke-width="none" opacity="1" stroke="none"></path></g></g><g id="svga-group-eyes-left-move" transform="matrix(1,0,0,1,0,0)"><g id="svga-group-eyes-left"><g id="svga-group-eyesback-left"><path id="SvgjsPath7557" d="M80.2 77.2c7.5 0 13.5 5.8 13.5 13s-6 13-13.5 13-13.5-5.8-13.5-13 6-13 13.5-13z" fill="#ffffff" stroke-width="none" opacity="1"></path></g><g id="svga-group-eyesiriswrapper-left" transform="matrix(1,0,0,1,0,0)"><g id="svga-group-eyesiriscontrol-left" transform="matrix(1,0,0,1,0,0)"><g id="svga-group-eyesiris-left"><path id="SvgjsPath3460" d="M80.2 84.6c3.1 0 5.6 2.5 5.6 5.6s-2.5 5.6-5.6 5.6-5.6-2.5-5.6-5.6 2.5-5.6 5.6-5.6z" fill="#681711" stroke-width="none" opacity="1" stroke="none"></path><path id="SvgjsPath3461" d="M80.2 87.2c1.7 0 3 1.3 3 3s-1.3 3-3 3-3-1.3-3-3 1.3-3 3-3z" fill="#000000" stroke-width="none" opacity="1"></path><path id="SvgjsPath3462" d="m79.5 87.8-.6-.6c-.2-.2-.5-.3-.8-.3s-.6.1-.8.3c-.2.2-.3.5-.3.8s.1.6.3.8l.6.6c.2.2.5.3.8.3s.6-.1.8-.3c.4-.6.4-1.2 0-1.6zm2.7 5.1c1 0 1-1.5 0-1.5-.9 0-.9 1.5 0 1.5z" fill="#ffffff" stroke-width="none" opacity="1"></path></g></g></g><g id="svga-group-eyesfront-left"><path id="SvgjsPath7565" d="M80.2 76.7c-7.8 0-14.1 6.1-14.1 13.6s6.3 13.6 14.1 13.6 14.1-6.1 14.1-13.6S88 76.7 80.2 76.7zm-9 16.3c-5.8-3.4-4.7-12.6 6.7-8.9 8.5 2.8 14.4 10.4 14.4 10.4C82 95.8 76.9 96.4 71.2 93z" fill="#582812" stroke-width="none" opacity="1" stroke="none"></path><path id="SvgjsPath7566" d="M93.2 95.3s-3.9-3.3-6.5-4.7c-2.6-1.4-6.6-5.5-11.2-5.6-4.6-.1-9.4 3.8-9.4 3.8s.9-5.2 4.1-7.8c3.2-2.6 6.2-1.3 10.3 1.1s10.9 8.5 12.7 13.2z" fill="#50220c" stroke-width="none" opacity="1" stroke="none"></path><path id="SvgjsPath7567" d="M93.2 95.3c-1.8-1.8-3.8-3.5-5.9-5.1-1-.8-2.1-1.5-3.2-2.2l-1.6-1c-.6-.3-1.1-.7-1.7-1-1.2-.7-2.5-1.2-3.9-1.4-1.4-.2-2.8-.1-4.1.2-.5.1-1 .3-1.5.5-.5-.2-1.8-.7-3.2-1.3.7-1.2 1.6-2.4 2.8-3.2.6-.4 1.3-.8 2.1-.9.8-.1 1.5-.1 2.3.1 1.5.4 2.9 1.1 4.3 1.9 2.8 1.6 5.3 3.6 7.7 5.8 1.2 1.1 2.3 2.3 3.3 3.5 1 1.3 2 2.6 2.6 4.1-.6-1.5-1.5-2.9-2.4-4.2-1-1.3-2.1-2.5-3.2-3.6-1.2-1.1-2.4-2.2-3.6-3.2-1.3-1-2.6-2-4-2.8-1.4-.8-2.8-1.6-4.5-2-.8-.2-1.7-.2-2.5-.1s-1.6.5-2.3 1c-1.3.9-2.3 2.1-3 3.4-.9-.4-1.8-.9-2.6-1.4-.1-.1-.3-.1-.4.1-.1.1-.1.3.1.4.7.5 1.7 1 2.6 1.4-.3.5-.5 1-.7 1.6-1.6-.4-3.5-1-4.8-1.7-.1-.1-.3 0-.4.1s0 .3.1.4c1.3.7 3.2 1.3 4.9 1.7-.1.3-.2.7-.3 1-1.7.1-4.3 0-6.5-.9-.2-.1-.3 0-.4.2s0 .3.2.4c2 .8 4.2 1 5.9 1h.6c-.1.2-.1.5-.2.7 0 .1 0 .2.1.2.1.1.3.1.4.1.5-.3.9-.7 1.4-1 .1.7.2 1.4.6 2.1.5 1.2 1.4 2.1 2.4 2.8 2.1 1.4 4.5 2.3 6.9 2.6 1.2.2 2.5.2 3.7.2 1.2 0 2.5-.1 3.7-.2 2.4-.2 4.7-.6 7.1-.9.3.2.7.4 1.1.6zM67.8 84.6c1 .5 2 .9 2.7 1.1-.5.2-1 .5-1.4.8-.4-.1-1.1-.2-1.9-.4.1-.5.4-1 .6-1.5zm-.9 2c.5.1 1 .2 1.4.3-.1.1-.2.2-.3.2-.1.1-.3.2-.4.2-.1 0-.4.1-1 .1.2-.2.2-.5.3-.8zm-.3 1.4c-.1 0-.1.1-.2.1V88h.2zm18.3 7.1c-2.4.2-4.9.2-7.3-.1-2.4-.4-4.7-1.2-6.7-2.5-1-.7-1.8-1.6-2.4-2.6-.3-.7-.5-1.4-.6-2.1 1.7-.8 3.4-1.4 5.1-1.7 1.2-.2 2.4-.2 3.6.1 1.2.2 2.3.7 3.3 1.2 1.1.6 2.2 1.3 3.3 1.9 1.1.6 2.2 1.3 3.3 1.9l5.4 3.3c-2.3.3-4.6.5-7 .6z" fill="#000000" stroke-width="none" opacity="1" stroke="none"></path></g></g></g><g id="svga-group-eyes-right-move" transform="matrix(1,0,0,1,0,0)"><g id="svga-group-eyes-right"><g id="svga-group-eyesback-right"><path id="SvgjsPath7558" d="M119.8 77.2c7.5 0 13.5 5.8 13.5 13s-6 13-13.5 13-13.5-5.8-13.5-13 6-13 13.5-13z" fill="#ffffff" stroke-width="none" opacity="1"></path></g><g id="svga-group-eyesiriswrapper-right" transform="matrix(1,0,0,1,0,0)"><g id="svga-group-eyesiriscontrol-right" transform="matrix(1,0,0,1,0,0)"><g id="svga-group-eyesiris-right"><path id="SvgjsPath3463" d="M119.8 85.3c2.7 0 4.9 2.2 4.9 4.9s-2.2 4.9-4.9 4.9-4.9-2.2-4.9-4.9 2.2-4.9 4.9-4.9z" fill="#681711" stroke-width="none" opacity="1" stroke="none"></path><path id="SvgjsPath3464" d="M119.8 87.5c1.5 0 2.7 1.2 2.7 2.7s-1.2 2.7-2.7 2.7-2.7-1.2-2.7-2.7 1.2-2.7 2.7-2.7z" fill="#000000" stroke-width="none" opacity="1"></path><path id="SvgjsPath3465" d="M119.2 88.1c-.2-.2-.3-.4-.5-.5s-.4-.3-.7-.3c-.2 0-.5.1-.7.3-.2.2-.3.4-.3.7 0 .2.1.5.3.7.2.2.4.3.5.5s.4.3.7.3c.2 0 .5-.1.7-.3.3-.5.3-1.1 0-1.4zm2.4 4.5c.8 0 .8-1.3 0-1.3s-.8 1.3 0 1.3z" fill="#ffffff" stroke-width="none" opacity="1"></path></g></g></g><g id="svga-group-eyesfront-right"><path id="SvgjsPath7568" d="M119.8 76.7c-7.8 0-14.1 6.1-14.1 13.6s6.3 13.6 14.1 13.6 14.1-6.1 14.1-13.6-6.3-13.6-14.1-13.6zm9.9 14.5c-5.8 3.4-11.2 5.4-21.5 4.2 0 0 6.2-6.8 15-8.6s12.2 1 6.5 4.4z" fill="#582812" stroke-width="none" opacity="1" stroke="none"></path><path id="SvgjsPath7571" d="M107.3 96.1s3.9-3.3 6.5-4.7c2.6-1.4 7.5-4.4 12.1-4.5 4.6-.1 7.3 2.1 7.3 2.1s-2.7-4.8-5.9-7.4-5-.8-9.1 1.6c-4.1 2.5-9.1 8.2-10.9 12.9z" fill="#50220c" stroke-width="none" opacity="1" stroke="none"></path><path id="SvgjsPath7572" d="M139.7 88.3c-2.7.2-5.5-.1-6.9-.3l-.6-.9h.4c1.9 0 4.2-.2 5.9-.8.1-.1.2-.2.2-.4s-.2-.2-.4-.2c-1.8.7-4.5.8-6.4.7-.2-.4-.5-.7-.8-1.1 1.3-.3 2.5-.7 3-1 .1-.1.2-.2.1-.4s-.2-.2-.4-.1c-.5.3-1.7.6-3.1 1-.9-1.2-1.9-2.3-3.1-3.3-.6-.5-1.2-1-2-1.3-.8-.3-1.6-.3-2.4-.1-.8.2-1.5.6-2.2.9-.7.4-1.3.8-2 1.2-2.7 1.5-5 3.6-7 6-1 1.2-1.9 2.4-2.7 3.7-.8 1.3-1.6 2.7-2.1 4.1 1.2-2.8 3-5.3 5.1-7.6 2-2.3 4.3-4.3 7-5.8.7-.4 1.3-.8 2-1.2.7-.4 1.3-.7 2-.9.7-.2 1.4-.1 2.1.1s1.3.7 1.8 1.2c1 .9 2 1.9 2.8 3-1 .3-2 .5-2.8.7-.2 0-.5 0-.7-.1-1.3-.1-2.6.2-3.8.4-1.2.3-2.4.7-3.6 1.2-1.1.5-2.3 1.1-3.3 1.7-1.1.7-2.1 1.3-3.1 2.1-2 1.5-3.9 3.1-5.5 5 .4-.2.7-.5 1.1-.7 2.2.4 4.4.5 6.6.5 2.3 0 4.6-.3 6.8-.9 2.2-.6 4.3-1.5 6.3-2.6.5-.3 1-.6 1.5-.8.5-.3 1-.6 1.4-1 .5-.4.9-.8 1.2-1.2.1-.1.2-.3.2-.4.2.1.4.2.5.3.1.1.2.1.3 0 .1-.1.2-.2.1-.4-.1-.1-.1-.2-.2-.3 1.1.1 2.8.3 4.6.3.6 0 1.3 0 1.9-.1.2 0 .3-.2.3-.3.2.2.1 0-.1.1zm-7.6-.6c-.3-.2-.5-.4-.8-.7h.4c.1.3.2.5.4.7zm-1.6-2.1c.2.3.5.6.7.9-.5 0-.9 0-1.2-.1-.4-.2-.8-.3-1.2-.4.6-.1 1.1-.3 1.7-.4zm1.4 3.5c-.3.4-.8.8-1.2 1.1s-.9.6-1.4.9-1 .6-1.5.8c-2 1.1-4.1 1.9-6.2 2.6-2.2.6-4.4.9-6.6 1.1-2.2.1-4.4 0-6.5-.1 1.7-1.1 3.4-2.1 5.1-3.1 2.1-1.2 4.2-2.4 6.4-3.3 1.1-.5 2.2-.9 3.3-1.2l2.4-.6h.8c1.2 0 2.4.2 3.5.5.8.2 1.6.6 2.3 1-.2 0-.3.1-.4.3z" fill="#000000" stroke-width="none" opacity="1" stroke="none"></path></g></g></g><g id="svga-group-facehighlight-single"></g><g id="svga-group-eyebrows-left-move" transform="matrix(1,0,0,1,0,0)"><g id="svga-group-eyebrows-left-rotate" transform="matrix(1,1.7453292519943295e-9,-1.7453292519943295e-9,1,1.2995914744351467e-7,-1.3809918186780124e-7)"><g id="svga-group-eyebrows-left"><path id="SvgjsPath7842" d="M64.38 80.82s4.3-7.05 6.42-7.84c2.12-.81 19.67 7.47 19.67 7.47s2.55-2.83.42-7.31c0 0-.13 2.21-.34 2.68 0 0-.9-3.24-1.97-3.98l-.52.98s-1.91-1.56-3.53-2.14c-1.6-.58-13.15-3.71-15.35-1.65s-4.8 11.79-4.8 11.79z" fill="#080806" stroke-width="none" opacity="1" stroke="none"></path><path id="SvgjsPath7843" d="M64.36 80.86c.04-.02.11-.09.11-.11l.06-.1.14-.2.28-.4.56-.8c.38-.53.76-1.05 1.16-1.58.78-1.04 1.58-2.07 2.46-2.98.44-.45.9-.88 1.4-1.21l.37-.19.17-.03c.06 0 .14 0 .2.01.29.01.59.08.89.14 1.22.29 2.46.73 3.68 1.18 2.45.91 4.88 1.88 7.32 2.86 2.43 1 4.86 2.01 7.26 3.13l.08.04.05-.06c.4-.49.69-1.03.92-1.64.22-.6.37-1.24.39-1.92.02-.17.01-.34.01-.5-.01-.17 0-.33-.02-.5l-.05-.5-.1-.5c-.05-.34-.18-.65-.27-.98-.11-.32-.24-.63-.37-.94l-.29-.74-.06.8c-.04.45-.08.89-.14 1.34l-.06.42c-.14-.43-.29-.86-.46-1.3-.15-.36-.32-.71-.51-1.05-.21-.34-.43-.69-.79-.97l-.25-.19-.16.29-.37.64c-.47-.37-.96-.73-1.45-1.04-.61-.38-1.23-.73-1.91-.98-1.32-.45-2.61-.77-3.93-1.11-2.62-.62-5.26-1.15-7.94-1.25-.67-.02-1.34 0-2.02.1-.33.06-.67.12-1 .26-.16.06-.33.15-.49.25l-.23.18c-.06.07-.12.14-.18.2-.49.54-.81 1.17-1.15 1.8-.15.32-.3.64-.44.95-.14.33-.27.65-.4.98-.51 1.32-.96 2.67-1.37 4.02-.2.68-.4 1.37-.58 2.06l-.27 1.04-.13.52-.06.26-.03.13c-.04.03-.03.12-.03.17zm.23-.5-.06.11.05-.14.16-.5.33-1.01c.23-.66.45-1.33.69-2 .47-1.32.96-2.63 1.53-3.89.28-.63.58-1.25.89-1.85.33-.58.67-1.18 1.1-1.62l.16-.17.16-.12c.12-.06.24-.14.39-.18.27-.1.58-.15.88-.2.62-.08 1.26-.07 1.91-.04 1.3.06 2.6.25 3.9.47 1.3.22 2.6.5 3.91.79 1.29.3 2.61.62 3.86 1.02 1.2.43 2.38 1.24 3.47 2.05l.3.23.16-.31.34-.65c.12.14.25.31.36.49.18.3.35.62.5.95.3.67.57 1.37.78 2.07l.21.69.22-.63c.1-.27.11-.48.16-.72.03-.23.05-.45.07-.69.02-.21.03-.41.04-.6.03.06.06.12.08.18.09.31.22.61.28.93.17.62.22 1.27.2 1.9-.02.63-.15 1.26-.35 1.84-.19.56-.47 1.08-.82 1.52l-7.11-3.35c-2.41-1.11-4.82-2.19-7.29-3.08-1.24-.44-2.48-.87-3.77-1.14-.32-.06-.65-.12-1-.12h-.26c-.1.02-.2.04-.29.07l-.47.25c-.56.38-1.01.86-1.44 1.35-.86.99-1.62 2.06-2.37 3.15-.37.55-.71 1.11-1.07 1.67l-.51.85-.28.43z" fill="#000000" stroke-width="none" opacity="1" stroke="none"></path></g></g></g><g id="svga-group-eyebrows-right-move" transform="matrix(1,0,0,1,0,0)"><g id="svga-group-eyebrows-right-rotate" transform="matrix(1,1.7453292519943295e-9,-1.7453292519943295e-9,1,1.365545756470965e-7,-2.1299837271726574e-7)"><g id="svga-group-eyebrows-right"><path id="SvgjsPath7844" d="M134.77 81.64s-4.77-6.2-6.93-6.9c-2.15-.69-18.92 6.74-18.92 6.74s-2.72-2.49-.95-6.47c0 0 .29 1.95.53 2.37 0 0 .66-2.87 1.66-3.54l.59.86s1.78-1.39 3.33-1.92c1.55-.52 12.74-3.36 15.07-1.56 2.32 1.79 5.62 10.42 5.62 10.42z" fill="#080806" stroke-width="none" opacity="1" stroke="none"></path><path id="SvgjsPath7845" d="m134.77 81.52-.04-.11-.08-.23-.17-.46-.34-.91a54.081 54.081 0 0 0-2.36-5.36c-.15-.29-.31-.58-.47-.86-.16-.28-.34-.57-.51-.84-.38-.55-.74-1.11-1.26-1.58-.07-.06-.12-.12-.19-.18l-.25-.16c-.16-.09-.34-.17-.5-.22-.34-.12-.68-.17-1.02-.22-.67-.09-1.34-.1-2-.08-2.64.11-5.22.58-7.77 1.16-1.27.3-2.53.6-3.8 1.01-.65.23-1.24.54-1.81.88-.47.29-.93.6-1.37.94l-.41-.59-.18-.26-.24.17c-.35.25-.53.56-.72.86-.18.3-.31.62-.44.94-.14.38-.26.77-.37 1.15-.03-.12-.06-.24-.09-.37-.09-.4-.16-.79-.23-1.18l-.12-.71-.23.65c-.1.28-.21.55-.3.84-.07.29-.17.58-.19.87l-.06.44-.02.44c-.01.15 0 .3.01.45.01.15.01.29.05.45.08.59.27 1.16.53 1.7s.6 1.02 1.03 1.45l.05.05.07-.03c2.28-1.01 4.62-1.92 6.95-2.82 2.34-.88 4.69-1.75 7.03-2.57 1.18-.41 2.36-.8 3.56-1.06.29-.06.6-.12.87-.13.07 0 .14 0 .21-.01.06.02.11.02.17.02l.38.16c.51.29 1 .67 1.46 1.07.93.8 1.8 1.71 2.65 2.62.43.46.85.92 1.26 1.39l.62.71.31.35.15.17.08.09c.01.02.09.09.12.09a.47.47 0 0 0-.02-.18zm-.52-.66-.57-.74c-.38-.5-.77-.98-1.18-1.48-.81-.96-1.64-1.9-2.57-2.77-.47-.43-.95-.85-1.53-1.19l-.48-.22c-.1-.03-.2-.04-.29-.06-.09 0-.17-.01-.27 0-.34.01-.66.06-.98.12-1.26.25-2.45.64-3.65 1.04-2.38.81-4.69 1.78-6.99 2.78l-6.8 3.01c-.37-.38-.68-.85-.91-1.33-.25-.51-.42-1.07-.48-1.62-.07-.56-.07-1.14.06-1.68.03-.28.14-.55.21-.82.02-.06.04-.11.06-.16.02.18.05.36.08.54.04.21.08.4.12.6.05.21.09.4.2.63l.26.56.17-.62c.17-.62.38-1.24.62-1.84.12-.3.26-.58.43-.85.1-.16.21-.31.33-.44l.38.58.18.27.28-.2c1.02-.74 2.12-1.46 3.28-1.84 1.21-.36 2.49-.66 3.75-.93 1.26-.27 2.53-.53 3.8-.73 1.27-.21 2.55-.38 3.83-.44.64-.02 1.27-.04 1.89.02.3.04.61.08.89.17.14.04.26.1.39.16l.17.11.17.15c.46.38.83.92 1.2 1.42.35.53.69 1.08 1.02 1.63.64 1.12 1.23 2.27 1.8 3.45.28.58.57 1.17.83 1.76l.4.89.2.45.06.13-.07-.1-.29-.41z" fill="#000000" stroke-width="none" opacity="1" stroke="none"></path></g></g></g><g id="svga-group-nose-single-move" transform="matrix(1,0,0,1,0,0)"><g id="svga-group-nose-single"><path id="SvgjsPath8248" d="M94.71 101.62c-.22.12-4.9 2.79-5.07 6.17-.17 3.38 1.94 4.56 3.72 3.13 1.77-1.44 2.37-1.1 3.46-.17 1.1.93 4.23 1.44 5.49.42 1.27-1.01 1.86-1.44 3.3 0 1.44 1.44 5.32-.68 4.06-5.24S99.45 99 94.71 101.62z" fill="url(#SvgjsLinearGradient8249)" opacity="1"></path><path id="SvgjsPath8252" d="M94.71 101.62c-.97.58-1.89 1.25-2.7 2.03-.82.77-1.54 1.67-1.96 2.71-.12.25-.17.53-.25.8-.02.14-.03.28-.05.41-.02.14-.03.27-.02.42-.01.56.06 1.12.22 1.64.16.52.43 1.01.84 1.34.4.34.95.43 1.45.31.13-.02.24-.09.37-.12.11-.06.23-.12.34-.19l.32-.24c.11-.09.22-.18.34-.27.46-.34.96-.71 1.65-.76.34-.02.68.09.95.24.27.15.51.34.73.51.39.34.89.52 1.4.67 1.02.28 2.17.37 3.14.07.25-.07.44-.19.63-.32.22-.18.45-.36.69-.53.25-.17.52-.35.88-.43.36-.09.76-.02 1.07.12.31.15.56.34.79.54.12.1.22.2.33.31.09.09.16.14.25.2.37.21.87.21 1.33.05.94-.32 1.68-1.19 1.97-2.19.31-1 .24-2.13-.07-3.16-.32-1.01-1.04-1.9-1.9-2.59-.86-.7-1.85-1.23-2.89-1.64-1.04-.4-2.14-.7-3.25-.85-1.11-.15-2.25-.19-3.37-.05-1.12.12-2.23.43-3.23.97zm0 0c.99-.54 2.1-.86 3.22-1 1.12-.15 2.26-.15 3.39-.02 2.24.25 4.5.93 6.37 2.3.92.68 1.74 1.59 2.16 2.72.2.56.32 1.13.37 1.73.04.59.01 1.2-.16 1.78-.32 1.16-1.15 2.25-2.36 2.69-.59.21-1.32.26-1.95-.09-.08-.05-.15-.1-.22-.15a3.25 3.25 0 0 1-.19-.17c-.1-.09-.19-.19-.29-.27-.2-.18-.41-.32-.61-.42-.2-.1-.39-.12-.58-.08-.2.04-.41.16-.63.31-.22.15-.43.32-.65.49-.27.2-.57.36-.87.44-.6.19-1.21.21-1.8.18a7.96 7.96 0 0 1-1.74-.32c-.56-.18-1.14-.43-1.59-.85-.42-.36-.84-.71-1.29-.69-.46.01-.95.3-1.4.61-.11.08-.22.16-.33.25l-.37.25c-.13.07-.27.14-.41.21-.15.04-.29.11-.44.13-.6.12-1.28-.03-1.72-.45-.46-.4-.73-.96-.87-1.51-.14-.56-.2-1.14-.16-1.71 0-.14.02-.29.04-.43s.04-.29.07-.42c.09-.27.15-.56.28-.81.21-.53.55-1 .88-1.45.36-.44.74-.86 1.16-1.24.8-.78 1.72-1.45 2.69-2.01z" fill="#2a0d00" stroke-width="none" opacity="1"></path></g></g><g id="svga-group-hair-front"><path id="SvgjsPath7065" d="M185.9 135.4c.4-.1.6-.7.1-.8-12.8-3.5-1.1-13.1-3.6-20.4-1.6-4.7-6.6-5.4-9.4-8.9-3.6-4.6 3.6-10.8 4.5-15.6.8-4.3-2-8.2-3.5-12.1.3-1.8.6-3.7 1-5.5.5-2.4.9-4.8.8-7.2.1-.4.2-.9.3-1.4 1-5.6-1.1-11.5-5.6-15.1-2.3-1.9-4.8-2.9-7.5-3.3 0-1-.1-1.9-.4-2.8-.6-1.9-1.7-3.5-3.2-4.8-1.5-1.3-3.3-2.2-5.2-2.7-3.3-.8-7.4.8-10.3-1.5-3.6-2.9-4-8.1-8.2-10.8-4.2-2.6-8.6-2.7-13-.8 0 0-.1 0-.1.1-1.6-1-3.3-1.6-5.1-1.9-1.8-.2-3.4.2-5.1.2-1.2 0-2.2-.2-3.2-.5-.3-.2-.6-.3-.9-.5-.9-.4-1.9-.7-2.9-.9-.7-.2-1.3-.3-1.9-.4-4.2-.6-8.6.4-12.2 3.7-2.8 2.5-4.7 5.3-8.7 5.6C73.8 24.8 61 29.5 62 38.6v.4c-4-1.9-10.2-1.9-13.5-1.1-3.4.8-6.7 2.8-8.1 6.2-1.2 2.9-1.1 5.3-4.5 6.7-2 .8-4.3.8-6.3 1.8-2.5 1.2-5.1 3.6-5 6.7.1 1.1.6 2.1 1.2 3.1.5.7 1.2 1.2 1.7 1.9 1.3 1.9 2.6 5.6 1.5 7.7-.8 1.5-2.2 2-2.4 3.8-.3 2 1.1 2.8 1.2 4.7.2 2.8-3.4 4.2-2.1 7.1.2.4.7.2.8-.1.8-2.4 3.4-3.7 4-6.1.2-.7 0-1.2 0-1.9-.2-.5-.5-1-.9-1.5-.6-2.2 0-3.9 1.6-5 1-1.9 2.4-2.6 1.9-5.1-.6-2.9-3.5-3.8-4.8-6.2-5.3-8.8 11.4-6.7 14-11.6 1-2 .1-3.3 2-5.4 1.6-1.9 4.2-2.5 6.6-2.8 1.4-.1 3.1-.2 4.7-.1-3.3.4-6.6 1.7-8.8 3.5-1.8 1.5-3.2 3.4-4.2 5.5-.4.3-.9.7-1.3 1.1-2.5 2.5-4.4 5.8-4.4 9.4 0 4.6 3.2 8.1 4.3 12.4.1.5.2.9.2 1.4-.7 2-2 3.6-3.6 5-4.1.8-8.2 3.7-10.8 7.3-3.8 2.5-6.9 5.5-7.6 10.4-.7 4.6 1.1 9.1 4.7 12.1 2.3 1.9 5.5 3.2 7.1 5.8.1.1.1.3.2.4-3.6 5.5-12.3 9.9-13.9 16.5-.8 3.4.1 7.2 2.4 9.9 2.7 3.1 7.3 3.3 4.8 9.4-.5 1.2-1.1 1.5-1.1 2.9 0 .5.7.7.9.2 1.9-3.5 6.8-5.1 3.8-9.8-1.7-2.6-5.2-3.2-6.7-6.1-1.4-2.6-.8-5.1.6-7.3.6 6 6.3 11.7 12.2 10 2.3 2.6 3.8 5.2 1.2 9-1.4 2.1-4.5 4.8-3.4 7.7 1.1 3 4.6 3.6 7.5 2.7 1.6 2.4 4 4.4 6.6 5.5.7 1.8 1.7 3.4 3.4 4.4 2.1 1.3 6 1.9 7.1-1 .3-.7-.4-1.4-1.1-1.4-2 0-3.4.7-5.1-.9l-.3-.3c2.4 0 4.6-1 6.4-3.5 1.6-2.2 2.3-4.9 2.1-7.5.8 1.2 1.7 2.2 2.8 2.8 1.7 1 4.1 1.6 6 .6 1.5-.8 2.7-2.9 1.7-4.5-.4-.6-1.4-.7-1.8 0-.3.5-.6 1-1 1.3-1.4-.2-1.6-3.3-1.3-4.5.3-1.2 2.2-2.2 3.1-2.9 1.2-.9 2.4-1.3 3.3-2.6 1.7-2.2 1.8-5.2.8-7.7-1-2.7-3.1-4.6-5.4-6.1-2.6-1.7-5-2.7-6-5.9-1-3.3.6-6.2 1.2-9.3v-.3c1-1 1.7-2.1 2-3.5 1.3-7.3-10-9.2-8.2-16 .2-.8.6-1.5 1-2.1.3-.4.6-.7 1-1.1 1-.9 2.3-1.7 3.4-2.5 1.8-1.1 3.9-1.9 5.9-3 3.3-1.7 5.6-3.8 5.8-7.7.2-4.5-2.5-8.1-4.5-11.8-4.4-8.2.7-14.6 7.8-18.1.6-.1 1.2-.3 1.8-.6.2.1.5 0 .7-.1.2-.2.4-.3.6-.5h.2c7.6-4.3 14.9-10.1 24.2-8.2 5.3 1.1 10.9 4.6 9.7 10.8-.7 3.5-2.2 6.8-2 10.4.3 5.8 5.1 8.9 10.4 9.5 2.7.3 5.4-.1 8.1-.4 6.8 1.7 13 5.9 11.7 14.1-1.1 6.7-7.6 11-9.5 17.5-.6 2.2-.7 4.5-.1 6.7 0 1.1.2 2.2.6 3.3 1 2.4 2.9 4 4.6 5.8 4.6 5-.3 8.3-4 11.6-2 1.8-3.8 4.3-4.3 6.9-.4.4-.9.9-1.2 1.4-2.1 3.3-2 9.9 2.9 10.5.7.1 1-1 .4-1.3-2.2-1-2.3-3.6-1.5-5.8.3.5.6 1 1 1.5.9 1 1.9 1.6 3 2.3 2.4 1.7 2.5 4 2 6.7-.1.3-.1.6-.2.9 0 .1 0 .1-.1.2-.6 2.3-1.4 4.3-.6 6.8.4 1.1 1 2 1.8 2.7-1.9-.1-4-1.6-4.9-3.6-.4-.7-1.4-.2-1.3.5 1.2 5.4 7 7.1 10.6 4.1h.2c2.3 0 4.2.1 6.1.8 2.7 1.9 5.7 3.1 9.2 2.6 3 .1 6.2-.6 8.8-1.6 5.1-1.5 9.9-6.8 9.7-11.8 3.9 3.2 10.8 2.6 11.1-4.2.1-1.1-1.4-1.4-1.9-.5-1.5 3.2-3.8 2.9-7-1.1.4-1.1.8-2.1 1.3-3.1.4-1 .9-2 1.1-3.1.4-2.5-.2-4.6-2-6.4-.6-.6-1.3-1.1-2-1.6-.1-.2-.3-.4-.4-.6-.7-1.6-1.5-3.2-2.2-4.8.7-1.1 1.3-2.4 1.7-3.7 1.5-2.6 2.3-5.5 2.7-8.3.1-1 .2-2.2.1-3.3.2.3.4.5.6.8 1.4 2.7-.4 6-1 8.7-1.3 6.3 2.5 12.2 8.8 11.3zM32.3 114c-2.1-2.5-5.4-3.9-7.9-6.5-3.7-3.7-4-9.6-1-13.8-.8 1.7-1 3.5-.5 5.5 1.3 4.6 5.5 6.9 8.5 10.2.4.5.8.9 1.1 1.3.3 1.2.2 2.3-.2 3.3zm34.6-56.8c-3.1 4.2-3.4 8.6-1.3 13.3 1.4 3.1 3.7 5.8 4.5 9.2.9 3.7-1 5.9-3.5 7.5.3-.6.6-1.3.8-2 1.1-3.7.7-7.4-1.4-10.4 0-.1-.1-.1-.1-.2-2.4-5.2-3.7-9.5-1.3-15 .2-.4.1-.9-.2-1.2 1.2-1.3 2.5-2.5 4.2-3.4.2-.1.3-.2.5-.3-.9.8-1.6 1.6-2.2 2.5zm48.8 9c-1.3-3.2-.3-5.9.8-9 1.3-3.7 2.7-7 .7-10.7-5-9.1-15.2-9.5-24.3-6.2.7-.5 1.3-1 2-1.5 3.5-1.4 7.2-2.2 11-2 3.7.2 7.4 1.2 10.5 3.3 2 2.9 3.8 5.7 3.9 9.4.1 4-1.9 7.6-2.2 11.5-.4 4.4 1.3 8.1 4.8 10.1-3.3-.3-6-1.7-7.2-4.9z" fill="#080806" stroke-width="none" opacity="1" stroke="none"></path><path id="SvgjsPath7066" d="M148.4 121.5c-1-.8-2.1-1.3-3.2-1.8s-2.3-.8-3.4-1.1c-1.1-.3-2.2-.6-3.2-1-2-.8-3.8-1.8-4.7-3.6-.9-1.7-.9-3.9-.3-5.9.6-2.1 1.7-3.9 3-5.8 2.6-3.6 5.8-6.9 8.3-10.9.6-1 1.2-2.1 1.6-3.1.4-1.1.8-2.2 1-3.4.5-2.3.5-4.8-.2-7.1-.4-1.2-.9-2.2-1.6-3.2l-.6-.7-.6-.6c-.4-.4-.9-.8-1.4-1.1-2.1-1.2-4.4-1.7-6.8-1.7-4.7-.1-9.1 1.6-13.6 1.5-2.2-.1-4.5-.6-6.2-1.9-.8-.7-1.5-1.5-1.9-2.5-.3-1-.4-2.1-.2-3.1.3-2.1 1.5-4 2.8-5.9 1.2-1.9 2.7-3.8 3.3-6.2.3-1.2.4-2.4.4-3.7-.1-1.2-.4-2.4-.8-3.6-.8-2.3-2.3-4.3-4.1-5.9-1.8-1.6-4.1-2.7-6.4-3.3-2.3-.6-4.8-.6-7.1-.3-4.7.6-9.1 2.7-12.8 5.4-3.7 2.7-6.9 6-10 9.4l.1.1c3.4-3.1 6.7-6.2 10.5-8.7 1.9-1.2 3.8-2.3 5.9-3.2 2.1-.8 4.2-1.3 6.4-1.6 4.3-.5 8.9.5 12.1 3.4.8.7 1.5 1.5 2.1 2.4.6.9 1.1 1.8 1.5 2.8.8 2 1 4.2.5 6.2s-1.7 3.9-2.9 5.9c-1.2 1.9-2.4 4.1-2.7 6.5-.2 1.2 0 2.5.4 3.6.5 1.1 1.3 2.1 2.3 2.8 2 1.4 4.4 1.8 6.7 1.9 4.7 0 9.1-1.6 13.6-1.4 2.2.1 4.5.5 6.3 1.7.4.3.9.6 1.3 1l.6.6.5.6c.6.9 1.1 1.9 1.3 2.9.5 2.1.4 4.3-.1 6.5-.5 2.1-1.4 4.1-2.7 6-2.4 3.7-5.7 6.9-8.5 10.7-1.4 1.9-2.6 3.9-3.4 6.3-.4 1.2-.6 2.4-.6 3.7 0 1.3.3 2.6.9 3.8.6 1.2 1.5 2.2 2.6 2.9 1 .7 2.2 1.3 3.3 1.7 2.2.8 4.5 1.3 6.5 2.1s3.9 2 4.8 3.7c.4.8.6 1.8.5 2.7s-.6 1.8-1.2 2.6c-1.3 1.6-3.2 2.7-5.2 3.9-1 .6-2 1.2-2.9 2-.9.8-1.8 1.8-2.3 2.9-.6 1.1-.9 2.4-.8 3.7.1.7.3 1.3.6 1.9.4.6.8 1.1 1.3 1.5 2 1.6 4.4 2 6.1 3.2.9.6 1.5 1.4 1.7 2.4s0 2.1-.4 3.1c-.9 2-2.9 3.4-4.8 4.6l.1.2c1.9-1.1 4-2.4 5.2-4.5.6-1.1.9-2.3.7-3.5-.2-1.3-1-2.4-1.9-3.1-1.9-1.5-4.3-2-5.8-3.4-.8-.7-1.2-1.5-1.3-2.5-.1-.9.2-2 .7-2.9 1-1.8 2.8-3 4.8-4.1 1-.6 2-1.1 3-1.8s2-1.5 2.8-2.4c.8-1 1.5-2.1 1.7-3.5.2-1.3 0-2.8-.6-4-.7-1.1-1.6-2.1-2.6-2.8zM67.1 56.3c1.1-.8 2.4-1.5 3.7-2.1 2.6-1.2 5.5-1.8 8.3-2.6v-.2c-2.9.4-5.8.8-8.7 1.8-2.8 1-5.6 2.6-7.4 5.2-.9 1.2-1.6 2.7-2 4.2-.3 1.5-.3 3.2.2 4.8.5 1.5 1.4 2.9 2.3 4.1.9 1.2 2 2.2 3 3.3 1 1 2 2.1 2.8 3.2.8 1.1 1.4 2.4 1.5 3.7.2 1.3-.2 2.7-.9 3.9-.7 1.2-1.8 2.2-2.9 3.1-2.3 1.7-5.1 2.8-7.5 4.6-1.2.9-2.3 1.9-3.1 3.2-.8 1.3-1.4 2.8-1.2 4.4.1 1.6 1 3.2 2.1 4.2 1.1 1.1 2.5 1.9 3.7 2.6 1.3.8 2.5 1.5 3.5 2.4.3.2.4.5.7.7.2.2.4.5.5.8.2.5.4 1.1.4 1.7 0 1.2-.6 2.3-1.5 3.2-.9.9-2.1 1.7-3.3 2.3-.6.3-1.2.6-1.9.9-.7.3-1.4.7-2 1.1-1.3.8-2.6 1.8-3.6 3.2-.5.7-.9 1.5-1.1 2.4-.2.9-.1 1.8.1 2.7.5 1.8 1.8 2.9 2.9 3.9 1.1 1 2.1 1.9 2.7 3 .6 1.1.7 2.4.5 3.7-.4 2.7-2.1 5.3-2.3 8.5 0 .8.1 1.6.3 2.3.3.8.8 1.4 1.4 1.9.6.5 1.3.9 2.1 1 .8.2 1.6 0 2.2-.5l-.1-.2c-1.3.7-2.8.1-3.7-.9-.5-.5-.8-1.1-1-1.7-.2-.6-.2-1.3-.1-2 .3-2.8 2.1-5.2 2.8-8.2.4-1.5.4-3.3-.4-4.9-.8-1.5-2-2.6-3-3.6s-1.9-2-2.2-3.1c-.3-1.1 0-2.2.7-3.2s1.8-1.9 3-2.6c.6-.4 1.2-.7 1.8-1 .6-.3 1.3-.7 2-1 1.3-.7 2.6-1.6 3.8-2.8.6-.6 1.1-1.2 1.5-2 .4-.8.6-1.7.6-2.6 0-.9-.3-1.7-.7-2.5-.2-.4-.5-.7-.7-1.1l-.9-.9c-1.2-1-2.6-1.7-3.9-2.4s-2.5-1.4-3.6-2.2c-1-.9-1.8-2-1.9-3.3-.2-1.3.2-2.7.9-3.9.7-1.2 1.7-2.3 2.8-3.1 2.3-1.8 5-2.8 7.5-4.6 1.2-.9 2.3-1.9 3.2-3.2.9-1.2 1.4-2.8 1.4-4.4 0-1.6-.7-3.1-1.5-4.4-.8-1.3-1.8-2.4-2.8-3.6-2-2.2-4-4.2-4.9-6.8-.9-2.5-.2-5.3 1.3-7.6.6-.9 1.5-1.9 2.6-2.8zM53 147.5c-.5-1.4-.5-2.9-.2-4.4.2-1.5.5-3.1.4-4.7-.1-.8-.3-1.7-.7-2.5-.4-.8-1.1-1.5-1.8-1.9-1.4-1-2.8-1.5-3.8-2.4-1-.8-1.3-2-1-3.3.3-1.2 1-2.4 2-3.3 1-.9 2.3-1.7 3.6-2.5.7-.4 1.3-.9 2-1.4.7-.5 1.3-1.1 1.8-1.8 1.1-1.3 2-3 1.8-5-.1-1-.4-1.8-.9-2.6s-1.2-1.4-1.9-1.9c-1.4-1-2.8-1.6-4.2-2.3-1.3-.7-2.6-1.4-3.5-2.4-.9-1-1.3-2.3-1.3-3.7 0-1.4.4-2.8 1.1-4.1.7-1.3 1.6-2.4 2.7-3.4 2.2-2.1 4.8-3.8 7-6.1 1.1-1.2 2-2.4 2.6-3.9.7-1.4 1-3.1.7-4.7-.2-1.6-1.1-3.1-2.1-4.2-1-1-2.1-2-3.3-3-1.2-1-2.3-2-3.1-3.2-.8-1.2-1.4-2.5-1.7-3.8-.5-2.8.3-5.7 1.8-8.2 1.5-2.5 3.7-4.5 6.3-5.8 2.7-1.3 5.6-2 8.6-2.2 3-.3 6.1-.2 9.1 0v-.2c-3-.5-6.1-.9-9.2-.8-3.1 0-6.3.6-9.2 1.9-1.5.6-2.9 1.5-4.1 2.5-1.2 1.1-2.3 2.3-3.1 3.7-1.7 2.8-2.6 6.1-1.9 9.4.3 1.6 1.2 3.2 2.2 4.4 1.1 1.2 2.3 2.2 3.5 3.2 1.2.9 2.4 1.8 3.5 2.9 1 1.1 1.8 2.3 2.1 3.8.2 1.4 0 3-.6 4.3-.6 1.3-1.5 2.6-2.6 3.7-2.1 2.2-4.8 3.7-7.2 5.7-2.4 2-4.5 4.8-4.7 8.3-.1 1.7.4 3.5 1.6 4.8 1.1 1.3 2.6 2.2 4 2.9 1.4.7 2.8 1.4 3.9 2.2.5.4 1 .9 1.3 1.4.3.5.5 1.1.5 1.7.1 1.2-.5 2.4-1.4 3.5-.8 1.1-2 1.9-3.3 2.7-1.3.8-2.6 1.7-3.9 2.8-1.2 1.2-2.2 2.7-2.5 4.5-.2.9-.1 1.8.2 2.8s.9 1.7 1.6 2.2c1.4 1.1 2.9 1.5 4.1 2.3 1.2.7 1.8 1.9 2 3.3.2 1.4 0 2.9-.1 4.5-.2 1.6 0 3.2.6 4.7.3.7.8 1.4 1.4 2 .6.5 1.5.8 2.2.7v-.2c-1.4-.2-2.5-1.5-2.9-2.9zm111.2-22c.7-1.1 1.2-2.3 1.6-3.6.3-1.3.4-2.6.2-4s-.9-2.7-2-3.7-2.4-1.5-3.7-1.8c-1.3-.3-2.6-.4-3.8-.6-1.2-.1-2.4-.3-3.4-.6s-1.9-.9-2.4-1.7c-1.1-1.6-.8-4.1.2-5.9 1.1-1.9 2.8-3.6 4.5-5.4s3.3-3.7 4.8-5.7c3-4 5.5-8.6 6.2-13.7.7-5.1-.5-10.5-3.9-14.5-.8-1-1.8-1.9-2.9-2.6-1.1-.7-2.3-1.3-3.6-1.6-2.5-.7-5.1-.6-7.6-.1-5 .9-9.3 3.5-13.9 5-2.3.7-4.7 1.4-7.1 1-1.2-.2-2.2-.9-2.9-1.8-.7-.9-1-2.1-1.2-3.3-.2-2.4.7-4.7 1.6-7 .9-2.3 1.5-4.8 1.7-7.3.4-5-.7-10.2-3.6-14.5-3-4.2-7.8-7-12.8-7.9-5-1-10.2-.5-14.9 1.4-4.7 1.9-8.8 5-12.1 8.7-3.4 3.7-6.1 7.9-8.2 12.3l.2.1c2.5-4.2 5.3-8.2 8.8-11.7 3.4-3.5 7.5-6.2 11.9-8 4.5-1.7 9.4-2.1 14-1.1 2.3.5 4.6 1.3 6.6 2.5s3.8 2.8 5.2 4.7c2.8 3.8 4.1 8.6 3.9 13.4-.1 2.4-.6 4.8-1.4 7.1-.8 2.3-1.7 4.7-1.4 7.3.1 1.3.5 2.5 1.3 3.6s2 1.8 3.2 2c2.6.5 5.1-.2 7.4-.9 4.7-1.5 9.1-3.8 13.9-4.5 2.4-.4 4.8-.3 7 .3 1.1.3 2.1.9 3.1 1.5.9.7 1.8 1.5 2.5 2.4 2.9 3.7 3.9 8.7 3.2 13.2-.7 4.7-3.1 8.9-6.1 12.7-1.5 1.9-3.1 3.7-4.7 5.5-1.6 1.8-3.5 3.5-4.9 5.9-.6 1.2-1.1 2.6-1.1 4-.1 1.4.2 2.9 1.1 4.1.9 1.2 2.2 2.1 3.5 2.5 1.3.4 2.6.5 3.8.6 2.4.2 4.9.3 6.4 1.8.8.7 1.3 1.6 1.5 2.7.2 1.1.1 2.2-.1 3.3-.3 1.1-.7 2.2-1.3 3.2-.6 1-1.4 1.9-2.1 2.8-1.6 1.8-3.5 3.4-5.1 5.4-.8 1-1.5 2-2 3.2-.5 1.2-.8 2.4-.8 3.7s.2 2.6.7 3.7c.6 1.1 1.5 2.1 2.7 2.6l.1-.2c-1.1-.6-1.9-1.5-2.3-2.6-.4-1.1-.6-2.3-.5-3.5.1-1.2.4-2.4.9-3.4s1.2-2 2-2.9c1.6-1.8 3.5-3.3 5.3-5.1 1.3-.9 2.1-1.9 2.8-3zM67.4 40.7c-.5-2.8-.7-5.6-.2-8.2.1-.6.3-1.3.6-1.9.2-.6.5-1.2.8-1.8.7-1.1 1.6-2.1 2.6-2.9 1-.8 2.2-1.4 3.5-1.7.7-.1 1.3-.1 2-.1.7.1 1.3.3 2 .5 1.3.4 2.7 1 4.2 1 .8 0 1.5-.3 2.2-.7.2-.1.3-.2.5-.3l.4-.4c.3-.2.5-.6.8-.9.9-1.2 1.5-2.6 2-3.9.6-1.3 1.1-2.5 1.9-3.4.4-.4.8-.7 1.3-.9.5-.2 1-.2 1.6 0 1.1.3 2.2 1 3.4 1.8.6.4 1.2.8 2 1.1.7.3 1.5.6 2.4.6.9.1 1.7-.1 2.5-.4.7-.3 1.4-.6 2-1l1.8-1.1c.6-.3 1.2-.6 1.8-.8 1.2-.3 2.7-.4 3.7.7l.2-.1c-.4-.6-1-1.1-1.8-1.4-.7-.2-1.5-.3-2.3-.2s-1.5.3-2.2.6c-.7.3-1.3.6-1.9.9-1.2.6-2.5 1-3.6.9-1.1-.1-2.2-.8-3.3-1.6-1.2-.7-2.4-1.7-4.1-2.1-1.7-.4-3.7.4-4.8 1.7-2 2.6-2.2 5.6-3.5 7.9-.6 1.1-1.7 2.1-3 2.2-1.3.1-2.7-.4-4-.9-1.3-.5-2.8-1-4.3-.9-1.5.1-3 .6-4.3 1.4-1.3.8-2.4 2-3.1 3.3-.8 1.4-1.2 2.8-1.4 4.3-.3 3 .3 5.9 1.5 8.5l.1.2zM22.1 81.4c-1.4-.9-2.3-2.4-2.6-3.9-.3-1.5.4-3.1 1.4-4.2.5-.5 1.1-1 1.8-1.2.7-.3 1.5-.4 2.3-.5 1.6-.2 4-.8 5-3.1.2-.6.3-1.2.2-1.8-.1-.6-.4-1.2-.7-1.6-.6-.8-1.4-1.4-1.9-1.9s-.9-1.1-1.2-1.8c-.3-.7-.4-1.4-.5-2.2-.1-1.5.4-3 1.2-4.3.4-.6 1-1.2 1.6-1.6.6-.4 1.4-.7 2.2-1 1.6-.5 3.3-.8 4.9-1.2 1.7-.4 3.4-1.2 4.5-2.8 1-1.5 1.2-3.4 1.9-4.8s1.9-2.5 3.3-3.3c1.4-.8 2.9-1.4 4.4-1.7s3.2-.3 4.8-.1c3.3.4 6.5 1.5 9.8 2.5l.1-.2c-3-1.6-6.1-3.2-9.6-3.8-3.4-.7-7.4-.2-10.4 1.9-1.5 1.1-2.7 2.5-3.4 4.2-.7 1.7-.6 3.5-1.5 4.9-.8 1.4-2.4 2.1-4.1 2.4-1.6.4-3.3.4-5.1.8-.9.2-1.7.5-2.6.9-.9.4-1.6 1.1-2.2 1.8-1.2 1.5-1.8 3.4-1.8 5.3 0 1 .1 1.9.5 2.8.3.9.9 1.8 1.5 2.5s1.3 1.2 1.7 1.7c.4.5.4.9.3 1.4-.2.5-.7 1-1.3 1.3-.6.3-1.3.5-2.1.7s-1.6.5-2.5.9c-.9.4-1.7 1.1-2.3 1.8-1.2 1.5-1.7 3.6-1.1 5.4.5 1.8 1.8 3.3 3.5 3.9v-.1zM51.5 171c-.9.2-1.8-.1-2.6-.6-1.5-1.1-2.2-3-3.1-4.7-.5-.9-1.1-1.8-1.9-2.5-.8-.7-1.9-1.1-2.9-1.4-2.1-.4-4.1-.3-5.9-.5-.9-.1-1.8-.3-2.4-.8-.6-.4-1.1-1.1-1.3-1.9-.3-1.5.4-3.4 1.3-4.9 1-1.6 2.2-3.3 2.7-5.5.3-1.1.3-2.3-.1-3.5-.4-1.1-1.1-2.1-1.9-2.9-1.7-1.5-3.6-2.2-5.3-3.1-1.7-.8-3.4-1.7-4.4-3-1.1-1.3-1.4-3-.9-4.7.4-1.7 1.4-3.3 2.6-4.6 2.6-2.7 6.3-4.4 9.1-7.5 1.3-1.6 2.5-3.4 2.8-5.5.2-1.1.1-2.2-.2-3.2-.3-1-.9-2-1.6-2.8-2.8-3.1-7-4.1-9.4-7-1.2-1.4-1.9-3.3-1.8-5.2 0-1.9.6-3.8 1.6-5.4 1-1.6 2.4-3 3.9-4.2 1.5-1.2 3.2-2.2 4.9-3.1 1.7-1 3.4-2 4.9-3.5.7-.7 1.4-1.6 1.8-2.7.4-1 .6-2.2.5-3.3-.3-2.2-1.5-4-2.4-5.7-1-1.7-1.5-3.3-1.6-5.1-.1-3.6 1.7-7.2 4.3-9.9 2.6-2.7 6.2-4.3 9.9-5.3s7.7-1.4 11.5-1.8V45c-3.9.1-7.9.2-11.8 1-2 .4-3.9 1-5.7 1.8-1.8.8-3.6 1.9-5.1 3.4-1.5 1.4-2.7 3.1-3.6 5-.9 1.9-1.4 4-1.4 6.1 0 2.1.8 4.2 1.9 6 1 1.7 2.1 3.3 2.3 5 .3 1.7-.4 3.4-1.6 4.8-1.2 1.4-2.8 2.5-4.5 3.5-3.3 2.1-6.7 4.4-8.8 7.9-1 1.7-1.6 3.7-1.7 5.7-.1 2 .6 4.1 1.9 5.7 2.7 3.1 6.8 4.4 9.1 7.2.6.7 1 1.5 1.2 2.4.2.8.2 1.8 0 2.6-.4 1.8-1.4 3.4-2.6 4.7-2.5 2.7-6.2 4.3-9.2 7.2-1.5 1.5-2.7 3.3-3.2 5.4-.3 1.1-.4 2.2-.2 3.3.2 1.1.7 2.2 1.4 3.1.7.9 1.6 1.6 2.5 2.2.9.6 1.8 1 2.7 1.5 1.8.9 3.5 1.6 4.9 2.8 1.3 1.1 1.9 2.6 1.5 4.2-.4 1.6-1.4 3.2-2.4 5-.5.9-.9 1.9-1.2 2.9-.3 1-.4 2.2-.1 3.4.3 1.2 1 2.2 2 2.8 1 .6 2.1.9 3.2 1 2.1.2 4-.1 5.8.2.9.1 1.7.5 2.4 1s1.2 1.3 1.8 2.1c1 1.6 1.9 3.6 3.6 4.8.4.3.9.5 1.5.6.5.1 1.1.1 1.6-.1 1-.2 2-1 2.1-2.1h-.2c-.4 1.2-1.3 1.8-2.2 1.9zm132.9-92c-.4-.8-1.1-1.4-1.7-1.9-1.3-1-2.6-1.7-3.7-2.4-1.1-.8-1.8-1.7-2.1-2.9-.3-1.2-.2-2.5 0-3.9.4-2.8 1.6-5.6 1.6-8.8 0-3.2-1.2-6.2-2.9-8.7-1.8-2.5-4.2-4.4-7-5.7-2.8-1.2-5.7-1.8-8.7-1.8-3-.1-5.9.3-8.8 1.1-2.8.8-5.6 1.7-8.4 1.9-1.4.1-2.8-.1-4-.5-1.2-.5-2.3-1.3-3.1-2.4-1.7-2.1-2.5-4.9-3.1-7.7-.6-2.8-1.1-5.8-2.6-8.6-3-5.6-10.3-7.9-15.8-5.5l.1.2c5.6-1.7 11.9 1.1 14.3 6 1.2 2.5 1.6 5.3 2.2 8.2.6 2.9 1.5 5.9 3.5 8.4 1 1.2 2.4 2.2 3.9 2.6 1.5.5 3.1.6 4.6.3 3-.4 5.7-1.6 8.5-2.4 2.8-.8 5.7-1.2 8.6-1 2.9.1 5.7.9 8.2 2.2s4.6 3.3 6.2 5.6c1.5 2.3 2.4 5 2.4 7.8 0 2.7-1.2 5.4-1.8 8.4-.3 1.5-.5 3.1 0 4.8.2.8.6 1.6 1.1 2.3.5.7 1.2 1.3 1.8 1.7 1.3.9 2.6 1.5 3.6 2.3 1 .8 1.6 1.8 1.7 3 .1 1.2-.3 2.5-1 3.6-.6 1.1-1.6 2.2-2.6 3.2s-2.1 2.1-2.9 3.4c-.8 1.3-1.5 2.8-1.6 4.3 0 .8.1 1.6.4 2.3.3.8.9 1.4 1.5 1.8.6.5 1.4.8 2.1.8.8.1 1.6-.2 2.2-.7l-.1-.2c-1.2.8-2.8.4-3.8-.5-.5-.4-.9-1-1.1-1.6-.2-.6-.2-1.3-.2-2 .2-1.3.8-2.6 1.6-3.7s1.9-2.1 2.9-3.1c1.1-1 2.1-2.1 3-3.4.8-1.3 1.4-2.9 1.4-4.7.2-.4 0-1.3-.4-2.1zM138 25.7c1.1 1.5 2 3.5 3.5 4.9.8.7 1.7 1.3 2.8 1.5 1.1.2 2.2-.1 3.1-.7.9-.6 1.7-1.3 2.4-2s1.4-1.3 2.1-1.7c.7-.4 1.5-.6 2.1-.4.6.2 1.1.7 1.6 1.5.6.7 1 1.8 2.1 2.5.5.4 1.2.7 1.9.7s1.3-.2 1.9-.5c1.1-.6 1.8-1.6 2.1-2.7.3-1 .4-2.1.4-3.1h-.2c-.3 1-.6 1.9-1.1 2.7-.5.8-1.1 1.4-1.8 1.6-.8.3-1.4.1-1.9-.3-.5-.5-.9-1.3-1.5-2.2-.3-.5-.6-.9-1.1-1.4s-1.1-.8-1.7-1c-1.4-.3-2.7.2-3.6.8-.9.6-1.7 1.4-2.3 2.2-.6.8-1.2 1.5-1.9 2.1-.7.6-1.5 1-2.4 1-.9 0-1.8-.6-2.4-1.3-1.3-1.4-1.6-3.4-2.6-5.3-2.1-3.9-7.4-5.6-11.1-3.8l.1.2c3.8-.1 7.5 1.7 9.5 4.7zm39.2 109.1c-.8-.9-1.6-1.7-2.2-2.5-.3-.4-.6-.9-.8-1.4l-.2-.7c-.1-.2-.1-.5-.1-.8-.1-1 0-2.2.3-3.2.6-2.2 1.7-4.3 2.5-6.5.4-1.1.7-2.3.8-3.5.1-1.2-.1-2.4-.6-3.6-.9-2.3-2.8-4-4.4-5.6-1.6-1.6-3.3-3.3-4-5.3-.7-2-.5-4.2.3-6.2.7-2.1 1.8-4.1 2.9-6.2 1.1-2.1 1.9-4.4 2.2-6.9.1-1.2.1-2.5-.3-3.6-.3-1.2-1-2.3-1.9-3l-.1.1c.7.9 1.2 1.9 1.4 3.1.2 1.1.1 2.2-.1 3.3-.4 2.2-1.4 4.3-2.5 6.3-1.2 2-2.4 4.1-3.2 6.4-.4 1.2-.7 2.4-.8 3.7-.1 1.3.1 2.6.6 3.8 2.2 4.8 7.4 6.3 9.3 10.5.4 1 .6 2.2.5 3.3-.1 1.1-.4 2.2-.9 3.3-.8 2.2-2.1 4.2-2.9 6.4-.4 1.1-.7 2.4-.6 3.7 0 1.3.5 2.6 1.2 3.7 1.4 2.1 3.3 3.6 4 5.5.4.9.4 1.9 0 2.6-.4.8-1.2 1.4-2.1 1.9-1 .6-2.1 1.2-3 2.4-.9 1.1-1.3 2.7-1.1 4.1.3 2.6 1.5 4.7 1.8 6.8.3 2.1-.1 4.3-1.1 6.2-1.9 3.9-6.8 6.2-11.4 5.3l-.1.2c2.2.8 4.8.7 7.1-.1 2.3-.8 4.4-2.4 5.7-4.6 1.3-2.1 1.9-4.7 1.7-7.2-.1-1.3-.5-2.5-.9-3.6-.3-1.1-.7-2.2-.7-3.2-.1-1 .1-1.8.6-2.5s1.5-1.3 2.5-1.9c1-.6 2.2-1.4 2.8-2.9.7-1.4.4-3-.1-4.2-.5-1.5-1.3-2.5-2.1-3.4z" fill="#000000" stroke-width="none" opacity="1" stroke="none"></path></g><g id="svga-group-glasses-single-move" transform="matrix(1,0,0,1,0,0)"><g id="svga-group-glasses-single"></g></g></g></g></g><rect id="svga-credit-rect" width="200" height="15" x="0" y="185" fill="#ecf0f1" opacity="0.5" style="display: none;"></rect><text id="svga-credit-text" font-family="Avenir Next, Roboto, Helvetica, Arial, sans-serif" font-size="10px" text-anchor="start" font-weight="400" size="10px" anchor="start" weight="400" fill="#333333" x="33.43669891357422" y="182.60824704170227" style="display: none;"><tspan id="SvgjsTspan3371" dy="13" x="33.43669891357422">Created on AvatarMaker.com</tspan></text></g><defs id="SvgjsDefs3323"><linearGradient id="SvgjsLinearGradient8063" x1="100.1029" y1="84.5527" x2="100.1029" y2="114.9561" gradientUnits="userSpaceOnUse" class="svga-on-canvas-nose-gradient-single-0-null"><stop id="SvgjsStop8064" stop-opacity="0" stop-color="#50220c" offset="0" ></stop><stop id="SvgjsStop8065" stop-opacity="1" stop-color="#391200" offset="1" ></stop></linearGradient><linearGradient id="SvgjsLinearGradient8219" x1="100.0291" y1="78.4287" x2="100.0291" y2="116.3678" gradientUnits="userSpaceOnUse" class="svga-on-canvas-nose-gradient-single-0-null"><stop id="SvgjsStop8220" stop-opacity="0" stop-color="#67361f" offset="0" ></stop><stop id="SvgjsStop8221" stop-opacity="0.9727" stop-color="#582812" offset="0.7584" ></stop><stop id="SvgjsStop8222" stop-opacity="0.9769" stop-color="#50220c" offset="0.7953" ></stop><stop id="SvgjsStop8223" stop-opacity="0.9852" stop-color="#491c08" offset="0.8691" ></stop><stop id="SvgjsStop8224" stop-opacity="0.9968" stop-color="#391200" offset="0.972" ></stop><stop id="SvgjsStop8225" stop-opacity="1" stop-color="#2a0d00" offset="1" ></stop></linearGradient><linearGradient id="SvgjsLinearGradient8249" x1="99.7789" y1="100.5259" x2="99.7789" y2="111.7225" gradientUnits="userSpaceOnUse" class="svga-on-canvas-nose-gradient-single-0-null"><stop id="SvgjsStop8250" stop-opacity="0" stop-color="#582812" offset="0" ></stop><stop id="SvgjsStop8251" stop-opacity="1" stop-color="#50220c" offset="1" ></stop></linearGradient></defs></svg>