<svg xmlns="http://www.w3.org/2000/svg" version="1.1" width="600px" height="600px" viewBox="0 0 200 200" style="overflow:hidden!important;"><defs id="SvgjsDefs19082"><linearGradient id="SvgjsLinearGradient19792" x1="100.0394" y1="79.6722" x2="100.0394" y2="122.2396" gradientUnits="userSpaceOnUse" class="svga-on-canvas-nose-gradient-single-0-null"><stop id="SvgjsStop19793" stop-opacity="0" stop-color="#fac5a3" offset="0" ></stop><stop id="SvgjsStop19794" stop-opacity="0.9727" stop-color="#ebaa82" offset="0.7584" ></stop><stop id="SvgjsStop19795" stop-opacity="0.9769" stop-color="#e39d72" offset="0.7953" ></stop><stop id="SvgjsStop19796" stop-opacity="0.9852" stop-color="#dc9164" offset="0.8691" ></stop><stop id="SvgjsStop19797" stop-opacity="0.9968" stop-color="#cc7b48" offset="0.972" ></stop><stop id="SvgjsStop19798" stop-opacity="1" stop-color="#bd6630" offset="1" ></stop></linearGradient><linearGradient id="SvgjsLinearGradient19832" x1="79.4739" y1="121.3709" x2="79.4739" y2="101.6175" gradientTransform="matrix(1 0 0 -1 0 202)" gradientUnits="userSpaceOnUse" class="svga-on-canvas-glasses-gradient-single-0-null"><stop id="SvgjsStop19833" stop-opacity="1" stop-color="#bfeaf2" offset="0" ></stop><stop id="SvgjsStop19834" stop-opacity="0.649" stop-color="#a1cae3" offset="0.351" ></stop><stop id="SvgjsStop19835" stop-opacity="0" stop-color="#6086c4" offset="1" ></stop></linearGradient><linearGradient id="SvgjsLinearGradient19837" x1="-1738.6592" y1="121.1959" x2="-1738.6592" y2="101.7599" gradientTransform="matrix(-1 0 0 -1 -1618 202)" gradientUnits="userSpaceOnUse" class="svga-on-canvas-glasses-gradient-single-1-null"><stop id="SvgjsStop19838" stop-opacity="1" stop-color="#bfeaf2" offset="0" ></stop><stop id="SvgjsStop19839" stop-opacity="0.649" stop-color="#a1cae3" offset="0.351" ></stop><stop id="SvgjsStop19840" stop-opacity="0" stop-color="#6086c4" offset="1" ></stop></linearGradient></defs><g id="svga-group-wrapper"><g id="svga-group-backs-single"><path id="SvgjsPath19926" d="M0 0h200v200H0V0z" fill="#5e8c6a" stroke-width="none" opacity="1"></path><path id="SvgjsPath19927" d="M0 0h18.2v200H0V0zm36.4 0h18.2v200H36.4V0zm36.3 0h18.2v200H72.7V0zm36.4 0h18.2v200h-18.2V0zm36.3 0h18.2v200h-18.2V0zm36.4 0H200v200h-18.2V0z" fill="#477d55" stroke-width="none" opacity="1"></path></g><g id="svga-group-humanwrap-move" transform="matrix(1,0,0,1,0,0)"><g id="svga-group-humanwrap" transform="matrix(1,0,0,1,0,0)"><g id="svga-group-hair-back-move" transform="matrix(1,0,0,1,0,0)"><g id="svga-group-hair-back" transform="matrix(1,0,0,1,0,0)"></g></g><g id="svga-group-humanbody-back"><path id="SvgjsPath19481" d="M180.8 184.9c-2.3-3.4-38.9-17.8-38.9-17.8l-13.4-5.2-5.6-68.8H76.8L71.3 162l-13.4 5.2S21.4 181.6 19 185c-2.3 3.4-3.3 14.9-3.3 14.9V219h168.5v-19.2c-.1.1-1-11.5-3.4-14.9z" fill="#ebaa82" stroke-width="none" opacity="1" stroke="none"></path></g><g id="svga-group-chinshadow-single"><path id="SvgjsPath19723" d="M94.1 161.5s19.06 0 33.81-7.36l-4.97-61.04H76.82l-5.19 65.28c11.66 3.12 22.47 3.12 22.47 3.12z" fill="#cc7b48" stroke-width="none" opacity="1"></path></g><g id="svga-group-humanbody-front"><path id="SvgjsPath19482" d="M184.5 219c-.1-6.4-.1-12.8-.1-19.2l-.3-.1s.1-.1.2 0c.1 0 .1.1.1.1v-.4l-.1-.5-.1-.9-.2-1.9c-.2-1.3-.4-2.5-.6-3.8-.2-1.3-.5-2.5-.9-3.8-.4-1.2-.8-2.5-1.5-3.6-.8-.9-1.9-1.5-2.9-2.1-1-.6-2.1-1.1-3.2-1.7-2.1-1.1-4.3-2.1-6.5-3.1-4.4-2-8.7-3.9-13.1-5.7-4.4-1.9-8.8-3.7-13.2-5.5l-13-5.2-1.2-16.9c-.4-5.7-.9-11.5-1.3-17.2l-1.3-17.2-1.5-17.3-.1-.8h-.8c-7.7 0-15.4.1-23.1.1l-23.1.2h-.5v.5L75 110.2l-1.3 17.2c-.8 11.4-1.8 22.8-2.8 34.2-5.6 2.1-11.2 4.2-16.7 6.4-5.6 2.2-11.2 4.5-16.8 6.9-2.8 1.2-5.6 2.4-8.3 3.6-2.8 1.3-5.5 2.5-8.2 4.1-.7.4-1.3.8-2 1.4-.2.1-.4.4-.5.6l-.3.6c-.2.4-.4.7-.5 1.1-.6 1.5-1 3-1.3 4.5-.6 3-1.1 6-1.4 9.1l-.1 19.1v.9h.9l42.1.1H100c14 0 28.1-.1 42.1-.2l42.1-.5h.3v-.3zm-84.5-1-42.1-.1-41.2.1-.1-18.1c.3-3 .6-5.9 1.2-8.9.3-1.4.6-2.9 1.1-4.2.1-.3.3-.7.4-.9l.2-.4.3-.3c.5-.4 1.1-.8 1.8-1.2 2.5-1.5 5.3-2.8 8-4.1 2.7-1.3 5.5-2.5 8.2-3.7 5.5-2.4 11.1-4.8 16.7-7.1s11.2-4.5 16.9-6.7l.2-.1v-.2c.9-11.5 1.7-23 2.7-34.4l1.4-17.2 1.5-16.7 22.6.2c7.4.1 14.8.1 22.3.1l1.3 16.4 1.5 17.2c.5 5.7 1 11.5 1.5 17.2l1.6 17.2v.3l.3.1 13.4 5c4.4 1.7 8.9 3.4 13.3 5.2 4.4 1.8 8.8 3.7 13.2 5.6 2.2 1 4.3 2 6.5 3 1.1.5 2.1 1.1 3.2 1.6 1 .6 2.1 1.2 2.9 2 .7 1.1 1.1 2.3 1.4 3.5.3 1.2.6 2.5.8 3.7.2 1.3.4 2.5.6 3.8l.2 1.9.1.9.1.5v.4c0 6.3 0 12.6-.1 18.9l-41.8-.5c-14 .1-28.1 0-42.1 0z" fill="#bd6630" stroke-width="none" opacity="1" stroke="none"></path><path id="SvgjsPath19483" d="M125.1 142.4s-1.8 23-9.1 32.9c0 0 7.9-25 9.1-32.9zm-34.5 16s5 7.9 11.5 10.1c0 0-9.5 2.2-11.5-10.1zM73.4 140c6.7 25.6 6.7 25.6 8.5 30.7 0 0 .4-12.6-8.5-30.7z" fill="#cc7b48" stroke-width="none" opacity="1" stroke="none"></path></g><g id="svga-group-clothes-single"><path id="SvgjsPath19616" d="M61.8 186.6s14.4 11.8 17.6 14.6c3.2 2.8 21.3 12 21.3 12s19.2-9.9 22.4-12.5c3.2-2.6 14.4-17.4 14.4-17.4V220H66.4l-4.6-33.4z" fill="#efefef" stroke-width="none" opacity="1"></path><path id="SvgjsPath19617" d="M67 148.7s-7.2 5.3-11 8.6-9.9 6.6-9.9 6.6l2.9 1.6s-5.5 3.2-10.9 4.8c-5.5 1.6-20.1 5.2-21.1 5.7s-2.3 2.9-2.3 2.9-4.4.9-4.9 11.1c-.6 10.2-1.3 30-1.3 30h64.1s-5.8-35.1-6.3-39.2c0-.4 1.2-16.6 1.2-18 0-1 4.4-11.7 4.3-15.4-.1-1.5-4.8 1.3-4.8 1.3zm66 0s7.2 5.3 11 8.6 9.9 6.6 9.9 6.6l-2.9 1.6s5.5 3.2 10.9 4.8c5.5 1.6 20.1 5.2 21.1 5.7s2.3 2.9 2.3 2.9 4.4.9 4.9 11.1 1.3 29.9 1.3 29.9h-64.1s5.8-35.1 6.3-39.2c0-.4-1.1-16.6-1.1-18 0-1-3.5-12.8-3.7-15.9-.1-1.2 4.1 1.9 4.1 1.9z" fill="#6a3a47" stroke-width="none" opacity="1"></path><path id="SvgjsPath19618" d="M138.2 164.1s4.9 11.3 6.3 13.8c1.4 2.6 12.2 10.8 12.2 10.8s-15.5 12.9-15.7 14.5c-.2 1.6-3.1 11.7-3.1 11.7l4.2-9.9s6.6-5.6 8.2-6.6 14.1-9.9 14.1-9.9-16.2-11-17.8-12.7c-1.6-1.4-8.4-11.7-8.4-11.7zm26.3 9.6c-3.5-.9-10.1-4.2-12.7-5.6 0 0 8 5.4 10.6 6.8 2.6 1.4 15.5 3.8 15.5 4.5 0 .7-4 5.2-4.9 7.5-.9 2.4-.9 9.1-.9 9.1s1.9-5.9 3.1-8.9 7.7-7.3 7.7-7.3 0-1.6-.9-2.6-14-2.6-17.5-3.5zm24.1 12.9c-.2-2.6-2.1-4.5-3.8-5.2 0 0 .9 1.6 1.2 2.6s.7 11.5.7 15.9 3.1 16.9 3.1 16.9-.9-27.6-1.2-30.2zM65.5 161.7c-.5 5.4-2.6 17.6-3.5 21.4-.9 3.8-.2 18.1-.2 18.1s.7-12.7 1.9-15.5c1.2-2.8 2.6-10.3 2.4-12.4-.4-2.2-.6-11.6-.6-11.6zm-43.1 14.5c-1.6.4-4.3 1.2-5.1 2.2 0 0 0 1.4 7.5-.8 5.3-1.5 14.7-5.8 19.7-8.2-6.9 2.7-20.8 6.5-22.1 6.8zm22.1-6.8c1.6-.6 2.9-1.2 3.5-1.6-.1 0-1.4.6-3.5 1.6zm-2.1 22.9c-2.2-1-5.7-2.4-5.7-2.4 4.1 1.8 21.2 14.6 21.2 14.6l6.3 13.8s-4.5-14.6-5.5-15.5c-.9-1-14.1-9.5-16.3-10.5z" fill="#794f5a" stroke-width="none" opacity="1"></path><path id="SvgjsPath19619" d="M190.8 190.1c-.5-9.2-4.1-11.1-5.1-11.4-.4-.6-1.4-2.5-2.4-2.9-.5-.3-3.8-1.1-9.1-2.5-4.4-1.1-9.3-2.4-12-3.2-4.1-1.3-8.4-3.4-10.1-4.4l2.9-1.7-.8-.4c-.1 0-6.1-3.3-9.8-6.5-3.8-3.3-10.9-8.6-11-8.6l-.8-.6-4.8-2.4 1.1 16.4 3.1 1.2c0 1.1.4 6.1.7 10.5.2 3.5.5 7 .5 7.3-.1 1.2-.7 4.9-1.4 9.7-.6.8-1.2 1.5-1.8 2.2-1.3 1.6-2.6 3.1-3.9 4.6-.7.8-1.3 1.5-2 2.2-.3.4-.7.7-1.1 1-.4.3-.8.6-1.2.8-3.4 2.1-7 4-10.5 5.9-3.5 1.9-7 3.7-10.5 5.5-3.4-1.7-6.9-3.5-10.3-5.3-1.7-.9-3.5-1.9-5.2-2.9-1.7-1-3.4-1.9-5-3.1L68.5 192c-.9-5.4-1.6-9.9-1.7-11.1 0-.3.2-3.9.5-7.3.3-4.4.6-8.9.7-10.2l3.1-1.4 1.3-15.9-5 1.7-.8.6c-.1.1-7.2 5.4-11 8.6-3.7 3.2-9.8 6.5-9.8 6.5l-.8.4 2.9 1.7c-1.7.9-5.9 3.1-10 4.4-2.7.8-7.6 2.1-12 3.2-5.3 1.4-8.6 2.2-9.1 2.5-1 .5-2.1 2.3-2.4 2.9-1 .4-4.6 2.2-5.1 11.4-.6 10.1-1.3 29.8-1.3 30v.5h184.1v-.5c-.1-.2-.8-19.9-1.3-29.9zM30.4 219.5c-.1-3.5-.3-6.9-.9-10.4-.7-3.7-1.4-7.4-2.3-11-.5-1.8-.9-3.6-1.5-5.4-.6-1.8-1.2-3.6-2.2-5.2-1.1-1.6-2.3-3-3.6-4.4-.6-.7-1.3-1.4-2-2-.7-.6-1.3-1.4-2.2-1.8.4.2.7.6 1 .9.3.3.6.7.9 1l1.8 2.1c1.2 1.4 2.4 2.9 3.3 4.5.9 1.6 1.5 3.4 2 5.1.5 1.8 1 3.6 1.4 5.4.9 3.6 1.6 7.3 2.5 10.9.4 1.8.7 3.7.9 5.5.4 1.6.6 3.2.9 4.8H9c.1-3.2.8-20.3 1.2-29.4.5-9.6 4.5-10.6 4.6-10.6l.2-.1.1-.2c.5-.9 1.4-2.4 2.1-2.7.5-.2 4.8-1.4 8.9-2.4 4.4-1.1 9.4-2.4 12.1-3.2 4.9-1.5 9.8-4.2 10.8-4.8.6.4 1.2.7 1.8 1.1l2.5 1.5c.4.2.8.5 1.2.8l.6.3c-2.1 2.2-4.3 4.2-6.7 6l-8.4 6.1c-2.8 2.1-5.6 4.1-8.4 6.2l-1.1.8 1.2.8 6.1 4.1 6.1 4.1 6.2 4.1c1 .7 2.1 1.4 3 2l2.8 2.2c1.2 2.3 2.3 4.6 3.5 6.9l3.3 6.3H30.4zm32.4 0c-.9-2.2-1.8-4.4-2.7-6.7-1-2.4-2-4.9-3.1-7.3v-.1l-.1-.1c-.9-.8-1.8-1.7-2.8-2.5-1-.8-2-1.5-3-2.2-2-1.4-4-2.8-6-4.3s-4-2.8-6.1-4.2c-1.7-1.1-3.3-2.3-5-3.4 2.4-1.8 4.8-3.6 7.2-5.5 2.7-2.1 5.5-4.2 8.2-6.4 2.8-2.2 5.2-4.8 7.4-7.5s4.3-5.5 6-8.5c-2.1 2.7-4.4 5.4-6.8 7.9-.2.3-.5.5-.7.8-.2-.1-.4-.3-.6-.4-.4-.3-.7-.7-1.1-1-.8-.6-1.6-1.2-2.4-1.7-.8-.5-1.6-1.1-2.5-1.6l-1.2-.6-.6-.4c1.8-1 6.2-3.6 9.2-6.2 3-2.6 10.2-8 10.2-8l4.1-2.1s-3.7 14.6-3.7 15.3c0 .8-.4 5.9-.7 10.5-.4 5.7-.5 7.3-.5 7.5 0 .1 0 .3.1.4-.2.6-.4 1.2-.5 1.9l-.9 3.9c-.3 1.3-.5 2.6-.8 3.9-.2 1.3-.5 2.6-.7 3.9-.1 2.3-.2 4.5-.1 6.8.4-2.2.7-4.5 1-6.7.3-1.3.5-2.6.8-3.9.2-1.3.5-2.6.7-3.9l.6-3.9c0-.2.1-.5.1-.7 1.1 7.5 5.2 32.6 6 36.9l-9 .1zm57 0H84.2c-3.7 0-7.4 0-11.2.1-.4-2.4-2.8-16.6-4.4-27.2.8.7 1.6 1.4 2.4 2 3 2.6 5.9 5.1 8.9 7.6 1.6 1.2 3.3 2.2 5 3.2 1.7 1 3.4 1.9 5.2 2.9 3.5 1.9 7 3.7 10.5 5.5l.2.1.2-.1c3.6-1.9 7.1-3.7 10.7-5.7 3.5-1.9 7.1-3.9 10.4-6.1l1.2-.9c.4-.4.8-.7 1.1-1.1.7-.7 1.4-1.5 2-2.3 1.3-1.5 2.6-3.1 3.8-4.7.5-.6.9-1.1 1.4-1.7-1.7 10.7-4.2 25.9-4.7 28.4h-7.1zm8.2 0c.7-4.3 4.9-29.4 6-36.9 0 .2.1.5.1.7l.6 3.9c.2 1.3.5 2.6.7 3.9.3 1.3.5 2.6.8 3.9.2 2.2.6 4.5 1 6.7.1-2.3 0-4.6-.1-6.8-.2-1.3-.4-2.6-.7-3.9-.2-1.3-.5-2.6-.8-3.9l-.9-3.9c-.1-.6-.3-1.2-.5-1.9 0-.2 0-.3.1-.4 0-.2-.1-1.8-.5-7.5-.3-4.6-.7-9.8-.7-10.6 0-.9-3.7-15.8-3.7-15.8l4.2 2.6s7.2 5.4 10.2 8c3 2.6 7.4 5.2 9.2 6.2l-.6.4-1.2.6c-.9.5-1.7 1-2.5 1.6-.8.6-1.6 1.1-2.4 1.7-.4.3-.7.7-1.1 1-.2.2-.4.3-.6.4-.2-.2-.5-.5-.7-.8-2.4-2.5-4.6-5.2-6.8-7.9 1.8 3 3.9 5.8 6.1 8.5 2.2 2.7 4.6 5.3 7.4 7.5 2.7 2.2 5.5 4.3 8.2 6.4 2.4 1.9 4.8 3.7 7.2 5.5-1.7 1.1-3.3 2.2-5 3.4-2 1.4-4.1 2.8-6.1 4.2-2 1.4-4 2.8-6 4.3-1 .7-2 1.4-3 2.2-.9.8-1.9 1.6-2.8 2.5l-.1.1-.1.1c-1 2.4-2.1 4.9-3.1 7.3l-2.7 6.6-9.1.1zm41.7 0c.2-1.6.4-3.1.6-4.7.3-1.9.5-3.7.9-5.5.9-3.6 1.6-7.3 2.5-10.9.4-1.8.9-3.6 1.4-5.4s1.1-3.6 2-5.1c.9-1.5 2.1-3 3.3-4.5l1.8-2.1c.3-.4.6-.7.9-1 .3-.3.6-.7 1-.9-.8.4-1.5 1.2-2.2 1.8l-2 2c-1.3 1.4-2.5 2.8-3.6 4.4-1.1 1.6-1.6 3.4-2.2 5.2-.6 1.8-1.1 3.6-1.5 5.4-.9 3.7-1.6 7.3-2.3 11-.4 3.4-.6 6.8-.6 10.3h-32.4l3.3-6.3c1.2-2.3 2.4-4.6 3.5-6.9l2.8-2.2c1-.7 2-1.4 3-2l6.1-4.1 6.1-4.1 6.1-4.1 1.2-.8-1.1-.8c-2.8-2.1-5.6-4.2-8.4-6.2l-8.4-6.1c-2.4-1.8-4.6-3.8-6.7-6l.6-.3c.4-.2.8-.5 1.2-.8l2.5-1.5c.6-.3 1.2-.7 1.8-1.1 1 .6 5.9 3.3 10.8 4.8 2.7.8 7.7 2.1 12.1 3.2 4.2 1.1 8.5 2.2 8.9 2.4.6.3 1.6 1.8 2.1 2.7l.1.2.2.1s4.1 1 4.6 10.6c.5 9.1 1.1 26.2 1.2 29.4h-21.2zm22.4 1z" fill="#3c0f1b" stroke-width="none" opacity="1"></path></g><g id="svga-group-head" transform="matrix(1,0,0,1,0,0)"><g id="svga-group-ears-left-move" transform="matrix(1,0,0,1,0,0)"><g id="svga-group-ears-left" transform="matrix(1,0,0,1,0,0)"><path id="SvgjsPath19635" d="M64.76 80.15s-6.05-5.71-11.65-8.37c0 0-2.9.43-6.25 3.44 0 0 2.32 4.96 4.4 7.42 2.07 2.46 5.01 10.72 5.25 13.08.24 2.36-.73 6.67-.59 8.06.14 1.39 3.24 1.5 3.24 1.5s5.71-3.24 9.27-8.23c0-.01-1.08-9.31-3.67-16.9z" fill="#ebaa82" stroke-width="none" opacity="1" stroke="none"></path><path id="SvgjsPath19636" d="M65.07 87.27c.04-.28-8.52-10.28-14.7-11.44 0 0 1.73 5.62 2.89 7.46s4.94 11 4.61 15.67c0 0 3.96-2.27 6.18-4.1 0 0 .54-4.33 1.02-7.59z" fill="#dc9164" stroke-width="none" opacity="1" stroke="none"></path><path id="SvgjsPath19637" d="m46.65 74.98-.18.16.11.21c.65 1.31 1.35 2.58 2.1 3.83s1.55 2.47 2.5 3.58c.88 1.11 1.53 2.42 2.14 3.72.59 1.32 1.11 2.67 1.59 4.03.46 1.37.89 2.75 1.2 4.15.35 1.38.16 2.81 0 4.24-.16 1.43-.44 2.84-.54 4.34-.01.19-.01.38.01.59.04.25.13.49.28.67.3.37.68.56 1.04.71.74.28 1.48.39 2.24.44l.1.01.1-.06c1.83-1.07 3.53-2.3 5.11-3.7.8-.69 1.55-1.43 2.27-2.2.73-.77 1.38-1.6 2.01-2.45l.09-.12-.02-.15c-.4-2.88-.92-5.72-1.56-8.54-.32-1.41-.69-2.81-1.08-4.2-.41-1.39-.87-2.76-1.37-4.12-.86-.87-1.74-1.67-2.64-2.46-.9-.8-1.84-1.55-2.79-2.29-1.91-1.47-3.93-2.81-6.11-3.89l-.09-.04-.1.02c-.65.12-1.22.31-1.8.54-.57.23-1.13.5-1.66.81-.53.31-1.05.64-1.54 1.01-.49.36-.96.75-1.41 1.16zm.6.32c.39-.33.79-.66 1.2-.95.48-.35.98-.66 1.48-.95.52-.28 1.04-.55 1.58-.77.51-.21 1.04-.39 1.55-.5 1.03.5 2.04 1.06 3.02 1.66 1 .64 2.01 1.28 2.98 1.98.98.69 1.92 1.42 2.87 2.15.94.73 1.88 1.5 2.78 2.26a65.5 65.5 0 0 1 1.1 4.17c.33 1.4.64 2.81.9 4.22.52 2.77.98 5.57 1.3 8.37-.59.78-1.2 1.54-1.87 2.24-.71.74-1.44 1.46-2.23 2.13-1.53 1.31-3.16 2.54-4.87 3.58-.64-.04-1.32-.14-1.9-.35-.3-.12-.59-.27-.75-.47-.08-.1-.12-.2-.14-.31-.01-.15-.02-.32-.01-.49.06-1.4.29-2.85.43-4.29.12-1.43.25-2.96-.17-4.4-.37-1.42-.84-2.79-1.35-4.15a54.07 54.07 0 0 0-1.65-4.03c-.6-1.32-1.22-2.64-2.12-3.82-.9-1.12-1.63-2.37-2.32-3.63-.64-1.2-1.24-2.42-1.81-3.65z" fill="#dc9164" stroke-width="none" opacity="1" stroke="none"></path><path id="SvgjsPath19638" d="M55.9 80.14c.92.98 1.71 2.06 2.44 3.17.74 1.11 1.44 2.24 2.05 3.42.63 1.17 1.22 2.36 1.71 3.59l-.07.03c-.67-1.14-1.37-2.27-2.06-3.38-.72-1.11-1.41-2.23-2.18-3.29-.77-1.07-1.53-2.13-2.37-3.14-.69-.85-1.43-1.67-2.27-2.37l1.72 3.94c.67 1.51 1.31 3.03 1.88 4.58a38.98 38.98 0 0 1 1.44 4.76c.26 1.14.48 2.31.53 3.5.14-.27.27-.55.38-.83.28-.73.44-1.5.5-2.28-.46-1.67-.91-3.34-1.32-5.02l.07-.02c.64 1.63 1.22 3.29 1.81 4.94l.01.04v.06c-.02.86-.15 1.71-.42 2.53-.13.41-.29.81-.47 1.19-.19.39-.4.75-.66 1.13l-.8 1.12.09-1.39c.1-1.57-.17-3.19-.49-4.78-.33-1.59-.77-3.17-1.25-4.73-.48-1.56-.99-3.13-1.57-4.67-.6-1.53-1.23-3.05-1.99-4.51l-.26-.5.49.31c1.16.7 2.14 1.63 3.06 2.6z" fill="#bd6630" stroke-width="none" opacity="1" stroke="none"></path></g></g><g id="svga-group-ears-right-move" transform="matrix(1,0,0,1,0,0)"><g id="svga-group-ears-right" transform="matrix(1,0,0,1,0,0)"><path id="SvgjsPath19639" d="M135.24 80.15s6.05-5.71 11.65-8.37c0 0 2.9.43 6.25 3.44 0 0-2.32 4.96-4.4 7.42s-5.01 10.72-5.25 13.08c-.24 2.36.73 6.67.59 8.06-.14 1.39-3.24 1.5-3.24 1.5s-5.71-3.24-9.27-8.23c0-.01 1.08-9.31 3.67-16.9z" fill="#ebaa82" stroke-width="none" opacity="1" stroke="none"></path><path id="SvgjsPath19640" d="M134.93 87.27c-.04-.28 8.52-10.28 14.7-11.44 0 0-1.73 5.62-2.89 7.46s-4.94 11-4.61 15.67c0 0-3.96-2.27-6.18-4.1 0 0-.54-4.33-1.02-7.59z" fill="#dc9164" stroke-width="none" opacity="1" stroke="none"></path><path id="SvgjsPath19641" d="M151.93 73.82c-.49-.37-1.01-.7-1.54-1.01-.53-.31-1.09-.58-1.66-.81-.58-.23-1.15-.42-1.8-.54l-.1-.02-.09.04c-2.18 1.08-4.2 2.42-6.11 3.89-.95.74-1.89 1.49-2.79 2.29-.9.8-1.79 1.59-2.64 2.46-.5 1.36-.96 2.74-1.37 4.12-.39 1.39-.76 2.79-1.08 4.2-.65 2.82-1.16 5.67-1.56 8.54l-.02.15.09.12c.63.85 1.29 1.68 2.01 2.45.72.77 1.48 1.51 2.27 2.2 1.58 1.39 3.28 2.62 5.11 3.7l.1.06.1-.01c.77-.05 1.5-.16 2.24-.44.36-.15.74-.34 1.04-.71.15-.18.25-.42.28-.67.02-.21.02-.41.01-.59-.1-1.5-.37-2.9-.54-4.34-.16-1.43-.35-2.86 0-4.24.31-1.4.74-2.78 1.2-4.15.48-1.36 1-2.71 1.59-4.03.61-1.3 1.26-2.61 2.14-3.72.94-1.12 1.75-2.34 2.5-3.58.75-1.25 1.45-2.52 2.1-3.83l.11-.21-.18-.16c-.44-.41-.91-.8-1.41-1.16zm-1.01 5.12c-.7 1.26-1.42 2.51-2.32 3.63-.9 1.18-1.52 2.5-2.12 3.82a54.07 54.07 0 0 0-1.65 4.03c-.51 1.36-.98 2.73-1.35 4.15-.42 1.44-.28 2.96-.17 4.4.13 1.44.37 2.9.43 4.29.01.17 0 .34-.01.49-.02.11-.06.21-.14.31-.16.2-.44.36-.75.47-.58.21-1.26.31-1.9.35-1.71-1.04-3.34-2.27-4.87-3.58-.78-.67-1.52-1.38-2.23-2.13-.68-.71-1.29-1.47-1.87-2.24.32-2.8.77-5.59 1.3-8.37.26-1.42.57-2.82.9-4.22.32-1.41.7-2.79 1.1-4.17.9-.76 1.84-1.53 2.78-2.26.95-.73 1.9-1.46 2.87-2.15.97-.69 1.98-1.34 2.98-1.98.98-.6 1.99-1.16 3.02-1.66.51.11 1.05.29 1.55.5.54.23 1.06.49 1.58.77.51.29 1.01.6 1.48.95.42.3.81.62 1.2.95-.55 1.24-1.15 2.46-1.81 3.65z" fill="#dc9164" stroke-width="none" opacity="1" stroke="none"></path><path id="SvgjsPath19642" d="M144.1 80.14c-.92.98-1.71 2.06-2.44 3.17-.74 1.11-1.44 2.24-2.05 3.42-.63 1.17-1.22 2.36-1.71 3.59l.07.03c.67-1.14 1.37-2.27 2.06-3.38.72-1.11 1.41-2.23 2.18-3.29.77-1.07 1.53-2.13 2.37-3.14.69-.85 1.43-1.67 2.27-2.37l-1.72 3.94c-.67 1.51-1.31 3.03-1.88 4.58a38.98 38.98 0 0 0-1.44 4.76c-.26 1.14-.48 2.31-.53 3.5a8.84 8.84 0 0 1-.38-.83c-.28-.73-.44-1.5-.5-2.28.46-1.67.91-3.34 1.32-5.02l-.07-.02c-.64 1.63-1.22 3.29-1.81 4.94l-.01.04v.06c.02.86.15 1.71.42 2.53.13.41.29.81.47 1.19.19.39.4.75.66 1.13l.8 1.12-.09-1.39c-.1-1.57.17-3.19.49-4.78.33-1.59.77-3.17 1.25-4.73.48-1.56.99-3.13 1.57-4.67.6-1.53 1.23-3.05 1.99-4.51l.26-.5-.49.31c-1.16.7-2.14 1.63-3.06 2.6z" fill="#bd6630" stroke-width="none" opacity="1" stroke="none"></path></g></g><g id="svga-group-faceshape-wrap" transform="matrix(1,0,0,1,0,0)"><g id="svga-group-faceshape-single"><path id="SvgjsPath19713" d="M138.8 92.87c.5-12.9 1.36-24.05 1.36-24.05s.93-9.64.03-13.74c-2.2-10-6.07-15.94-14.97-20.74-9.3-5-25.19-4.9-25.19-4.9s-15.84-.22-25.14 4.78C66.08 39.03 61.8 44.9 59.6 54.9c-.9 4 0 13.6 0 13.6s.9 11.6 1.4 24.4c.38 9.74 2.53 31.14 2.59 41.04.02 3.48 2.87 6.71 5.9 8.42 14.58 8.22 30.52 8.31 30.52 8.31s15.97.01 30.56-8.21c3.06-1.72 5.93-4.99 5.95-8.5.03-9.99 1.9-31.39 2.28-41.09z" fill="#ebaa82" stroke-width="none" opacity="1"></path><path id="SvgjsPath19714" d="M59.6 54.9c-.9 4 0 13.6 0 13.6s.9 11.6 1.4 24.4c.38 9.74 2.53 31.14 2.59 41.04.02 3.48 2.87 6.71 5.9 8.42 14.58 8.22 30.52 8.31 30.52 8.31s15.97.01 30.56-8.21c3.06-1.72 5.93-4.99 5.95-8.5.04-9.99 1.91-31.38 2.29-41.09.5-12.9 1.36-24.05 1.36-24.05s.93-9.64.03-13.74c-2.2-10-6.07-15.94-14.97-20.74-9.3-5-25.19-4.9-25.19-4.9s-15.84-.22-25.14 4.78C66.08 39.03 61.8 44.9 59.6 54.9zm22.18-22.56c3.47-.88 7.04-1.37 10.62-1.65 3.59-.28 7.18-.36 10.75-.12 3.58.21 7.15.63 10.66 1.28 3.5.67 6.97 1.58 10.1 3.08 1.57.74 3.11 1.67 4.54 2.66 1.44 1 2.81 2.09 4.01 3.36 2.4 2.52 4.22 5.57 5.46 8.91.62 1.67 1.14 3.38 1.57 5.12.42 1.67.5 3.48.55 5.27.04 1.8 0 3.61-.07 5.41-.08 1.8-.21 3.61-.26 5.43-.26 7.27-.63 14.52-1.03 21.77-.35 7.25-.96 14.49-1.58 21.72-.31 3.62-.62 7.24-.88 10.87-.13 1.81-.25 3.63-.35 5.45l-.12 2.74c-.02.88-.15 1.62-.46 2.4-.59 1.53-1.68 2.88-2.96 3.97-.64.55-3.65 2.25-4.44 2.65-3.21 1.54-6.56 2.8-9.98 3.8-3.43.99-6.93 1.74-10.46 2.25-1.77.24-3.54.43-5.31.54-.87.05-4.35-.03-5.24-.12-7.09-.66-14.13-2.31-20.7-4.99-.84-.31-1.63-.71-2.44-1.07-.82-.35-1.6-.77-2.39-1.18 0 0-1.89-1.03-2.24-1.26-.68-.47-1.32-1-1.89-1.59-1.14-1.18-2.03-2.59-2.34-4.07-.07-.38-.15-2.5-.15-2.5-.02-.92-.07-1.83-.1-2.75-.35-7.29-1.03-14.53-1.65-21.76l-.92-10.84-.77-10.86-1.54-21.73c-.1-1.8-.16-3.61-.14-5.41.02-1.82.14-3.56.63-5.31.82-3.51 2.14-6.9 4.09-9.89 1.97-2.99 4.67-5.43 7.66-7.38 1.51-.95 3.08-1.85 4.7-2.55a39 39 0 0 1 5.07-1.65z" fill="#bd6630" stroke-width="none" opacity="1"></path></g></g><g id="svga-group-mouth-single-move" transform="matrix(1,0,0,1,0,0)"><g id="svga-group-mouth-single" transform="matrix(1,0,0,1,0,0)"><path id="SvgjsPath19821" d="M90.58 121.95c-1.54.45-2.15 1.4-2.77 2.48-.62 1.08-1.43.91-2.08.75-.65-.16-.98.59.13 1.4 1.11.81 2.05.78 2.96-.33.91-1.11.78-2.41 2.7-3.13 1.92-.72 9.41-1.3 13.88.13 4.46 1.43 4.59 4.2 8.8 4.01s5.47-4.27 5.28-5.08c-.2-.81-.78-.49-1.82 1.14s-1.86 2.77-4.33 2.44c-2.48-.33-3.26-3.65-8.54-4.3s-10.08-.71-14.21.49z" fill="#f18f77" stroke-width="none" opacity="1"></path><path id="SvgjsPath19822" d="M116.93 120.59c-.8.07-.49 1.3.72 1.53 1.21.23 2.02 1.53 2.48 2.22.46.68 1.04.2 1.01-.81s-.69-3.24-4.21-2.94z" fill="#e39d72" stroke-width="none" opacity="1"></path></g></g><g id="svga-group-eyes-left-move" transform="matrix(1,0,0,1,0,0)"><g id="svga-group-eyes-left" transform="matrix(1,0,0,1,0,0)"><g id="svga-group-eyesback-left"><path id="SvgjsPath19671" d="M80.2 74.2c7.5 0 13.5 5.8 13.5 13s-6 13-13.5 13-13.5-5.8-13.5-13 6-13 13.5-13z" fill="#ffffff" stroke-width="none" opacity="1"></path></g><g id="svga-group-eyesiriswrapper-left" transform="matrix(1,0,0,1,0,0)"><g id="svga-group-eyesiriscontrol-left" transform="matrix(1,0,0,1,0,0)"><g id="svga-group-eyesiris-left" transform="matrix(1,0,0,1,0,0)"><path id="SvgjsPath19727" d="M80.2 81.9c2.9 0 5.3 2.4 5.3 5.3s-2.4 5.3-5.3 5.3-5.3-2.4-5.3-5.3 2.4-5.3 5.3-5.3z" fill="#fdd70e" stroke-width="none" opacity="1"></path><path id="SvgjsPath19728" d="M77.4 88.7c0 1.3.5 2.5 1.3 3.3.5.1 1 .2 1.5.2 2.8 0 5.1-2.3 5.1-5.1 0-1-.3-2-.8-2.8-.7-.3-1.4-.5-2.2-.5-2.8.1-4.9 2.3-4.9 4.9z" fill="#ffdd28" stroke-width="none" opacity="1"></path><path id="SvgjsPath19729" d="M80.2 84.5c1.5 0 2.7 1.2 2.7 2.7s-1.2 2.7-2.7 2.7-2.7-1.2-2.7-2.7 1.2-2.7 2.7-2.7z" fill="#000000" stroke-width="none" opacity="1"></path><path id="SvgjsPath19730" d="M79 84.5c.5 0 .9.4.9.9s-.4.9-.9.9-1-.4-1-.9.5-.9 1-.9zm3.1 4.3c.2 0 .4.2.4.4s-.2.4-.4.4-.4-.2-.4-.4.2-.4.4-.4z" fill="#ffffff" stroke-width="none" opacity="1"></path><path id="SvgjsPath19731" d="M80.2 81.6c-3.1 0-5.6 2.5-5.6 5.6s2.5 5.6 5.6 5.6 5.6-2.5 5.6-5.6-2.5-5.6-5.6-5.6zm0 .6c.2 0 .4 0 .7.1h.5-.2c.1 0 .2 0 .2.1.1 0 .1 0 .2.1.2.1.3.2.5.3.1-.1.2-.1.3-.1.1 0 .1.1.2.1.1.1.1.1.1.2.3-.1.6.2.5.5.3-.2.8.3.6.6.2-.1.4 0 .4.2s.1.4-.1.5c.2 0 .5.1.6.3.1.2.1.5-.1.7.2 0 .4.2.5.4s0 .5-.2.6c.2.1.3.3.3.5s-.1.4-.3.5c.2.1.3.3.3.5s-.2.4-.4.4c.3.2.1.8-.2.8.1.1.1.2.1.3-.1.1-.1.3-.2.4s-.2.1-.4.1c.1.4-.3.8-.8.7 0 .2 0 .3-.1.4s-.1.1-.2.1c-.2.1-.3 0-.5-.1 0 .2-.1.4-.3.5-.2.1-.4 0-.6-.2 0 .2-.1.3-.2.4-.2 0-.3.1-.5.1-.1-.1-.3-.2-.3-.3 0 .2-.2.4-.4.4s-.4-.2-.5-.4c-.1.2-.3.3-.6.2H79c-.2-.1-.3-.3-.3-.5-.2.2-.4.2-.6.1s-.3-.3-.3-.5c-.2.1-.5.1-.6 0h-.1c-.2-.2-.2-.4-.1-.7-.2.2-.4.1-.6 0l-.1-.1c-.1-.2-.1-.4 0-.6-.2 0-.4-.1-.6-.2-.4-.7-.7-1.6-.7-2.4.1-2.8 2.4-5 5.2-5zm2 .4s-.1 0 0 0z" fill="#debb00" stroke-width="none" opacity="1"></path><path id="SvgjsPath19732" d="M76.5 89.7c.2 0 .3-.1.4-.2.2-.1.3-.2.4-.3v-.1c-.2.1-.3.1-.4.2-.1.2-.3.2-.4.4 0-.1 0 0 0 0zm-1.2-1.5c.1 0 .3 0 .4-.1.2 0 .3-.1.5-.1v-.1c-.2 0-.3 0-.5.1s-.3 0-.4.2c0-.1 0 0 0 0zm.5-2.5c.4.1.8.3 1.2.4 0 0 .1 0 0-.1-.4-.1-.8-.3-1.2-.3 0-.1 0 0 0 0zm.2-.7c.2.2.4.3.7.4 0 0 .1 0 0-.1-.2-.2-.5-.3-.7-.3-.1-.1-.1-.1 0 0zm3.7 6.5c.1-.3.2-.7.2-1 0 0-.1-.1-.1 0-.1.3-.1.7-.1 1zm3.5-4c.3.1.7.1 1.1.1v-.1h-1.1zm.2-.7c.3 0 .7.1 1 0v-.1c-.3 0-.6 0-1 .1zm.2-2.7c-.3.2-.6.5-.9.8 0 0 0 .1 0 0 .3-.2.6-.5.9-.8.1 0 0 0 0 0zm-2.8-1.3c-.1.3-.2.5-.2.8 0 .1.1.1.1 0 .1-.2.1-.5.1-.8zm-2.9.3c.1.2.2.5.3.7h.1c-.1-.2-.3-.4-.4-.7z" fill="#debb00" stroke-width="none" opacity="1"></path></g></g></g><g id="svga-group-eyesfront-left"><path id="SvgjsPath19679" d="M80.2 73.7c-7.8 0-14.1 6.1-14.1 13.6s6.3 13.6 14.1 13.6 14.1-6.1 14.1-13.6S88 73.7 80.2 73.7zM67.7 86.5c-.1.2-.2.4-.3.5 0-.1.2-.3.3-.5zm7 5.4c-1.7-.1-7.3-3.6-7.3-4.7.4-.4 1.9-2 3-2.9 1.2-1.1 3-2 3.9-2.2 3.4-.7 8.7 2.2 9.8 3.1.8.8 4.6 3.4 7.1 5-3.9.5-15.1 1.8-16.5 1.7z" fill="#ebaa82" stroke-width="none" opacity="1" stroke="none"></path><path id="SvgjsPath19680" d="M91.9 88.8c-.4-1-.9-2-1.4-3-.7-1-1.4-2-2.2-3-.8-.9-1.7-1.9-2.6-2.7-.5-.4-1-.8-1.6-1.1-.6-.3-1.2-.5-1.8-.7-1.3-.2-2.6-.2-3.8-.1-2.5.3-5 1.3-6.8 3.1-.4.4-.8.9-1.2 1.4-.4.5-.8 1-1.1 1.4-.4.5-.7 1-1.1 1.5-.2.2-.3.5-.5.8-.2.3-.3.5-.4.8l-.5.8.4-.4s0 .1.1.1c.2.3.4.5.6.7.9.8 1.9 1.5 3 2.1.5.3 1.1.6 1.6.9.6.3 1.1.5 1.7.7.2 0 .3.1.5.1h.5c.3 0 .6 0 .9-.1.6-.1 1.2-.1 1.8-.2 2.4-.2 4.8-.5 7.2-.8 1.9-.3 3.9-.5 5.8-.8l.6.4.8.5.4.2.2.1.1.1s.1.1.2.1c-.5-1-1-1.9-1.4-2.9zm-14 2.7c-.6.1-1.2.1-1.8.2-.6 0-1.2.1-1.7 0-.6-.1-1.1-.4-1.6-.6-.5-.3-1.1-.5-1.6-.8-1-.6-2.1-1.2-2.9-2l-.6-.6c-.1-.1-.1-.1-.1-.2 1.7-1.8 3.4-3.6 5.7-4.6l.9-.3c.3-.1.6-.1.9-.1.6 0 1.2.1 1.8.2 1.2.2 2.4.6 3.6 1.1 1.2.5 2.3 1 3.3 1.7 1 .8 2.1 1.5 3.1 2.2 1.1.7 2.1 1.4 3.2 2.1l.9.6c-4.5.2-8.8.7-13.1 1.1zm15.1-.1-.2-.1-.4-.3-.8-.6-1.6-1.1-3-2.1c-1-.8-2.1-1.5-3-2.3-.5-.4-1.1-.8-1.6-1.1s-1.1-.6-1.7-.9c-1.2-.5-2.4-.9-3.7-1.1-.7-.1-1.3-.1-2 0-.3.1-.7.1-1 .2-.3.1-.6.2-.9.4-1.2.6-2.2 1.4-3.1 2.2-.5.4-.9.9-1.4 1.3l-.5.5c.1-.2.2-.4.4-.5.4-.5.8-1 1.2-1.4.4-.5.8-.9 1.2-1.4.4-.4.8-.9 1.2-1.3 1.7-1.6 4.1-2.5 6.4-2.7 1.2-.1 2.4-.1 3.5.1 1.1.3 2.1.8 3 1.6 1.8 1.5 3.4 3.4 5 5.2.5.9 1 1.8 1.6 2.7s1.1 1.8 1.6 2.8c-.1 0-.1 0-.2-.1z" fill="#210d34" stroke-width="none" opacity="1" stroke="none"></path></g></g></g><g id="svga-group-eyes-right-move" transform="matrix(1,0,0,1,0,0)"><g id="svga-group-eyes-right" transform="matrix(1,0,0,1,0,0)"><g id="svga-group-eyesback-right"><path id="SvgjsPath19672" d="M119.8 74.2c7.5 0 13.5 5.8 13.5 13s-6 13-13.5 13-13.5-5.8-13.5-13 6-13 13.5-13z" fill="#ffffff" stroke-width="none" opacity="1"></path></g><g id="svga-group-eyesiriswrapper-right" transform="matrix(1,0,0,1,0,0)"><g id="svga-group-eyesiriscontrol-right" transform="matrix(1,0,0,1,0,0)"><g id="svga-group-eyesiris-right" transform="matrix(1,0,0,1,0,0)"><path id="SvgjsPath19733" d="M119.8 82.5c2.6 0 4.7 2.1 4.7 4.7s-2.1 4.7-4.7 4.7-4.7-2.1-4.7-4.7 2.1-4.7 4.7-4.7z" fill="#fdd70e" stroke-width="none" opacity="1"></path><path id="SvgjsPath19734" d="M117.3 88.5c0 1.1.4 2.2 1.2 2.9.4.1.8.2 1.3.2 2.4 0 4.4-2 4.4-4.4 0-.9-.3-1.8-.7-2.4-.6-.3-1.2-.5-1.9-.5-2.4 0-4.3 1.9-4.3 4.2z" fill="#ffdd28" stroke-width="none" opacity="1"></path><path id="SvgjsPath19735" d="M119.8 84.8c1.3 0 2.4 1.1 2.4 2.4s-1.1 2.4-2.4 2.4-2.4-1.1-2.4-2.4 1.1-2.4 2.4-2.4z" fill="#000000" stroke-width="none" opacity="1"></path><path id="SvgjsPath19736" d="M118.7 84.8c.5 0 .8.4.8.8s-.4.8-.8.8-.8-.4-.8-.8.4-.8.8-.8zm2.8 3.8c.2 0 .3.1.3.3s-.1.3-.3.3-.3-.1-.3-.3.1-.3.3-.3z" fill="#ffffff" stroke-width="none" opacity="1"></path><path id="SvgjsPath19737" d="M119.8 82.3c-2.7 0-4.9 2.2-4.9 4.9s2.2 4.9 4.9 4.9 4.9-2.2 4.9-4.9-2.2-4.9-4.9-4.9zm.9.6zm-.9-.1c.2 0 .4 0 .6.1h.4c.1 0 .2.1.3.1.1.1.3.1.4.2.1-.1.1-.1.2-.1s.2.1.3.1c0 0 .1.1.1.2.2-.1.5.2.5.4.3-.1.7.2.6.5.1 0 .3 0 .4.2.1.1 0 .3-.1.4.2 0 .4.1.5.3.1.2.1.4-.1.6.2 0 .3.1.4.2 0 .1.1.1.1.2 0 .2-.1.3-.2.4.2.1.2.2.3.4v.1c0 .2-.1.3-.3.4.1.1.2.2.2.3v.2c-.1.1-.2.3-.3.3.2.2.1.7-.2.7.1.1.1.2.1.2-.1.2-.2.3-.2.4-.1.1-.2.1-.3.1.1.4-.3.7-.7.7 0 .1 0 .2-.1.3-.1.1-.2.1-.2.2-.1 0-.3 0-.4-.1 0 .2-.1.4-.3.4-.2.1-.4 0-.5-.2 0 .1-.1.3-.2.4-.1 0-.3.1-.4.1-.1-.1-.2-.1-.3-.3 0 .2-.2.3-.4.3s-.4-.1-.4-.3c-.1.2-.3.3-.5.2-.2-.1-.3-.2-.3-.4-.1.1-.4.2-.5.1-.2-.1-.3-.3-.3-.4-.2.1-.4.1-.6 0s-.2-.4-.1-.6c-.2.1-.4.1-.6 0-.1-.2-.2-.4 0-.6-.2 0-.4-.1-.5-.2s-.1-.2-.2-.3c-.2-.6-.4-1.2-.4-1.8-.2-2.4 1.7-4.4 4.2-4.4zm-2.5 8.1zm-1.2-1.2zm.6.6c0 .1 0 .1 0 0 0 .1 0 .1 0 0z" fill="#debb00" stroke-width="none" opacity="1"></path><path id="SvgjsPath19738" d="M116.6 89.4c.1 0 .2-.1.4-.2.1-.1.3-.1.4-.2v-.1c-.1.1-.3.1-.4.2s-.3.1-.4.3c-.1-.1 0 0 0 0zm-1.1-1.4c.1 0 .2 0 .4-.1.1 0 .3-.1.4-.1v-.1c-.1 0-.3 0-.4.1s-.3.1-.4.2zm.5-2.1c.3.1.7.2 1 .3 0 0 .1 0 0 0-.3-.2-.7-.3-1-.3-.1-.1-.1 0 0 0zm.1-.7c.2.1.4.3.6.4 0 0 .1 0 0-.1l-.6-.3zm3.3 5.8c.1-.3.2-.6.2-.9 0 0-.1-.1-.1 0-.1.2-.1.6-.1.9-.1 0 0 0 0 0zm3-3.5c.3.1.6.1.9.1-.2-.1-.6-.1-.9-.1zm.2-.6h.8v-.1c-.2 0-.5 0-.8.1 0-.1 0 0 0 0zm.2-2.4c-.3.2-.6.4-.8.7.2-.2.5-.4.8-.7zm-2.5-1.1c-.1.2-.1.5-.1.7h.1v-.7zm-2.5.2.3.6h.1c-.2-.2-.3-.4-.4-.6z" fill="#debb00" stroke-width="none" opacity="1"></path></g></g></g><g id="svga-group-eyesfront-right"><path id="SvgjsPath19681" d="M119.8 73.7c-7.8 0-14.1 6.1-14.1 13.6s6.3 13.6 14.1 13.6 14.1-6.1 14.1-13.6-6.3-13.6-14.1-13.6zm3.8 17.2c-1.5.2-12.1-1.1-12.1-1.1s.3-.2.7-.6c.3-.2.6-.3.8-.4 1.3-.8 9.5-6.2 10.2-6.5s3.4-.6 4.7.1c.5.3.9.6 1.2 1 .3.7.5 1.6.6 2.8 0 .8-4.6 4.4-6.1 4.7z" fill="#ebaa82" stroke-width="none" opacity="1" stroke="none"></path><path id="SvgjsPath19684" d="M130.3 84.6c-.1-.6-.4-1.2-.7-1.7-.3-.5-.7-1-1.1-1.4-.4-.4-.9-.9-1.4-1.2-1-.7-2.2-1.1-3.4-1.3-1.2-.2-2.4-.3-3.6-.2s-2.4.2-3.6.5c-.2 0-.3.1-.4.1-.1 0-.2.1-.2.1l-.2.1c-.3.1-.6.2-.9.4-.6.3-1.1.6-1.6 1-1.9 1.6-3.2 3.6-4.4 5.7-.3.9-.6 1.9-.8 2.8s-.5 1.8-.7 2.6c1-.5 2-1 3.1-1.6l1.2-.6c1.8.3 3.6.6 5.4.8 1.8.2 3.7.4 5.6.5h.7c.2 0 .5 0 .8-.1.5-.2.9-.4 1.3-.7.8-.5 1.6-1.1 2.3-1.6.4-.3.7-.6 1-.9.3-.3.7-.7.9-1.1 0-.1.1-.1.1-.2l.2-.2c.4-.5.5-1.2.4-1.8zm-23 7.3c.3-.9.7-1.8 1-2.7.3-.8.7-1.7 1-2.5 1.3-1.9 2.7-3.8 4.5-5.2.4-.4.9-.7 1.4-.9.2-.1.5-.2.8-.3l.2-.1c.1 0 .1 0 .2-.1.1 0 .3-.1.4-.1 1.1-.3 2.3-.4 3.4-.5 1.2-.1 2.3 0 3.4.1 1.1.2 2.2.5 3.2 1.1.5.3.9.6 1.3 1.1.4.4.8.8 1.1 1.3.3.5.6 1 .7 1.5.1.4 0 .8-.1 1.2 0-.4 0-.9-.2-1.3-.2-.6-.5-1.1-.9-1.6s-.9-.8-1.5-.9c-.6-.2-1.2-.2-1.8-.2-.6 0-1.2 0-1.8.1-.3.1-.6.1-.9.3-.3.1-.5.3-.8.4l-3 1.8c-2 1.3-3.9 2.6-5.8 3.9-1 .6-1.9 1.2-2.9 1.8-.8.6-1.8 1.2-2.9 1.8zm22.2-5.6c0 .1-.1.2-.1.3-.6.7-1.3 1.3-2 1.9s-1.5 1.1-2.3 1.6l-1.2.6c-.2.1-.4.1-.6.1h-.7c-3.6-.2-7.3-.6-11-.9.7-.3 1.3-.7 1.9-1 2-1.2 4-2.5 5.9-3.7 1-.6 1.9-1.3 2.9-1.9.2-.2.5-.3.7-.5.2-.1.5-.2.7-.3.6-.1 1.1-.2 1.7-.2s1.1 0 1.7.2c.5.1 1 .4 1.4.8.2.2.3.3.4.5 0 .1.1.2.1.3.1.4.2.9.3 1.3 0 .2.1.5.1.7l.1.2c0-.1 0-.1 0 0z" fill="#210d34" stroke-width="none" opacity="1" stroke="none"></path></g></g></g><g id="svga-group-facehighlight-single"></g><g id="svga-group-eyebrows-left-move" transform="matrix(1,0,0,1,0,0)"><g id="svga-group-eyebrows-left-rotate" transform="matrix(1,0,0,1,0,0)"><g id="svga-group-eyebrows-left" transform="matrix(1,0,0,1,0,0)"><path id="SvgjsPath19594" d="M91.2 73.1s-11.8 1.1-14.3 1.1c-2.6.1-8.5.5-8.5.5s-1-3.4-.3-4.1c.7-.7 9.8-2.8 9.8-2.8l1.2.5-.1-.8s6-.5 7.3-.5h2.8l-.3 1.6 1.4-1.6.8 1 .7-.8s.4.8.1 2.5c-.2 1.6-.6 3.4-.6 3.4z" fill="#fef6e1" stroke-width="none" opacity="1"></path><path id="SvgjsPath19595" d="m91.9 67.1-.1-.2-.2.2-.6.6-.1-.1c.2-.4.4-.9.5-1.3-.3.4-.5.8-.7 1.2l-.4-.5-.2-.2-.1.2-.8.9.2-.8v-.3H86.7c-.8 0-1.7 0-2.5.1-1.7.1-3.5.3-5.2.4h-.3v.6l-.7-.3h-.2c-2.5.6-5 1.3-7.5 2-.6.2-1.2.4-1.8.7-.2.1-.3.1-.4.2-.2.1-.2.3-.2.4-.1.3-.1.5-.1.8 0 1.1.3 2.1.5 3v.1h.1c2.1-.1 4.2-.2 6.2-.3l1.5-.1c.5 0 1 0 1.5-.1 1 0 1.9-.1 2.9-.2 1.9-.2 3.7-.3 5.5-.5l2.7-.3 1.3-.2.7-.1h.6V72.7l.1-.3.2-.7.3-1.5c.1-.5.2-1 .2-1.5v-.8c-.1-.2-.1-.5-.2-.8zm-.3 3.2c-.1.5-.2 1-.2 1.5l-.1.7-.1.3V73.1H90l-1.3.1-2.7.2c-1.8.1-3.7.3-5.6.4l-2.9.2c-.5 0-1 .1-1.5.1l-1.5.1c-2 .1-4 .3-6.1.5-.3-.9-.5-1.9-.5-2.9 0-.3 0-.5.1-.8 0-.1.1-.2.2-.3.1-.1.2-.1.4-.2l1.8-.6c1.2-.3 2.5-.6 3.7-1 1.2-.3 2.4-.6 3.6-.8l1.1.5.4.2v-1c1.6-.1 3.3-.3 4.9-.4.8-.1 1.7-.1 2.5-.1h2.1l-.2 1.3-.1.8.6-.6 1.2-1.3.4.4c-.2.5-.5 1-.6 1.6.3-.4.6-.9.8-1.4l.1.1.1.1.2-.2.5-.5c0 .1.1.3.1.4v.8c0 .5-.1 1-.2 1.5zm-6.4-.4.6-2.4c-.1.8-.2 1.6-.4 2.4l-.3 1.2c-.1.4-.2.7-.4 1.1l-.2.3v-.3c-.1-.6-.2-1.2-.4-1.8l-.3-1.6-.8 1.4c-.1.3-.3.6-.5.9-.2.3-.3.6-.5.8.1-.3.3-.6.4-.9.1-.3.3-.6.4-.9l.9-1.8.2-.3.1.3.4 1.9.3 1.5c.1-.2.2-.5.3-.7 0-.3.1-.7.2-1.1z" fill="#efe1bc" stroke-width="none" opacity="1"></path></g></g></g><g id="svga-group-eyebrows-right-move" transform="matrix(1,0,0,1,0,0)"><g id="svga-group-eyebrows-right-rotate" transform="matrix(1,0,0,1,0,0)"><g id="svga-group-eyebrows-right" transform="matrix(1,0,0,1,0,0)"><path id="SvgjsPath19596" d="M110.7 74.9s12-.3 14.3-.6 7.6-.5 7.6-.5-.1-3.6-.8-4.2c-.7-.6-8.3-1.8-8.3-1.8l-.9.6v-.7s-5.2 0-6.3.1-2.6.2-2.6.2l.1 1.5-1.2-1.4-.9.9-.6-.7s-.5.8-.5 2.6c-.1 1.9.1 4 .1 4z" fill="#fef6e1" stroke-width="none" opacity="1"></path><path id="SvgjsPath19597" d="M110.7 74.9H112l1.4-.1 2.8-.2c1.8-.1 3.7-.2 5.5-.3l2.7-.1c.4 0 .9-.1 1.4-.1l1.4-.1c1.8-.1 3.7-.1 5.5-.2l-.1.1c0-1.1-.1-2.2-.4-3.2-.1-.3-.1-.5-.3-.7-.1-.1-.1-.2-.2-.3-.1-.1-.2-.1-.4-.1-.5-.2-1-.3-1.6-.4-1.1-.2-2.1-.4-3.2-.6s-2.1-.3-3.2-.5h.2l-.9.6-.4.2v-1.1l.2.2c-1.5 0-3 0-4.5.1-.8 0-1.5 0-2.2.1l-2.2.2.2-.3.1 1.5.1.8-.5-.6-1.2-1.4h.3l-.9.9-.2.2-.1-.2-.6-.7h.3c-.1.2-.2.5-.3.7s-.1.5-.2.8c-.1.5-.1 1.1-.1 1.6V74.7l.3.2zm0 .1c-.1 0-.1-.1 0 0v-.8l-.1-.8c0-.5-.1-1.1-.1-1.6v-1.7c0-.3.1-.6.1-.8.1-.3.1-.5.3-.8l.1-.2.2.2.6.7h-.3l.9-.9.2-.2.2.2 1.2 1.4-.4.2-.1-1.5v-.2h.3l2.2-.2c.8-.1 1.5-.1 2.2-.1h4.7V68.8l-.4-.2.9-.6.1-.1h.1c2.1.4 4.2.8 6.4 1.2.5.1 1.1.3 1.6.4.1.1.3.1.4.2l.3.3c.1.2.2.5.3.8.2 1.1.3 2.1.4 3.2h-.1c-1.8.1-3.7.2-5.5.4l-1.4.1c-.4.1-.9.1-1.4.1-.9.1-1.8.1-2.8.2-1.8.1-3.7.1-5.5.2h-5.6zm4.5-5.9c.2.8.3 1.6.5 2.4l.3 1.2c.1.4.2.8.4 1.1l-.2.1.3-2.1.4-2.1.1-.3.2.3.9 1.7c.2.3.3.6.4.9.1.3.3.6.4.9-.2-.3-.3-.6-.5-.8s-.3-.6-.5-.8l-.9-1.7h.2l-.3 2.1-.3 2.1-.1.3-.2-.3c-.2-.4-.3-.8-.4-1.2-.1-.4-.2-.8-.2-1.2-.3-.9-.4-1.7-.5-2.6zm-2.3 4.7-.9-1.5c-.3-.5-.5-1.1-.6-1.6l.9 1.5c.3.5.4 1 .6 1.6z" fill="#efe1bc" stroke-width="none" opacity="1"></path></g></g></g><g id="svga-group-beardwrap" transform="matrix(1,0,0,1,0,0)"><g id="svga-group-beard-single-move" transform="matrix(1,0,0,1,0,0)"><g id="svga-group-beard-single" transform="matrix(1,0,0,1,0,0)"></g></g></g><g id="svga-group-mustache-single-move" transform="matrix(1,0,0,1,0,0)"><g id="svga-group-mustache-single" transform="matrix(1,0,0,1,0,0)"><path id="SvgjsPath19890" d="M99.94 121.2s-5.7 3.41-18.29-.36c-8.47-2.54-11.42-9-10.01-14.85 1.29-5.37 7.97-5.63 9.84-3.85 1.87 1.78 3.7 6 .35 7.78-1.92 1.02-4.67.11-4.95-1.48-.28-1.59 1.55-2.5 2.3-1.76 0 0-1.65 1.27.13 1.92 1.78.65 2.9-1.5 1.96-3.36-.93-1.87-4.39-3.36-6.82.19-2.43 3.55 1.31 8.97 6.54 8.78 5.23-.19 10.84-2.8 18.87.47 0 0 4.2-2.43 9.53-2.71 5.33-.28 8.5 0 11.4-.47 2.9-.47 4.58-2.34 4.58-4.86 0-2.52-3.92-3.64-5.61-2.15s1.03 4.95 2.99 3.08c0 0-.28 1.59-3.27 1.03s-2.71-3.83-1.87-5.42 6.17-4.2 9.25.65c3.08 4.86 1.11 10.09-2.15 12.8-4.91 4.1-12.21 6.76-24.77 4.57z" fill="#fef6e1" stroke-width="none" opacity="1"></path><path id="SvgjsPath19891" d="M128.05 105.17c-.53-1.22-1.22-2.42-2.3-3.32a5.517 5.517 0 0 0-3.91-1.29c-1.4.09-2.73.57-3.85 1.45-.28.23-.54.48-.76.83-.21.35-.32.66-.43 1-.21.67-.3 1.38-.25 2.09.06.71.28 1.47.79 2.06.5.6 1.23.96 1.93 1.1.68.13 1.37.21 2.11.1.72-.13 1.6-.49 1.88-1.52l.51-1.85-1.39 1.38c-.5.5-1.16.51-1.74.09-.56-.41-.96-1.17-.87-1.78.05-.58.73-1.01 1.47-1.13.75-.12 1.57.02 2.26.36.69.34 1.23.92 1.34 1.61.08.71-.07 1.59-.42 2.27-.7 1.43-2.28 2.25-3.94 2.45-1.7.26-3.45.26-5.22.29-1.76.03-3.54.07-5.3.17-3.54.14-7 1.14-10.13 2.79-1.86-.72-3.81-1.23-5.8-1.42-2.04-.2-4.09-.11-6.1.18-2.01.27-3.99.7-5.98.89-1.98.28-4.03-.18-5.6-1.41-1.55-1.19-2.69-3.1-2.5-5.07.08-.98.56-1.87 1.22-2.6.65-.73 1.51-1.29 2.47-1.4 1.9-.26 3.98 1.34 3.82 3.28-.02.92-.71 1.86-1.6 1.68-.4-.06-.94-.3-1-.58-.09-.27.25-.71.58-.97l.26-.2-.23-.23c-.35-.35-.88-.41-1.28-.31-.42.1-.79.33-1.07.65-.58.65-.65 1.67-.18 2.4.47.72 1.22 1.11 1.97 1.32.76.21 1.56.22 2.33.04.78-.21 1.48-.61 2.03-1.21.56-.6.87-1.42.91-2.22.07-1.61-.58-3.07-1.45-4.31-.22-.31-.47-.61-.74-.88-.27-.29-.65-.55-1.01-.71-.73-.34-1.5-.48-2.27-.52-1.53-.08-3.08.27-4.42 1.06-1.34.78-2.37 2.1-2.83 3.57-.43 1.46-.57 2.96-.44 4.47.25 3 1.76 5.84 4 7.81 2.23 2 5.05 3.17 7.88 3.84 2.82.73 5.71 1.24 8.63 1.32 2.89.02 5.91-.23 8.51-1.54 5 .92 10.28 1.37 15.37.27 2.53-.57 5-1.5 7.21-2.89 1.1-.71 2.17-1.43 3.13-2.37.94-.94 1.71-2.05 2.26-3.26 1.14-2.43 1.2-5.36.14-7.83zm-.84 7.5c-.49 1.13-1.19 2.18-2.05 3.07-.86.88-1.92 1.63-2.97 2.33-2.12 1.39-4.51 2.33-6.98 2.93-4.98 1.13-10.17.93-15.27.14-2.66 1.22-5.62 1.36-8.48 1.25-2.87-.19-5.72-.72-8.49-1.5-2.78-.71-5.45-1.9-7.53-3.82-2.09-1.88-3.47-4.53-3.69-7.32-.11-1.38.03-2.82.43-4.13.42-1.29 1.3-2.39 2.47-3.07 1.17-.67 2.56-1 3.92-.94.68.03 1.36.16 1.95.43.3.14.53.29.76.53.24.24.46.5.66.78.79 1.1 1.38 2.45 1.32 3.76-.04.65-.25 1.26-.68 1.74-.42.48-1.01.84-1.63 1.01-1.23.33-2.83.02-3.56-.98-.33-.48-.3-1.19.09-1.64.28-.37.82-.57 1.21-.48-.09.1-.18.21-.26.34-.15.24-.29.58-.18.94.12.36.4.55.65.68.25.12.52.21.81.25.58.08 1.2-.18 1.56-.63.38-.44.52-1 .55-1.54.05-1.09-.5-2.15-1.34-2.8-.82-.66-1.91-1.01-2.97-.87-1.07.13-2 .76-2.68 1.53-.69.76-1.2 1.75-1.28 2.8-.17 2.11 1 4.11 2.61 5.36.82.63 1.76 1.11 2.76 1.35 1 .27 2.06.25 3.07.16 2.03-.19 4.01-.57 6.01-.8 1.99-.25 4-.3 5.98-.07 1.98.22 3.92.76 5.76 1.53l.14.06.15-.08c3.07-1.58 6.52-2.53 9.99-2.61 1.76-.07 3.51-.08 5.28-.09 1.76-.02 3.55-.01 5.34-.26.91-.12 1.84-.39 2.67-.87.83-.48 1.55-1.2 2-2.07.44-.9.63-1.82.53-2.87-.16-1.09-.99-1.92-1.86-2.36-.89-.45-1.88-.63-2.88-.48-.5.08-1 .25-1.44.56-.44.3-.84.85-.91 1.43-.14 1.17.47 2.15 1.3 2.79.01 0 .01.01.02.01-.19-.02-.38-.04-.56-.07-1.13-.19-1.86-1.08-1.92-2.23-.04-.56.03-1.16.2-1.71.08-.27.2-.56.33-.77.12-.19.32-.4.54-.58.9-.72 2.09-1.16 3.26-1.23a4.73 4.73 0 0 1 3.25 1.03c.92.73 1.58 1.81 2.08 2.93.97 2.24.96 4.89-.04 7.15z" fill="#efe1bc" stroke-width="none" opacity="1"></path></g></g><g id="svga-group-nose-single-move" transform="matrix(1,0,0,1,0,0)"><g id="svga-group-nose-single" transform="matrix(1,0,0,1,0,0)"><path id="SvgjsPath19791" d="M102.57 86.18s5.53 21.64 5.89 25.72-1.08 4.45-2.64 3.73c-1.56-.72-2.16 1.2-3.01 3.85-.84 2.64-2.4 3.25-3.49 2.4s-2.28-7.33-3.61-6.49c-1.32.84-3.25 1.8-4.09 0S98 81.14 98 81.14s2.06-5.58 4.57 5.04z" fill="url(#SvgjsLinearGradient19792)" opacity="1"></path><path id="SvgjsPath19799" d="m102.57 86.18 2.79 10.95c.92 3.65 1.86 7.3 2.69 10.98.2.92.4 1.85.57 2.78.15.95.27 1.9.2 2.89-.03.49-.11 1-.33 1.5-.12.25-.28.5-.52.69-.24.2-.55.31-.84.34-.59.06-1.13-.15-1.55-.33-.37-.14-.61-.1-.86.15s-.46.65-.63 1.06c-.17.41-.32.85-.47 1.29l-.43 1.35c-.15.47-.36.94-.63 1.38-.27.44-.62.87-1.11 1.19-.48.32-1.18.48-1.78.26-.15-.04-.29-.12-.43-.19-.13-.09-.25-.15-.39-.3-.24-.26-.35-.48-.48-.71-.23-.46-.41-.91-.58-1.35-.34-.89-.64-1.78-.98-2.63-.17-.42-.36-.84-.57-1.2-.1-.17-.23-.34-.31-.4-.04-.04-.05-.02 0-.02.02 0 .04-.01.05-.01h-.01l-.08.05c-.41.26-.85.5-1.32.7-.47.19-1 .36-1.6.34-.3-.01-.62-.09-.9-.25-.29-.16-.51-.39-.68-.63-.09-.12-.16-.25-.22-.37a.955.955 0 0 1-.1-.29c-.01-.08-.03-.17-.03-.24-.02-.29 0-.53.01-.78.16-1.94.51-3.78.84-5.64.35-1.86.73-3.7 1.12-5.55 1.55-7.38 3.29-14.71 4.95-22.06.15-.38.35-.74.62-1.04.25-.3.68-.54 1.09-.38.39.15.66.48.88.81.23.34.41.7.57 1.06.67 1.48 1.07 3.04 1.45 4.6zm0 0c-.38-1.56-.8-3.13-1.45-4.6-.17-.37-.35-.72-.58-1.06-.23-.32-.5-.65-.87-.79-.39-.15-.79.08-1.05.38s-.46.66-.6 1.03c-.78 3.68-1.53 7.38-2.24 11.07-.71 3.7-1.41 7.4-2.06 11.11-.33 1.85-.64 3.71-.93 5.56-.28 1.85-.6 3.72-.71 5.55-.01.22-.02.45 0 .63 0 .05.01.07.02.11.01 0-.01-.02.02.04.04.08.09.16.14.23.21.28.45.42.79.44.7.02 1.55-.42 2.3-.9l.07-.05c.04-.02.1-.06.15-.08a.97.97 0 0 1 .39-.08c.28.01.5.13.64.24.28.23.43.47.57.69.27.45.46.9.64 1.35.36.9.65 1.79.97 2.66.16.43.33.86.52 1.25.09.19.21.38.29.46.01.02.11.08.17.13.07.03.14.08.22.1.29.1.61.05.92-.14.31-.19.58-.5.81-.85.47-.7.68-1.6 1.01-2.51.16-.45.32-.9.53-1.36.21-.45.44-.91.87-1.32.21-.2.51-.37.85-.42.33-.04.65.03.9.14.43.21.81.34 1.17.32.7 0 1.03-.94 1.1-1.82.16-1.81-.25-3.67-.58-5.51-1.42-7.35-3.15-14.69-4.99-22z" fill="#bd6630" stroke-width="none" opacity="1"></path></g></g><g id="svga-group-hair-front" transform="matrix(1,0,0,1,0,0)"><path id="SvgjsPath19902" d="M58.02 71.24s1.85 1.66 2.59 3.33c.74 1.66 0 4.62.55 4.99.55.37 2.4-4.99 2.4-4.99l1.29-21.45 16.09-14.98 6.66 7.21s17.01.92 25.34.55l7.03-5.18 15.54 13.32.55 20.71 2.4 4.62s.74-5.18 1.11-5.92c.37-.74 2.03-2.59 2.03-2.59s1.48-13.5.74-17.38-5.55-13.69-14.24-20.16-35.69-5.55-40.5-5.18c-4.81.37-15.17 3.51-15.17 3.51l.92 1.29-2.59 1.11-.37 1.48s-5.36 3.33-7.4 5.73-3.88 7.03-4.44 10.91-.53 19.07-.53 19.07z" fill="#fef6e1" stroke-width="none" opacity="1"></path><path id="SvgjsPath19903" d="M58.07 71.22c.89.82 1.77 1.77 2.4 2.86.69 1.12.63 2.47.62 3.7 0 .31-.01.62 0 .93.01.15.02.3.05.44.01.14.12.27.1.26-.06.02.12-.1.17-.22.08-.12.16-.25.23-.38.14-.27.27-.55.4-.83.49-1.14.91-2.31 1.31-3.49l-.01.06 1.15-21.46.01-.15.11-.11L80.66 37.8l.33-.3.3.33 6.65 7.22-.29-.14c4.21.23 8.43.4 12.65.56 4.22.14 8.44.26 12.65.14l-.16.06 7.07-5.12.14-.1.13.11 15.49 13.37.05.04v.07l.64 20.71-.03-.1 2.42 4.61-.49.08c.22-1.54.45-3.08.75-4.62.08-.39.15-.77.28-1.17.16-.46.42-.75.65-1.08.48-.63.98-1.23 1.5-1.82l-.08.17c.4-4.12.74-8.25.84-12.37.01-2.06.12-4.14-.5-6.04-.6-1.93-1.51-3.79-2.5-5.58-2-3.58-4.5-6.89-7.42-9.75-1.46-1.42-3.02-2.82-4.72-3.86-1.67-1.1-3.65-1.71-5.58-2.32-3.95-1.06-8.05-1.62-12.16-2-4.11-.36-8.24-.51-12.38-.52-2.07 0-4.13.02-6.2.1-1.03.04-2.06.09-3.08.16-1 .09-2.01.25-3.02.42-4.04.76-8.05 1.84-12.02 2.98l.22-.63.92 1.3.29.41-.46.19-2.6 1.09.22-.26-.38 1.48-.04.15-.13.08c-1.41.88-2.81 1.82-4.15 2.81-1.32 1.01-2.66 2.04-3.63 3.34-1.92 2.68-3.12 5.89-3.82 9.12-.35 1.62-.4 3.3-.51 4.98-.09 1.68-.16 3.36-.21 5.04-.1 3.36-.17 6.76-.22 10.08zm-.09.04c-.04-3.4-.04-6.74-.01-10.11.02-1.68.05-3.36.1-5.05.08-1.68.12-3.38.45-5.05.32-1.67.81-3.3 1.43-4.88.63-1.57 1.37-3.12 2.39-4.52 1.03-1.42 2.4-2.47 3.72-3.52 1.35-1.03 2.74-1.99 4.17-2.9l-.17.23.36-1.48.04-.18.18-.08 2.58-1.13-.17.6-.93-1.29-.34-.47.55-.17c3.98-1.2 7.98-2.32 12.08-3.15 1.03-.19 2.06-.38 3.13-.47 1.05-.08 2.09-.13 3.12-.17 2.08-.08 4.16-.11 6.24-.11 4.16 0 8.32.14 12.47.5 4.15.37 8.3.92 12.35 2.04 2 .65 4.03 1.28 5.84 2.47 1.82 1.13 3.36 2.54 4.87 4.01 2.98 2.95 5.51 6.34 7.53 10.01 1 1.84 1.9 3.74 2.51 5.78.32 1.01.45 2.12.48 3.16.02 1.05.02 2.09-.02 3.13-.16 4.16-.54 8.29-.99 12.42l-.01.1-.07.07c-.51.57-1.02 1.16-1.49 1.76-.22.3-.48.62-.57.9-.11.34-.19.73-.27 1.1-.31 1.51-.55 3.05-.78 4.58l-.12.8-.37-.72-2.39-4.63-.03-.05v-.05l-.47-20.72.05.11-15.58-13.27.28.01-6.99 5.23-.07.05h-.09c-4.24.19-8.47.13-12.7.05-4.23-.08-8.45-.26-12.68-.46l-.17-.01-.12-.13-6.67-7.21.63.02-16.13 14.98.12-.25-1.45 21.44v.03l-.01.03c-.43 1.18-.88 2.35-1.41 3.49-.13.29-.27.57-.43.85-.08.14-.16.28-.26.41-.05.07-.1.13-.17.2-.06.05-.16.16-.36.13-.29-.15-.29-.36-.33-.52-.03-.17-.04-.33-.04-.49-.01-.32.01-.63.02-.95.03-1.23.12-2.53-.51-3.6-.59-1.08-1.41-2.01-2.32-2.9z" fill="#efe1bc" stroke-width="none" opacity="1"></path></g><g id="svga-group-glasses-single-move" transform="matrix(1,0,0,1,0,0)"><g id="svga-group-glasses-single" transform="matrix(1,0,0,1,0,0)"><path id="SvgjsPath19831" d="M62.5 82c-1 1 .1 5.6 1.5 9.5 1.4 3.9 2.3 6.4 5 7.4s9.7 1.9 16.8 1.2c7.1-.7 7.3-2.6 8.1-3.9.8-1.3 2.9-8.9 2.9-10.8 0-1.9-3.4-2.7-5.4-3.1-2-.3-12.6-1.2-18-1.6-5.4-.3-9.7 0-10.9 1.3z" fill="url(#SvgjsLinearGradient19832)" opacity="1"></path><path id="SvgjsPath19836" d="M136.8 82.2c1.1 1 .7 5.4 0 9.3-.8 3.8-1.3 6.2-3.7 7.2s-9.1 2-16.1 1.3c-7.1-.7-7.5-2.5-8.6-3.8-1-1.3-4.2-8.8-4.5-10.8-.3-1.9 3-2.7 4.9-3 1.9-.3 12.2-1.1 17.4-1.5 5.1-.3 9.2 0 10.6 1.3z" fill="url(#SvgjsLinearGradient19837)" opacity="1"></path><path id="SvgjsPath19841" d="M139.5 81.2c-.7-.6-3.9-.7-7.9-.9-3.8-.2-15.4 0-22.2 1.2-3.9.7-7 1.4-8.5 1.4h-1.6c-1.5 0-4.7-.8-8.8-1.5-7.1-1.2-19-1.5-23-1.3-4.1.2-7.4.3-8.1.9-.6.6.6 4.2 1 4.9.4.8.7.6 1.2 1.1.4.5 1.7 6.1 3 8.8 1.3 2.8 2.8 4.5 10.6 5 7.8.6 14.4-.4 16.9-1.5 2.4-1.1 3.9-6 4.2-7.6.4-1.6.8-3.3 1.1-4.1.3-.8 2.1-1.4 2.1-1.4h1.5s1.8.6 2.3 1.4c.5.8 1.2 2.5 1.7 4.1.6 1.6 2.8 6.4 5.3 7.5 2.6 1.1 9.2 2 16.7 1.4 7.5-.6 8.6-2.3 9.5-5 .9-2.7 1.3-8.2 1.6-8.6.3-.5.7-.3.9-1.1.5-.6 1.2-4.1.5-4.7zm-43.9 6.4c-.6 4.4-2.3 9.2-3.7 10.3-2.1 1.8-11.3 2.3-16.6 1.8-5.3-.6-7.9-1.3-9.5-4.8-1.6-3.5-2.9-9.1-2.8-10.8.1-1.7 1.5-2.7 5.7-2.7s8.3.1 13.6.4c5.3.3 9.3 1.1 11.4 2.1 2.1.9 2.1 2.2 1.9 3.7zm39.9 7.2c-1 3.4-3.4 4.2-8.4 4.7-5.1.6-14.2.1-16.5-1.7-1.5-1.2-3.9-5.9-5.2-10.2-.4-1.5-.5-2.8 1.4-3.7 1.9-.9 5.8-1.7 10.9-2 5.1-.3 9.1-.3 13.1-.3s5.6 1 5.9 2.6c.2 1.7-.2 7.2-1.2 10.6z" fill="#604ab3" stroke-width="none" opacity="1"></path><path id="SvgjsPath19842" d="M139.5 81.2c-.6-.4-1.4-.4-2.1-.5-.7-.1-1.5-.1-2.2-.2-1.5-.1-2.9-.2-4.4-.2-2.9-.1-5.9 0-8.9.1-2.9.1-5.9.3-8.8.7-2.9.3-5.8.9-8.7 1.5-.7.1-1.5.3-2.2.4-.7.1-1.5.1-2.2.1-1.5 0-3-.3-4.4-.6-2.9-.6-5.8-1.2-8.7-1.4-5.9-.6-11.8-.9-17.7-.9-1.5 0-2.9.1-4.4.2-1.5.1-3 .1-4.4.5-.3.1-.7.2-.8.6 0 .3 0 .7.1 1.1.1.7.3 1.4.6 2.1.1.3.2.7.4 1 .1.3.3.7.6.9s.7.4.8.8c.2.3.3.7.4 1.1l1.3 4.2c.5 1.4.9 2.8 1.6 4.1.3.6.8 1.2 1.3 1.7s1.2.8 1.8 1.1c1.3.6 2.8.8 4.3 1 2.9.4 5.9.5 8.8.4 2.9-.1 5.9-.3 8.7-1 .7-.2 1.4-.4 2-.7.6-.3 1.1-.9 1.5-1.4.8-1.2 1.4-2.5 1.9-3.9s.7-2.8 1.1-4.3c.1-.4.2-.7.3-1.1.1-.4.2-.7.5-1.1.6-.6 1.3-.9 2-1.2h1.5c.6.2 1.2.5 1.8.9.3.2.5.4.7.8.2.3.3.6.4.9.5 1.2 1 2.3 1.4 3.5.5 1.2 1 2.3 1.7 3.3.6 1.1 1.3 2.1 2.2 2.9.9.9 2.1 1.1 3.3 1.4 1.2.3 2.4.5 3.7.6 2.5.3 5 .4 7.5.3 2.5-.1 5-.2 7.4-.7 1.2-.3 2.4-.6 3.4-1.4 1-.7 1.6-1.9 1.9-3.1.7-2.4.9-4.9 1.3-7.4.1-.3.1-.6.2-.9.1-.3.4-.5.7-.7.4-.4.5-1.1.6-1.7.1-.6.2-1.2.3-1.9.1-.7.2-1.4-.1-1.9zm0 0c.2.2.3.6.3.9v.9c0 .6-.1 1.2-.2 1.9-.1.3-.1.6-.2.9-.1.3-.2.6-.5.8-.2.2-.5.3-.6.6-.1.3-.1.6-.2.9-.4 2.5-.6 5-1.3 7.4-.3 1.2-.9 2.4-1.9 3.2-1 .8-2.3 1.2-3.5 1.4-2.5.5-5 .7-7.5.8-2.5.1-5 0-7.5-.2-1.2-.1-2.5-.3-3.7-.6-.6-.1-1.2-.3-1.8-.5-.6-.2-1.2-.6-1.7-1-1-.9-1.7-1.9-2.3-3-.6-1.1-1.2-2.2-1.7-3.4-.5-1.2-.9-2.3-1.4-3.5-.1-.3-.3-.6-.4-.8-.1-.2-.3-.4-.6-.6-.5-.3-1.1-.6-1.6-.8h.1-1.5.1c-.7.2-1.3.6-1.8 1.1-.2.2-.3.6-.4.9-.1.3-.2.7-.3 1.1-.4 1.4-.6 2.9-1.1 4.3-.5 1.4-1.1 2.8-1.9 4-.4.6-1 1.2-1.7 1.6-.7.4-1.4.6-2.1.7-2.9.7-5.9.9-8.8 1-3 .1-5.9-.1-8.9-.5-1.5-.2-2.9-.5-4.3-1.1-.7-.3-1.3-.7-1.9-1.2-.6-.5-1-1.1-1.4-1.8-.7-1.3-1.2-2.7-1.6-4.1l-1.3-4.2c-.1-.3-.2-.7-.4-1-.1-.3-.5-.5-.8-.7-.3-.2-.5-.6-.7-.9-.1-.3-.3-.7-.4-1-.2-.7-.4-1.4-.6-2.2-.1-.4-.1-.7-.1-1.1 0-.2.1-.4.3-.5.2-.1.3-.2.5-.2 1.5-.3 2.9-.4 4.4-.5 1.5-.1 2.9-.2 4.4-.2 5.9-.1 11.8.2 17.7.8 2.9.3 5.9.8 8.8 1.4 2.9.6 5.8.8 8.7.1 2.9-.5 5.8-1.1 8.8-1.4 2.9-.3 5.9-.5 8.9-.6 3-.1 5.9-.2 8.9-.1 1.5.1 2.9.2 4.4.3.7.1 1.5.1 2.2.2.7.1 1.4.1 2.1.5zm-43.8 6.4c-.2 1.8-.7 3.6-1.2 5.3-.3.9-.6 1.7-.9 2.6-.4.8-.7 1.7-1.4 2.4s-1.6.9-2.5 1.2l-2.7.6c-1.8.3-3.6.4-5.4.4-3.6.1-7.3-.2-10.9-1-.9-.2-1.7-.6-2.5-1.1-.8-.5-1.4-1.2-1.9-2-.9-1.6-1.5-3.3-2-5.1-.5-1.7-1-3.5-1.3-5.3-.1-.5-.1-.9-.1-1.4 0-.5.1-1 .4-1.4.6-.8 1.6-1.1 2.5-1.3 1.8-.4 3.7-.2 5.5-.2l5.4.2c1.8.1 3.6.1 5.4.2 1.8.1 3.6.3 5.4.6 1.8.3 3.6.7 5.3 1.3.8.3 1.7.7 2.3 1.4.7.7.7 1.7.6 2.6zm-.1 0c.1-.9.1-1.9-.4-2.6-.6-.7-1.4-1.1-2.3-1.3-1.7-.6-3.5-.9-5.3-1.1-1.8-.2-3.6-.4-5.4-.5-1.8 0-3.6-.1-5.4-.1l-5.4-.2c-1.8-.1-3.6-.2-5.4.1-.9.2-1.7.4-2.2 1.1-.5.7-.4 1.6-.3 2.5.2 1.8.7 3.6 1.2 5.3.5 1.7 1.1 3.5 1.9 5.1.5.8 1.1 1.5 1.8 1.9.7.5 1.6.8 2.5 1 3.5.8 7.2 1 10.8.8 1.8-.1 3.6-.2 5.4-.5.9-.1 1.8-.3 2.7-.5.8-.2 1.8-.5 2.4-1 .6-.6 1-1.4 1.4-2.2.4-.8.7-1.7 1-2.5.3-1.7.7-3.5 1-5.3zm39.9 7.2c-.2.8-.6 1.7-1.2 2.4s-1.4 1.1-2.2 1.4c-1.7.6-3.5.9-5.2 1.1-3.5.4-7.1.3-10.7-.1-1.8-.2-3.5-.5-5.2-1.3-.8-.4-1.4-1.2-1.9-1.9-.5-.8-.9-1.5-1.3-2.3-.8-1.6-1.5-3.2-2.1-4.9-.3-.8-.6-1.7-.7-2.6-.1-.4-.1-.9.1-1.4s.5-.8.9-1.1c1.6-.9 3.3-1.3 5.1-1.7 1.8-.3 3.5-.6 5.3-.7 3.6-.2 7.1-.2 10.6-.3l2.7-.1c.9 0 1.8 0 2.7.1.9.1 1.8.2 2.6.7.8.4 1.6 1.2 1.7 2.1.2 1.8 0 3.6-.2 5.3-.2 1.9-.5 3.6-1 5.3zm0 0c.5-1.7.7-3.5.9-5.2.1-1.8.3-3.6.1-5.3-.1-.8-.8-1.5-1.6-1.8-.8-.3-1.6-.5-2.5-.5-1.7-.1-3.5 0-5.3 0l-5.3.1c-1.8.1-3.5 0-5.3.2-1.8.1-3.5.3-5.3.6-1.7.3-3.5.7-5 1.5-.4.2-.7.5-.8.9-.2.4-.2.8-.1 1.2.1.8.4 1.7.7 2.5.6 1.7 1.2 3.3 2.1 4.9.4.8.8 1.6 1.3 2.3.5.7 1 1.4 1.8 1.8 1.6.7 3.4.9 5.1 1.2 3.5.4 7.1.5 10.6.2 1.8-.2 3.5-.3 5.2-.9.8-.3 1.6-.7 2.2-1.4.6-.6.9-1.4 1.2-2.3z" fill="#382094" stroke-width="none" opacity="1"></path></g></g></g></g></g><rect id="svga-credit-rect" width="200" height="15" x="0" y="185" fill="#ecf0f1" opacity="0.5" style="display: none;"></rect><text id="svga-credit-text" font-family="Avenir Next, Roboto, Helvetica, Arial, sans-serif" font-size="10px" text-anchor="start" font-weight="400" size="10px" anchor="start" weight="400" fill="#333333" x="33.43669891357422" y="182.60824704170227" style="display: none;"><tspan id="SvgjsTspan19135" dy="13" x="33.43669891357422">Created on AvatarMaker.com</tspan></text></g></svg>