<svg xmlns="http://www.w3.org/2000/svg" version="1.1" width="600px" height="600px" viewBox="0 0 200 200" style="overflow:hidden!important;"><g id="svga-group-wrapper"><g id="svga-group-backs-single"><path id="SvgjsPath10971" d="M0 0h200v200H0V0z" fill="#ecf0f1" stroke-width="none" opacity="1"></path><path id="SvgjsPath10972" d="M0 0h18.2v200H0V0zm36.4 0h18.2v200H36.4V0zm36.3 0h18.2v200H72.7V0zm36.4 0h18.2v200h-18.2V0zm36.3 0h18.2v200h-18.2V0zm36.4 0H200v200h-18.2V0z" fill="#c6dce2" stroke-width="none" opacity="1"></path></g><g id="svga-group-humanwrap-move" transform="matrix(1,0,0,1,0,0)"><g id="svga-group-humanwrap"><g id="svga-group-hair-back-move" transform="matrix(1,0,0,1,0,0)"><g id="svga-group-hair-back"></g></g><g id="svga-group-humanbody-back"><path id="SvgjsPath9888" d="M180.8 184.9c-2.3-3.4-38.9-17.8-38.9-17.8l-13.4-5.2-5.6-68.8H76.8L71.3 162l-13.4 5.2S21.4 181.6 19 185c-2.3 3.4-3.3 14.9-3.3 14.9V219h168.5v-19.2c-.1.1-1-11.5-3.4-14.9z" fill="#f0c7b1" stroke-width="none" opacity="1" stroke="none"></path></g><g id="svga-group-chinshadow-single"><path id="SvgjsPath10007" d="M85.7 157.38c2.95 2.5 14.4 2.34 17.66.34 3.2-1.96 8.57-7.52 22.92-23.62l-3.34-41H76.82l-4.05 50.95c6.27 6.89 11.03 11.73 12.93 13.33z" fill="#d19271" stroke-width="none" opacity="1"></path></g><g id="svga-group-humanbody-front"><path id="SvgjsPath9889" d="M184.5 219c-.1-6.4-.1-12.8-.1-19.2l-.3-.1s.1-.1.2 0c.1 0 .1.1.1.1v-.4l-.1-.5-.1-.9-.2-1.9c-.2-1.3-.4-2.5-.6-3.8-.2-1.3-.5-2.5-.9-3.8-.4-1.2-.8-2.5-1.5-3.6-.8-.9-1.9-1.5-2.9-2.1-1-.6-2.1-1.1-3.2-1.7-2.1-1.1-4.3-2.1-6.5-3.1-4.4-2-8.7-3.9-13.1-5.7-4.4-1.9-8.8-3.7-13.2-5.5l-13-5.2-1.2-16.9c-.4-5.7-.9-11.5-1.3-17.2l-1.3-17.2-1.5-17.3-.1-.8h-.8c-7.7 0-15.4.1-23.1.1l-23.1.2h-.5v.5L75 110.2l-1.3 17.2c-.8 11.4-1.8 22.8-2.8 34.2-5.6 2.1-11.2 4.2-16.7 6.4-5.6 2.2-11.2 4.5-16.8 6.9-2.8 1.2-5.6 2.4-8.3 3.6-2.8 1.3-5.5 2.5-8.2 4.1-.7.4-1.3.8-2 1.4-.2.1-.4.4-.5.6l-.3.6c-.2.4-.4.7-.5 1.1-.6 1.5-1 3-1.3 4.5-.6 3-1.1 6-1.4 9.1l-.1 19.1v.9h.9l42.1.1H100c14 0 28.1-.1 42.1-.2l42.1-.5h.3v-.3zm-84.5-1-42.1-.1-41.2.1-.1-18.1c.3-3 .6-5.9 1.2-8.9.3-1.4.6-2.9 1.1-4.2.1-.3.3-.7.4-.9l.2-.4.3-.3c.5-.4 1.1-.8 1.8-1.2 2.5-1.5 5.3-2.8 8-4.1 2.7-1.3 5.5-2.5 8.2-3.7 5.5-2.4 11.1-4.8 16.7-7.1s11.2-4.5 16.9-6.7l.2-.1v-.2c.9-11.5 1.7-23 2.7-34.4l1.4-17.2 1.5-16.7 22.6.2c7.4.1 14.8.1 22.3.1l1.3 16.4 1.5 17.2c.5 5.7 1 11.5 1.5 17.2l1.6 17.2v.3l.3.1 13.4 5c4.4 1.7 8.9 3.4 13.3 5.2 4.4 1.8 8.8 3.7 13.2 5.6 2.2 1 4.3 2 6.5 3 1.1.5 2.1 1.1 3.2 1.6 1 .6 2.1 1.2 2.9 2 .7 1.1 1.1 2.3 1.4 3.5.3 1.2.6 2.5.8 3.7.2 1.3.4 2.5.6 3.8l.2 1.9.1.9.1.5v.4c0 6.3 0 12.6-.1 18.9l-41.8-.5c-14 .1-28.1 0-42.1 0z" fill="#c27b55" stroke-width="none" opacity="1" stroke="none"></path><path id="SvgjsPath9890" d="M125.1 142.4s-1.8 23-9.1 32.9c0 0 7.9-25 9.1-32.9zm-34.5 16s5 7.9 11.5 10.1c0 0-9.5 2.2-11.5-10.1zM73.4 140c6.7 25.6 6.7 25.6 8.5 30.7 0 0 .4-12.6-8.5-30.7z" fill="#d19271" stroke-width="none" opacity="1" stroke="none"></path></g><g id="svga-group-clothes-single"><path id="SvgjsPath10849" d="M67.8 137.1c-1.1-1.6-5.2 6-4.4 9.6.8 3.7-.8 3.1-.6 6.8.2 3.7-2.5 3.9-2.7 5.4s.2 4.8.2 4.8-11.8 2.1-16.4 4.4-17.5 6.9-19.7 7.9-5.6 2.5-5.8 3.5-1.7-1.4-3.5 2.9-4.4 11.4-3.8 14.3-.4 9.8-.2 11.9c.2 2.1 0 11.4 0 11.4h177.5s-1.2-10.6-.6-14.2 0-13.1-.4-15.2-1.5-7.3-3.1-8.1c0 0 0-3.5-5-6s-15-5-19.7-6.8-15.6-6.4-17-6.9-3.1-1.2-3.1-1.2l-1.9-.2s1.7-6.9 0-8.7-1.7-5.2-2.5-6 2.9-6.2-2.5-8.9c0 0 1.4 2.5-10.2 6.8s-31.2 3.3-41.2 1-12.6-7.3-13.4-8.5z" fill="#386e77" stroke-width="none" opacity="1"></path><path id="SvgjsPath10850" d="M132 138.2zm-77 30.3c-2.4.7-4.9 1.4-7.3 2.1-2.4.8-4.8 1.4-7.2 2.6l-.5.3-.3.3-.7.6-1.5 1.1-3 2.3c1.1-.6 2.2-1.2 3.3-1.9.5-.3 1.1-.7 1.6-1l.8-.6.4-.3.3-.2c1.1-.5 2.3-.8 3.5-1.2l3.6-1.1c2.4-.7 4.8-1.5 7.2-2.3 1.2-.4 2.4-.9 3.6-1.4 1.2-.5 2.4-1 3.3-1.9-1.1.7-2.3 1-3.5 1.4-1.2.5-2.4.8-3.6 1.2zm134.4 51.4c-.3-3.1-.6-6.3-.7-9.5 0-1.6-.1-3.2.1-4.6.2-1.7.2-3.3.3-4.9 0-3.2-.1-6.4-.5-9.7-.2-1.7-.6-3.2-1-4.9-.2-.8-.5-1.6-.8-2.4l-.6-1.2c-.2-.3-.4-.6-.7-.9 0-.2-.1-.3-.1-.5l-.3-.9c-.2-.6-.5-1.1-.9-1.6-.7-1-1.6-1.8-2.5-2.4-1.9-1.3-4-2-6-2.8-4-1.4-8.1-2.6-12.1-3.9-2-.6-3.9-1.3-5.9-2.1l-5.9-2.4-5.8-2.2-2.9-1.2c-1-.4-2-.8-3-1.1h-.2l-.8-.1c.4-1.8.6-3.6.5-5.5-.1-.6-.1-1.2-.4-1.8-.1-.3-.3-.7-.6-1l-.2-.3c-.1-.1-.1-.2-.2-.2-.5-.7-.8-1.6-1.1-2.6-.1-.5-.3-1-.4-1.6-.1-.3-.2-.6-.4-.9 0-.1-.1-.1-.1-.2 0-.4.2-.9.3-1.5.1-.5.2-1.1.3-1.7.1-1.2-.1-2.5-.7-3.6-.7-1.1-1.7-1.9-2.7-2.4 0 0-1.4-.6-3.1-.9-1.8-.3-2.8-.4-2.8-.4s.3 4.5.4 5.8c-.6.3-1.1.6-1.7.8-2.7 1.2-5.4 2.2-8.2 2.9-5.7 1.3-11.6 1.8-17.5 1.8s-11.8-.4-17.6-1.5c-2.9-.6-5.7-1.4-8.3-2.8l-1.5-.9c-.1-.2-.1-.4-.1-.6 0-.5.4-5.2.4-5.4s-5.4.6-5.8.8c-.1 0-.2.1-.3.1-.3.2-.5.4-.7.6-.4.5-.7 1-1.1 1.6-.6 1.1-1.1 2.2-1.5 3.4-.4 1.2-.6 2.4-.5 3.7.2 1.2.5 2.4.1 3.6-.2.6-.4 1.2-.5 1.8-.1.6-.1 1.3-.1 1.9.1 1.2-.2 2.4-1.1 3.3-.4.4-.9.8-1.3 1.3-.2.3-.3.7-.3 1v.9c0 1.2.1 2.3.2 3.5-3.6.6-7.1 1.4-10.6 2.3-1.8.5-3.6 1-5.3 1.8-1.7.8-3.3 1.5-5 2.1-3.4 1.3-6.9 2.6-10.3 3.9-1.7.6-3.5 1.2-5.2 2-.8.4-1.7.7-2.5 1.2-.8.4-1.7.8-2.5 1.5-.2.2-.4.4-.6.7h-.4c-.3 0-.7.1-1 .2-.6.3-1 .8-1.3 1.2-.3.4-.5.9-.7 1.3-.7 1.7-1.4 3.4-2.1 5.2-.6 1.8-1.2 3.5-1.7 5.4-.2.9-.4 1.9-.5 2.9 0 .5-.1 1 0 1.6l.1.6v.6c.1 1.7 0 3.6-.1 5.4-.1 1.8-.3 3.7-.2 5.6.1 3.6 0 7.3 0 11v.9h.9l44.4-.4c14.8-.1 29.6-.2 44.4-.1 14.8 0 29.6.2 44.4.3l44.4.3h1l-.7-1.2zM137 153.3l.1.1c.1.1.1.2.2.4.1.4.2.8.2 1.3.1 1.9-.3 4.1-.8 6l-.3 1.1h.2c-.9.8-1.7 1.5-2.6 2.2.2-.5.3-1.1.4-1.6.1-.8.1-1.6 0-2.4-.1-.8-.3-1.6-.6-2.4-.3-.7-.6-1.4-1-2.1v-.2c1.5-.8 2.8-1.6 4.2-2.4zm-10.2 9.5-.1-.2c-.4-.9-.9-1.8-1.4-2.7 2.2-1.1 4.4-2.3 6.6-3.6l.1.1c.4.6.8 1.3 1.1 2 .3.7.6 1.4.7 2.2.2.8.3 1.5.3 2.3 0 .6 0 1.2-.1 1.8-1.4 1.2-2.8 2.3-4.3 3.3-1 .7-2.1 1.5-3.2 2.1 0-.1.1-.3.1-.4.1-1.1.1-2.3.1-3.4.1-1.2.2-2.4.1-3.5zm-4.3.6c-.2-.6-.5-1.2-.9-1.6l2.7-1.2c.1-.1.2-.1.3-.1.5.9.9 1.7 1.4 2.6.1 1.1.2 2.2.2 3.3.1 1.1.1 2.3.2 3.4v.6c-.3.1-.6.3-.8.4-.8.3-1.4.6-2.3.8-.3.1-.6.1-.9.2.2-1.7.3-3.4.4-5-.2-1.2-.1-2.3-.3-3.4zm-9.3 4.8c-.4-.8-.6-1.7-.8-2.6-.1-.4-.1-.7-.2-1.1l.9-.1c.7-.1 1.3-.2 1.9-.4l1-.2 1-.3c1.2-.4 2.5-.9 3.7-1.4.4.4.8.9.9 1.5.2.9.2 1.9.3 3l.2 5.1c-.5.1-.9.2-1.4.2-2.4.4-4.8.7-7.2 1 0-.1.1-.3.1-.4.1-.5.1-.9.1-1.4 0-1-.1-1.9-.5-2.9zm-19.9 3.9c.2.6.2 1.2.5 1.8.1.2.2.4.3.5-1.4 0-2.7-.1-4-.2-.4 0-.8-.1-1.2-.2l-.6-.1-.6-.2-2.4-.9h-.1c-.1-.7-.1-1.3-.2-2 0-.6-.1-1.1 0-1.7.1-.5.2-1.1.4-1.6s.4-1.1.4-1.7h.2c.6.1 1.2.3 1.9.4.3.1.6.2.9.2.3.1.7.2 1.1.2.9.1 1.7.1 2.5.1.1.6.2 1.1.2 1.7v.1c.2 1.2.4 2.4.7 3.6zm.8 1.7c-.2-.6-.2-1.2-.3-1.8-.1-1.2-.3-2.4-.4-3.7 0-.6-.1-1.1-.1-1.7h.6c5.2-.2 10.3-.9 15.5-1.7l2.1-.3c.1.4.1.8.2 1.1.2.9.5 1.9 1 2.7.4.7.6 1.7.7 2.6.1.6.1 1.2.1 1.9-1 .1-1.9.3-2.9.4-3.4.4-6.8.8-10.2.9-2 .1-3.9.2-5.9.2-.3-.1-.4-.3-.4-.6zm41.9-27.6s-.1 0 0 0c-.1-.1-.1 0 0 0zm-2.8-6.8c0-.1.1-.1.1-.1.5.3.9.7 1.1 1.2.4.8.6 1.6.5 2.6-.1.5-.1 1-.2 1.5s-.3 1-.4 1.7c0 .2 0 .4.1.8 0 .1.1.2.1.3l.2.2c.1.1.1.3.2.5.1.5.2 1 .4 1.5.3 1.1.6 2.2 1.3 3.3.1.1.2.3.3.4-1.3.6-2.6 1.2-4 1.8-.1-.9-.2-1.9-.5-2.8-.2-.7-.6-1.2-.7-1.8-.2-.5-.1-1 .1-1.7.1-.6.2-1.3.2-2s-.2-1.4-.5-2c-.3-.6-.6-1.2-1.1-1.7-.3-.3-.6-.6-.9-.8.3-.2.7-.4 1-.6.6-.4 1.3-.8 1.9-1.4.3-.2.6-.5.8-.9zm-6.7 4.4c1-.4 2-.9 2.9-1.4.8.7 1.3 1.6 1.6 2.5.2.6.3 1.2.2 1.8 0 .6-.2 1.2-.3 1.8-.1.3-.1.6-.2 1s0 .8.1 1.1c.2.7.5 1.3.7 1.8.3.9.5 1.9.5 2.9-2.2 1-4.5 2.1-6.8 3v-1.4c-.1-.9-.3-1.7-.7-2.6l-.6-1.2-.3-.6c-.1-.2-.2-.3-.3-.5-.2-.3-.2-.7-.2-.9.1-.3.3-.5.6-.6l.3-.1v-.2c-.1-1-.2-2-.4-2.9-.2-.8-.4-1.5-.8-2.2 1.3-.3 2.5-.8 3.7-1.3zm-3.8 1.4c.2.7.4 1.5.4 2.2.1.9.1 1.8.1 2.6-.4.2-.8.5-.9.9-.2.6-.1 1.1.1 1.5l.3.6c.1.2.2.3.3.5.2.4.3.7.5 1.1.3.8.5 1.6.6 2.3v1.7c-.2.1-.4.2-.6.2l-3 1.2c0-1.1-.1-2.1-.3-3.2-.1-.7-.3-1.3-.7-2-.1-.2-.2-.3-.3-.5-.1-.1-.2-.2-.2-.4-.1-.2-.2-.5-.3-.8-.1-.6 0-1.2.2-1.8.2-.6.4-1.3.4-2-.1-1.2-.6-2.3-1.3-3.2 1.7.1 3.2-.4 4.7-.9zm-4.8 1.4c.1 0 .1 0 0 0 .7.9 1 2.1 1 3.1 0 1.2-1.1 2.3-.9 3.9 0 .4.1.8.3 1.1.1.2.2.3.3.5.1.1.2.2.2.4.2.5.4 1.1.5 1.8.2 1.1.3 2.2.3 3.4-1.1.4-2.1.7-3.2 1-1.2.4-2.4.6-3.7.8l-.4.1c0-1.9-.4-3.7-1.4-5.3-.3-.5-.6-.7-.7-1.1-.1-.3-.1-.7.1-1.1.3-.7.9-1.5 1.6-2l.1-.1v-.1c0-1 0-2-.1-2.9-.1-.8-.2-1.6-.5-2.4 2.3-.4 4.4-.7 6.5-1.1zm-54.5-.4c-.1-1.1.2-2.4.5-3.5.4-1.2.8-2.3 1.4-3.4.3-.5.6-1.1 1-1.5.2-.2.4-.4.7-.6.2-.2.5-.2.7.1 1.5 2.6 3.8 4.6 6.5 6 2.6 1.4 5.5 2.3 8.4 2.9 2.9.6 5.8 1 8.8 1.3 2.9.3 5.9.5 8.9.6 3.8.1 7.5 0 11.3-.4.1.3.1.6.1.9 0 .5.1 1 0 1.4 0 .9-.1 1.8-.2 2.7-.8.5-1.5 1.2-1.9 2.1-.2.5-.3 1.1-.1 1.7.1.3.2.5.4.8.2.3.3.4.4.6.4.7.8 1.6 1 2.5.2.8.3 1.6.3 2.4l-2.6.2c-2.5.4-5.1.8-7.6 1.1-2.6.4-5.1.7-7.6 1-.3 0-.6.1-.9.1-.1-.2-.1-.4-.1-.7.1-1.2.6-2.5 1-3.8v-.2c0-2.1.1-4.3 0-6.5l.1-3.2c.1-1.1.1-2.2.3-3.2-.4 1-.5 2.1-.7 3.2-.2 1.1-.3 2.1-.4 3.2-.2 2.1-.2 4.3-.3 6.4-.2.6-.5 1.2-.7 1.9-.2.7-.3 1.4-.4 2.1 0 .2 0 .6.1.8-.7 0-1.3.1-1.9.1-.3 0-.5 0-.8-.1-.3-.1-.7-.1-1-.2-.7-.1-1.3-.2-1.9-.3h-.3c0-.3-.1-.6-.1-.9-.2-1.1-.3-2.2-.2-3.3.1-.5.2-1 .5-1.6.2-.6.3-1.2.4-1.8.2-1.2.2-2.4.2-3.5.1-1.2-.1-2.4-.2-3.5s-.2-2.3.3-3.4c-.7 1-.7 2.2-.8 3.4 0 1.2 0 2.3-.1 3.4-.1 1.2-.1 2.3-.3 3.4-.1.5-.2 1.1-.4 1.6s-.4 1.1-.5 1.7c-.2 1.2 0 2.5.2 3.6 0 .2.1.4.1.6-2.2-.2-4.3-.4-6.5-.5 2.2.5 4.4.9 6.6 1.4v.1c0 .5-.2 1-.3 1.6-.1.6-.2 1.1-.2 1.8 0 .6.1 1.2.1 1.8.1.6.2 1.2.4 1.8l-4.5-1.6c-1.7-.6-3.4-1.2-5.2-1.8 0-.4.1-.8.2-1.2.1-.3.2-.7.3-1 .1-.3.3-.7.2-1.1 0-.8-.3-1.5-.5-2.1-.2-.7-.2-1.3-.2-2 .1-1.3.8-2.6 1.4-3.8.6-1.1 1.1-2.4 1.2-3.7.6.1 1.2.3 1.7.4 1.8.4 3.8.7 5.7.4-.9-.1-1.9-.2-2.8-.5-.9-.2-1.8-.5-2.7-.7-.7-.2-1.3-.4-2-.6-.2-.6-.3-1.2-.4-1.9-.1-.7-.2-1.4 0-2.1.2-.7.3-1.4.5-2.1.2-.7.4-1.4.9-2-.6.5-.9 1.2-1.2 1.9-.3.7-.6 1.4-.8 2.1-.2.8-.2 1.6-.2 2.3 0 .5.1 1 .2 1.5-.8-.2-1.6-.5-2.5-.7-1.4-.4-2.9-.9-4.4-1.3v-1.2c0-.7 0-1.4-.1-2.1-.1-.6.2-1.3.4-1.9.5-1.3.9-2.7 1.6-3.8-.5.5-.8 1.1-1.2 1.7-.3.6-.7 1.2-.9 1.9-.1.3-.3.6-.4 1-.1.2-.1.3-.2.5 0 .1-.1.2-.1.3v.3c0 .7-.1 1.4-.1 2.1v.9c-.7-.2-1.3-.4-2-.5-.1-.9-.2-1.8-.1-2.7 0-.9.1-1.9.2-2.8.2-.9.4-1.8.7-2.7.3-.9.7-1.7 1.3-2.5-.7.7-1.2 1.5-1.7 2.3-.4.9-.8 1.8-1 2.7-.2.9-.4 1.9-.4 2.9-.1.8 0 1.6 0 2.4-.8-.2-1.7-.4-2.6-.6.4-.8.2-1.9 0-2.8zm11.8 22.9c-1.9-.7-3.9-1.4-5.8-2-.1-1.4 0-2.7.2-4 .2-.7.4-1.6.6-2.4.1-.8.1-1.6 0-2.5v.1-6.3c1.3.5 2.7.9 4.1 1.3.9.3 1.9.5 2.8.8-.1 1.2-.5 2.4-1.1 3.5-.7 1.3-1.3 2.6-1.4 4.2-.1.8.1 1.6.3 2.2.2.7.6 1.4.6 2 0 .3 0 .6-.1.9-.1.4-.1.7-.1 1.1-.2.4-.2.7-.1 1.1zm-6.3-3.7c.1.6.2 1.1.3 1.6-1.4-.5-2.8-.9-4.1-1.4-.1-1.2-.2-2.4-.2-3.6.1-.6.1-1.4.4-1.8.5-.6.8-1.3 1-2 .4-1.4.3-3-.1-4.4-.1-.4-.2-.7-.3-1v-.8c.1-.5.6-1 1-1.3.7.3 1.4.6 2.2.8v6.6c.1.7.1 1.5.1 2.3 0 .8-.2 1.5-.3 2.4-.1 1-.1 1.8 0 2.6zm-49.7 14.3zm-7.4 39.5c.1-3.4.2-6.8.1-10.3-.1-1.7.1-3.6.2-5.4.1-1.8.3-3.7.2-5.6l-.1-.7-.1-.7c-.1-.3-.1-.8 0-1.2.1-.8.2-1.7.4-2.6.4-1.7 1-3.5 1.6-5.2.6-1.7 1.3-3.4 1.9-5.1.3-.8.8-1.6 1.3-1.8.1-.1.2-.1.3-.1.1 0 .2 0 .6.1.1 0 .3 0 .5-.1.1 0 .2-.1.2-.2 1.5 3 3 5.9 4.5 8.8.8 1.6 1.6 3.1 2.3 4.7.3.8.7 1.6.9 2.3.2.8.3 1.7.5 2.5.3 1.7.5 3.5.7 5.2l.7 5.3c.4 3.4.9 6.7 1.5 10.1H11.8zm132.3.2c-14.8.1-29.6.3-44.4.3-14.8.1-29.6 0-44.4-.1l-25.3-.2c.1-3.4.1-6.8-.1-10.2-.2-3.6-.5-7.1-1-10.7-.1-.9-.3-1.8-.5-2.7-.2-1-.7-1.8-1-2.6-.8-1.6-1.7-3.2-2.7-4.7-1.8-2.8-3.6-5.5-5.7-8.1.1-.1.1-.1.1-.2s.1-.2.1-.2v-.1c0-.1.1-.2.3-.3.6-.5 1.4-.9 2.2-1.3.8-.4 1.6-.8 2.5-1.2 1.6-.8 3.4-1.4 5.1-2.1 3.4-1.4 6.9-2.7 10.2-4.1 1.7-.7 3.4-1.5 5-2.3 1.6-.8 3.4-1.3 5.1-1.8 3.5-1 7.1-1.8 10.7-2.6l.2-.1v-.2c-.2-1.2-.3-2.4-.3-3.7v-.9c0-.3.1-.5.2-.8.3-.5.8-.8 1.3-1.3.9-.9 1.3-2.3 1.2-3.6 0-.6 0-1.2.1-1.8.1-.6.3-1.1.5-1.8.1-.2.1-.4.2-.6.8.4 1.5.7 2.3 1-.4.4-.8.9-1 1.5-.1.4-.1.8-.1 1.2.1.4.2.7.3 1.1.4 1.3.5 2.6.2 3.9-.2.6-.3 1.3-.7 1.8-.1.1-.2.4-.3.6-.1.2-.1.4-.1.6v1.1c.1 1.2.3 2.4.6 3.5-1.3-.4-2.7-.9-4.1-1.3l4.2 1.8v.1-.1c4.9 2.2 9.9 4.3 14.9 6.3l4.8 1.9 2.4 1 .6.2.7.2c.5.1.9.3 1.4.3 3.6.5 7.1.4 10.6.2 6.9-.5 13.8-1.4 20.6-2.8.8-.2 1.7-.4 2.6-.6.9-.2 1.8-.6 2.5-1 .1 0 .1-.1.2-.1v.3c0-.1.1-.2.1-.4 1.5-.9 2.8-1.9 4.1-2.9 2.3-2 4.5-4.1 6.6-6.4l.7.1 1.8.2c.9.3 1.9.7 2.8 1.1l2.9 1.2 5.8 2.4 5.9 2.4c1.9.8 4 1.5 6 2.2 4 1.3 8.1 2.4 12 3.9 1.9.7 3.9 1.5 5.5 2.5.8.5 1.5 1.2 2 1.9.3.4.5.8.7 1.1.1.2.2.4.2.6.1.2.1.4.1.5v.4c-1.3.6-2.5 1.3-3.7 2.1-1.4 1.1-2.8 2.2-4 3.7-.6.7-1 1.6-1.4 2.5-.4.8-.6 1.7-.9 2.5-.6 1.7-1 3.4-1.5 5.1-.4 1.7-.8 3.4-1.1 5.2l-.3 2.7c-.1.9-.1 1.8-.1 2.8.4 3.3.6 6.5.8 9.9h-27.2zm27.3-.2c.5-3.3.8-6.6.7-9.9.1-1.6.4-3.3.7-5 .3-1.7.7-3.4 1.1-5.1.4-1.7.8-3.4 1.3-5s.9-3.3 1.8-4.7c.9-1.4 2.1-2.6 3.3-3.8 1-.9 2-1.8 3.1-2.6v.2l.5.1s.2.2.4.5.3.6.5.9c.3.6.5 1.4.8 2.1.4 1.5.8 3.1 1 4.5.4 3.1.5 6.3.5 9.4 0 1.6 0 3.2-.2 4.6-.2 1.7-.2 3.3-.1 5 .1 2.9.4 5.8.6 8.6l-16 .2z" fill="#184f58" stroke-width="none" opacity="1"></path></g><g id="svga-group-head" transform="matrix(1,0,0,1,0,0)"><g id="svga-group-ears-left-move" transform="matrix(1,0,0,1,0,0)"><g id="svga-group-ears-left"><path id="SvgjsPath9782" d="M68.41 84.17s-2.58-5.02-4.51-7.21-6.82-5.79-7.98-5.54-6.31 14.04-6.82 16.1c-.52 2.06 6.18 8.63 6.82 9.79.64 1.16.52 3.99.39 4.76s5.15 2.83 7.85 2.19c2.71-.65 10.05-9.54 4.25-20.09z" fill="#f0c7b1" stroke-width="none" opacity="1" stroke="none"></path><path id="SvgjsPath9783" d="M68.03 90.6s-5.92-8.11-9.91-10.82c-3.99-2.7-5.67 7.73-5.41 8.76s4.64 6.31 6.31 7.08 7.33-.64 9.01-5.02z" fill="#e1ac8f" stroke-width="none" opacity="1" stroke="none"></path><path id="SvgjsPath9784" d="M49.09 87.02c-.06.22-.14.41-.16.67 0 .24.03.48.11.7.29.87.78 1.62 1.26 2.35.49.73 1.03 1.43 1.58 2.12 1.09 1.38 2.25 2.71 3.34 4.05.13.17.27.34.36.49.09.15.15.33.21.52.11.38.16.8.19 1.22.06.84.05 1.71-.04 2.55l-.04.31c-.02.4.16.52.24.63.21.22.41.34.61.47.41.25.82.44 1.24.61.84.35 1.69.62 2.57.82.88.2 1.78.33 2.72.29.47-.02.95-.08 1.43-.3.26-.08.43-.23.64-.35.21-.12.39-.27.57-.42 2.81-2.39 4.39-5.88 4.78-9.42.13-.89.07-1.78.07-2.67-.12-.88-.17-1.77-.43-2.62-.36-1.73-1.1-3.35-1.9-4.91-.79-1.57-1.65-3.09-2.54-4.6-.45-.76-.92-1.5-1.44-2.22-.53-.72-1.15-1.36-1.79-1.97a28.138 28.138 0 0 0-4.17-3.28c-.38-.24-.76-.48-1.18-.67-.2-.1-.43-.18-.65-.27-.24-.06-.49-.15-.87-.07-.46.23-.48.42-.65.62-.13.2-.25.39-.36.59-.22.39-.42.79-.61 1.19-1.46 3.22-2.59 6.54-3.8 9.83l-.87 2.48-.42 1.26zm.13.69c.01-.17.09-.4.14-.6l.4-1.25c.28-.83.59-1.65.9-2.47.61-1.64 1.28-3.26 1.97-4.86.69-1.6 1.41-3.2 2.19-4.75.19-.39.39-.77.6-1.14.11-.18.22-.36.33-.53.06-.09.12-.15.17-.23.03-.04.08-.07.09-.08.03 0 .08 0 .14.01.09.02.17.04.26.07.18.07.37.14.56.24.37.18.75.39 1.12.6 1.47.89 2.86 1.95 4.2 3.05.66.56 1.3 1.14 1.85 1.8.55.66 1.06 1.38 1.55 2.1.97 1.45 1.83 2.98 2.66 4.52 1.61 3.08 2.43 6.67 1.76 10.07-.3 1.69-.84 3.33-1.65 4.84-.81 1.49-1.83 2.91-3.12 3.96-.16.14-.32.26-.49.36-.17.09-.34.24-.51.28-.31.16-.72.21-1.12.22-.81.03-1.66-.09-2.49-.26-.83-.18-1.65-.42-2.44-.73a9.77 9.77 0 0 1-1.13-.53c-.17-.1-.34-.22-.44-.31l-.03-.03.03-.26c.07-.91.08-1.8-.01-2.7a7.4 7.4 0 0 0-.26-1.36c-.08-.23-.16-.46-.31-.69a5 5 0 0 0-.43-.55c-1.16-1.35-2.37-2.59-3.51-3.92-.57-.66-1.12-1.33-1.64-2.03-.51-.7-1.01-1.43-1.28-2.23-.03-.22-.06-.42-.06-.61z" fill="#e1ac8f" stroke-width="none" opacity="1" stroke="none"></path><path id="SvgjsPath9785" d="M54.5 82.01c.34-.68.71-1.4 1.37-1.89.31-.25.82-.37 1.21-.16.39.19.65.53.87.83.92 1.24 1.7 2.57 2.38 3.94 1.31 2.76 2.4 5.61 3.21 8.56l-.08.03c-1.35-2.74-2.56-5.51-3.83-8.25-.62-1.37-1.2-2.78-1.98-4.06-.19-.33-.41-.61-.7-.78-.29-.16-.64-.09-.93.11-.56.44-.91 1.14-1.21 1.81-.55 1.39-.85 2.89-.94 4.35-.02.36-.02.73.04 1.06.02.17.06.31.11.43.09.16.16.32.26.47.37.63.8 1.24 1.25 1.84.45.6.9 1.2 1.38 1.78l.71.87c.06.07.12.13.18.2.2-.53.34-1.18.48-1.78l.43-2.13c-.6-.94-1.19-1.89-1.75-2.86l.07-.05c.75.89 1.48 1.79 2.19 2.7l.06.07-.01.12A29.5 29.5 0 0 1 59 91.5c-.14.77-.2 1.49-.53 2.33-.04.07-.05.11-.12.2-.03.04-.05.07-.13.13-.03.03-.07.05-.1.07-.06.03-.14.05-.21.05-.13.02-.29-.07-.35-.11l-.07-.06a.769.769 0 0 1-.13-.12c-.15-.15-.28-.29-.41-.43-.26-.29-.51-.58-.76-.88-.48-.6-.96-1.2-1.39-1.84-.44-.63-.86-1.28-1.24-1.97-.1-.17-.18-.36-.27-.54-.09-.24-.14-.46-.16-.67-.04-.42-.01-.82.03-1.21.18-1.57.68-3.04 1.34-4.44z" fill="#c27b55" stroke-width="none" opacity="1" stroke="none"></path></g></g><g id="svga-group-ears-right-move" transform="matrix(1,0,0,1,0,0)"><g id="svga-group-ears-right"><path id="SvgjsPath9786" d="M131.59 84.17s2.58-5.02 4.51-7.21 6.82-5.79 7.98-5.54 6.31 14.04 6.82 16.1c.52 2.06-6.18 8.63-6.82 9.79-.64 1.16-.52 3.99-.39 4.76.13.77-5.15 2.83-7.85 2.19-2.71-.65-10.05-9.54-4.25-20.09z" fill="#f0c7b1" stroke-width="none" opacity="1" stroke="none"></path><path id="SvgjsPath9787" d="M131.97 90.6s5.92-8.11 9.91-10.82c3.99-2.7 5.67 7.73 5.41 8.76-.26 1.03-4.64 6.31-6.31 7.08s-7.33-.64-9.01-5.02z" fill="#e1ac8f" stroke-width="none" opacity="1" stroke="none"></path><path id="SvgjsPath9788" d="m150.49 85.77-.87-2.48c-1.22-3.29-2.34-6.61-3.8-9.83-.19-.4-.39-.8-.61-1.19-.11-.2-.22-.39-.36-.59-.17-.2-.19-.39-.65-.62-.38-.08-.63.01-.87.07-.23.08-.45.16-.65.27-.42.19-.8.43-1.18.67-1.5.97-2.89 2.06-4.17 3.28-.64.61-1.26 1.25-1.79 1.97-.53.71-.99 1.46-1.44 2.22-.89 1.51-1.76 3.04-2.54 4.6-.8 1.56-1.54 3.17-1.9 4.91-.26.85-.3 1.74-.43 2.62 0 .89-.06 1.78.07 2.67.38 3.54 1.96 7.03 4.78 9.42.17.15.36.3.57.42.21.12.38.27.64.35.49.23.96.28 1.43.3.94.04 1.84-.09 2.72-.29.88-.2 1.74-.47 2.57-.82.42-.18.83-.37 1.24-.61.2-.13.4-.25.61-.47.08-.12.26-.23.24-.63l-.04-.31c-.09-.84-.09-1.71-.04-2.55.03-.42.09-.84.19-1.22.06-.19.12-.37.21-.52.1-.15.23-.33.36-.49 1.1-1.34 2.26-2.67 3.34-4.05.55-.69 1.08-1.39 1.58-2.12.49-.74.97-1.48 1.26-2.35.07-.22.11-.45.11-.7-.02-.27-.1-.45-.16-.67l-.42-1.26zm.19 2.53c-.27.8-.77 1.53-1.28 2.23s-1.07 1.37-1.64 2.03c-1.14 1.33-2.36 2.57-3.51 3.92-.14.17-.29.34-.43.55-.14.23-.23.46-.31.69a7.4 7.4 0 0 0-.26 1.36c-.09.9-.09 1.79-.01 2.7l.03.26c-.01.01-.01.02-.03.03-.1.1-.27.22-.44.31-.35.2-.73.38-1.13.53-.79.31-1.61.55-2.44.73-.83.17-1.67.29-2.49.26-.4-.01-.81-.07-1.12-.22-.17-.04-.34-.18-.51-.28-.17-.09-.33-.22-.49-.36-1.29-1.05-2.31-2.47-3.12-3.96-.81-1.5-1.35-3.15-1.65-4.84-.67-3.4.14-6.99 1.76-10.07.83-1.54 1.69-3.07 2.66-4.52.49-.72 1-1.43 1.55-2.1.55-.66 1.19-1.24 1.85-1.8 1.34-1.1 2.73-2.16 4.2-3.05.37-.22.74-.43 1.12-.6.19-.1.37-.17.56-.24.09-.03.17-.04.26-.07.07-.01.11-.01.14-.01.01.01.06.05.09.08.06.08.12.14.17.23.12.16.22.35.33.53.21.37.41.75.6 1.14.78 1.55 1.5 3.15 2.19 4.75.7 1.6 1.36 3.22 1.97 4.86.31.82.62 1.64.9 2.47l.4 1.25c.06.2.13.43.14.6.04.21.01.41-.06.61z" fill="#e1ac8f" stroke-width="none" opacity="1" stroke="none"></path><path id="SvgjsPath9789" d="M145.5 82.01c-.34-.68-.71-1.4-1.37-1.89-.31-.25-.82-.37-1.21-.16-.39.19-.65.53-.87.83-.92 1.24-1.7 2.57-2.38 3.94-1.31 2.76-2.4 5.61-3.21 8.56l.08.03c1.35-2.74 2.56-5.51 3.83-8.25.62-1.37 1.2-2.78 1.98-4.06.19-.33.41-.61.7-.78.29-.16.64-.09.93.11.56.44.91 1.14 1.21 1.81.55 1.39.85 2.89.94 4.35.02.36.01.73-.04 1.06-.02.17-.06.31-.11.43-.09.16-.16.32-.26.47-.37.63-.8 1.24-1.25 1.84-.45.6-.9 1.2-1.38 1.78l-.71.87c-.06.07-.12.13-.18.2-.2-.53-.34-1.18-.48-1.78l-.43-2.13c.6-.94 1.19-1.89 1.75-2.86l-.07-.05c-.75.89-1.48 1.79-2.19 2.7l-.06.07.01.12c.06.76.15 1.52.27 2.28.14.77.2 1.49.53 2.33.04.07.05.11.12.2.03.04.05.07.13.13.03.03.07.05.1.07.06.03.14.05.21.05.13.02.29-.07.35-.11l.07-.06c.05-.04.1-.08.13-.12.15-.15.28-.29.41-.43.26-.29.51-.58.76-.88.48-.6.96-1.2 1.39-1.84.44-.63.86-1.28 1.24-1.97.1-.17.18-.36.27-.54.09-.24.14-.46.16-.67.04-.42.01-.82-.03-1.21-.18-1.57-.68-3.04-1.34-4.44z" fill="#c27b55" stroke-width="none" opacity="1" stroke="none"></path></g></g><g id="svga-group-faceshape-wrap"><g id="svga-group-faceshape-single"><path id="SvgjsPath9997" d="M140.4 54.9c-2.2-10-6.3-16-15.2-20.8-9.3-5-25.2-4.8-25.2-4.8s-15.9-.2-25.2 4.8c-8.8 4.8-13 10.8-15.2 20.8-.9 4 0 13.6 0 13.6s1.6 12.3 1.7 18.2c.2 5.8 1.4 18 2.2 25.1.98 7.08 1.46 7.68 1.46 7.68 12.25 14.4 22.69 25.32 25.74 27.9 2.95 2.5 14.4 2.34 17.66.34 3.46-2.12 9.44-8.42 26.53-27.68 0 0 .27-1.05 1.07-8.15s2.13-16.31 2.54-25.19c.2-5.8 1.7-18.2 1.7-18.2.1-.1 1.1-9.6.2-13.6z" fill="#f0c7b1" stroke-width="none" opacity="1"></path><path id="SvgjsPath9998" d="M140.4 54.9c-2.2-10-6.3-16-15.2-20.8-9.3-5-25.2-4.8-25.2-4.8s-15.9-.2-25.2 4.8c-8.8 4.8-13 10.8-15.2 20.8-.9 4 0 13.6 0 13.6s1.6 12.3 1.7 18.2c.2 5.8 1.4 18 2.2 25.1.98 7.08 1.46 7.68 1.46 7.68 12.25 14.4 22.69 25.32 25.74 27.9 2.95 2.5 14.4 2.34 17.66.34 3.46-2.12 9.44-8.42 26.53-27.68 0 0 .27-1.05 1.07-8.15s2.13-16.31 2.54-25.19c.2-5.8 1.7-18.2 1.7-18.2.1-.1 1.1-9.6.2-13.6zm-.03 10.19-.33 3.24-.06.13c-.55 4.29-1.13 8.57-1.59 12.87-.24 2.14-.41 4.33-.56 6.47-.17 2.14-.39 4.28-.63 6.42-.49 4.28-1.14 8.54-1.72 12.82-.3 2.13-.6 4.3-.86 6.43l-.43 3.2-.23 1.59-.13.78-.08.41-10.86 12.02c-3.72 4.04-7.41 8.17-11.32 11.92-.98.92-1.98 1.83-3 2.6-.25.2-.51.36-.77.54-.14.1-.57.32-.71.37-.53.22-1.14.39-1.76.52-2.52.53-5.25.65-7.89.51-1.32-.09-2.64-.24-3.86-.56-.6-.16-1.19-.36-1.66-.61-.1-.07-.51-.34-.64-.46-.25-.21-.49-.43-.74-.66-1.98-1.83-3.9-3.82-5.82-5.78-3.83-3.94-7.58-7.98-11.27-12.06l-5.53-6.13-1.36-1.54-.68-.77-.17-.19s-.17-.3-.2-.42c-.36-1.24-.61-2.62-.85-3.96-.5-2.7-.79-5.41-1.12-8.16-.31-2.74-.65-5.47-.9-8.22-.26-2.74-.51-5.49-.7-8.23-.21-2.73-.23-5.5-.48-8.26-.21-2.76-.48-5.5-.78-8.25-.27-2.76-.67-5.47-.76-8.21-.12-2.74-.16-5.5.06-8.19.06-.67.14-1.34.28-1.97.14-.64.33-1.31.49-1.97.37-1.31.78-2.6 1.27-3.85.98-2.51 2.25-4.89 3.93-6.95 1.64-2.09 3.68-3.83 5.88-5.34 1.1-.76 2.26-1.43 3.44-2.08 1.16-.62 2.38-1.12 3.64-1.58 2.52-.9 5.16-1.51 7.83-1.97 2.67-.48 5.38-.8 8.09-1 2.72-.21 5.43-.32 8.16-.24 5.45.14 10.94.63 16.2 2.02 2.64.7 5.16 1.68 7.52 3.07 2.36 1.36 4.6 2.96 6.51 4.92 1.86 1.99 3.45 4.26 4.57 6.77 1.14 2.5 1.94 5.14 2.54 7.83.23 1.1.29 2.24.33 3.37.03 1.13.01 2.27-.03 3.4-.1 1.13-.16 2.26-.26 3.39z" fill="#c27b55" stroke-width="none" opacity="1"></path></g></g><g id="svga-group-mouth-single-move" transform="matrix(1,0,0,1,0,0)"><g id="svga-group-mouth-single"><path id="SvgjsPath9956" d="M119.9 121.9c-.2-.3-.6-.6-.9-.8-.3-.1-.8-.1-.8.4 0 .3.2.6.5.8-.66 1.22-2.4 1.46-3.8 1.56-1.5.1-2.71.22-4.49-.17-3.42-.92-6.52-1.82-9.62-1.62-2.9.1-5.13.98-7.93 1.78-3.3.9-7.66 2.74-9.96-.66.3-.2.6-.4.8-.7.4-.4 0-1-.5-.9-1 .3-2.3 1.6-2.2 2.7 0 .2.3.4.5.3.4-.3.7-.7 1-1 .9 1.7 2.7 2.5 4.7 2.7 2 .1 3.9-.5 5.9-.9 2.2-.5 4.4-.7 6.6-.8 4.1-.1 8.1.2 12.2.4 2.4.1 5.7.4 7.5-1.5.1.3.2.6.5.8.1.1.3 0 .4-.1.7-.59 0-1.69-.4-2.29z" fill="#da7c87" stroke-width="none" opacity="1" stroke="none"></path><path id="SvgjsPath9957" d="M105.6 128.4c-3.4.2-6.6.7-10 .5-.3 0-.3.4-.1.4 3.2.7 7 .9 10.2-.2.4-.1.4-.7-.1-.7z" fill="#d19271" stroke-width="none" opacity="1" stroke="none"></path></g></g><g id="svga-group-eyes-left-move" transform="matrix(1,0,0,1,0,0)"><g id="svga-group-eyes-left"><g id="svga-group-eyesback-left"><path id="SvgjsPath9828" d="M80.2 74.2c7.5 0 13.5 5.8 13.5 13s-6 13-13.5 13-13.5-5.8-13.5-13 6-13 13.5-13z" fill="#ffffff" stroke-width="none" opacity="1"></path></g><g id="svga-group-eyesiriswrapper-left" transform="matrix(1,0,0,1,0,0)"><g id="svga-group-eyesiriscontrol-left" transform="matrix(1,0,0,1,0,0)"><g id="svga-group-eyesiris-left"><path id="SvgjsPath9905" d="M80.2 81.6c3.1 0 5.6 2.5 5.6 5.6s-2.5 5.6-5.6 5.6-5.6-2.5-5.6-5.6 2.5-5.6 5.6-5.6z" fill="#4e60a3" stroke-width="none" opacity="1" stroke="none"></path><path id="SvgjsPath9906" d="M80.2 84.2c1.7 0 3 1.3 3 3s-1.3 3-3 3-3-1.3-3-3 1.3-3 3-3z" fill="#000000" stroke-width="none" opacity="1"></path><path id="SvgjsPath9907" d="m79.5 84.8-.6-.6c-.2-.2-.5-.3-.8-.3s-.6.1-.8.3c-.2.2-.3.5-.3.8s.1.6.3.8l.6.6c.2.2.5.3.7.3.3 0 .6-.1.7-.3.6-.6.6-1.2.2-1.6zm2.7 5.1c1 0 1-1.5 0-1.5-.9 0-.9 1.5 0 1.5z" fill="#ffffff" stroke-width="none" opacity="1"></path></g></g></g><g id="svga-group-eyesfront-left"><path id="SvgjsPath9836" d="M80.2 73.7c-7.8 0-14.1 6.1-14.1 13.6s6.3 13.6 14.1 13.6 14.1-6.1 14.1-13.6S88 73.7 80.2 73.7zm-4.9 20.2c-4.8-1.7-6.4-6.7-7.2-10.1-.9-3.5 13.8-3.5 17.5-.4 3.8 3 5.3 7.3 5.5 9.6.1-.1-11 2.6-15.8.9z" fill="#f0c7b1" stroke-width="none" opacity="1" stroke="none"></path><path id="SvgjsPath9837" d="M91.1 92.5c-.1-.5-.1-1-.3-1.4l-.3-.9c-.5-1.9-1.5-4.5-3-6.2-1.2-1.3-4.1-4.4-9-4.4s-8.2 1.6-8.8 1.9c-.2.1-.5.3-.7.5-.4.2-.8.5-1.1 1-.1.2-.1.3-.1.5-.1.1-.1.2-.1.2h.1c0 .1 0 .3.1.4.1.3.2.6.2.9l.6 1.8c.4 1.2.9 2.3 1.6 3.4.7 1.1 1.5 2 2.5 2.8s2.2 1.3 3.4 1.6c2.5.5 5 .3 7.5 0s4.9-.8 7.3-1.5c.2-.2.2-.4.1-.6zm0 .4c-2.4.4-4.9.8-7.3 1.1-1.2.1-2.5.2-3.7.2-1.2 0-2.5 0-3.7-.2-2.4-.4-4.6-1.9-5.8-4-.7-1-1.2-2.2-1.6-3.3-.2-.6-.4-1.2-.5-1.8-.1-.3-.2-.6-.2-.9 0-.2-.1-.3-.1-.4 1.4-.4 6.6-1.9 10.5-1.9 4.5.1 7.9 3.6 9.3 5.1 1.2 1.1 3 5.1 3.1 6.1z" fill="#000000" stroke-width="none" opacity="1" stroke="none"></path></g></g></g><g id="svga-group-eyes-right-move" transform="matrix(1,0,0,1,0,0)"><g id="svga-group-eyes-right"><g id="svga-group-eyesback-right"><path id="SvgjsPath9829" d="M119.8 74.2c7.5 0 13.5 5.8 13.5 13s-6 13-13.5 13-13.5-5.8-13.5-13 6-13 13.5-13z" fill="#ffffff" stroke-width="none" opacity="1"></path></g><g id="svga-group-eyesiriswrapper-right" transform="matrix(1,0,0,1,0,0)"><g id="svga-group-eyesiriscontrol-right" transform="matrix(1,0,0,1,0,0)"><g id="svga-group-eyesiris-right"><path id="SvgjsPath9908" d="M119.8 82.3c2.7 0 4.9 2.2 4.9 4.9s-2.2 4.9-4.9 4.9-4.9-2.2-4.9-4.9 2.2-4.9 4.9-4.9z" fill="#4e60a3" stroke-width="none" opacity="1" stroke="none"></path><path id="SvgjsPath9909" d="M119.8 84.6c1.4 0 2.6 1.2 2.6 2.6s-1.2 2.6-2.6 2.6-2.6-1.2-2.6-2.6 1.2-2.6 2.6-2.6z" fill="#000000" stroke-width="none" opacity="1"></path><path id="SvgjsPath9910" d="M119.2 85.1c-.2-.2-.3-.4-.5-.5-.2-.2-.4-.3-.7-.3-.2 0-.5.1-.7.3-.2.2-.3.4-.3.7 0 .2.1.5.3.7.2.2.4.3.5.5.2.2.4.3.7.3.2 0 .5-.1.7-.3.3-.5.3-1.1 0-1.4zm2.4 4.5c.8 0 .9-1.3 0-1.3-.8-.1-.8 1.3 0 1.3z" fill="#ffffff" stroke-width="none" opacity="1"></path></g></g></g><g id="svga-group-eyesfront-right"><path id="SvgjsPath9838" d="M119.8 73.7c-7.8 0-14.1 6.1-14.1 13.6s6.3 13.6 14.1 13.6 14.1-6.1 14.1-13.6-6.3-13.6-14.1-13.6zm5.3 19.5c-4.4 1.8-15 .1-15 .1.1-1.9 1.3-5.8 4.7-8.7 3.4-2.9 17.2-3.8 16.6-.7-.7 3.1-1.9 7.6-6.3 9.3z" fill="#f0c7b1" stroke-width="none" opacity="1" stroke="none"></path><path id="SvgjsPath9841" d="M131.6 84.1s0-1.3-.9-1.7c-.6-.2-4.4-1-9.1-.7-2.6.2-4.6 1.1-6.1 2.1-.3.2-.6.3-.8.5-.9.8-1.7 1.6-2.4 2.6-1.3 1.9-2.3 4.1-2.3 6.4 0 .3.1.8.1.8s.1-.3.2-.7c2.2.4 4.3.7 6.6.8 1.2.1 2.3.1 3.4.1 1.2 0 2.3-.2 3.4-.4s2.2-.8 3.2-1.4c.9-.7 1.7-1.6 2.4-2.5.6-1 1.1-2 1.5-3.1.2-.5.3-1.1.5-1.7l.2-.8c0-.1 0-.1.1-.2v-.1zm-.4.1-.2.8c-.1.6-.3 1.1-.4 1.7-.4 1.1-.8 2.1-1.4 3.1-1.2 1.9-3.3 3.2-5.5 3.6-.6.1-1.1.2-1.7.3-.6 0-1.1.1-1.7.1-1.1.1-2.3.1-3.4 0-2.2-.1-4.4-.2-6.6-.4.4-1.5 1.5-4.6 2.4-5.7 1.2-1.5 4.2-4.5 8.5-4.9 3.6-.3 8.6.8 10 1.2v.2z" fill="#000000" stroke-width="none" opacity="1" stroke="none"></path></g></g></g><g id="svga-group-facehighlight-single"></g><g id="svga-group-eyebrows-left-move" transform="matrix(1,0,0,1,0,0)"><g id="svga-group-eyebrows-left-rotate" transform="matrix(1,1.7453292519943295e-9,-1.7453292519943295e-9,1,1.227825237037905e-7,-1.388480086461641e-7)"><g id="svga-group-eyebrows-left"><path id="SvgjsPath9750" d="M91.5 72.22s-1.28 2.06-2.36 1.59c-1.08-.48-6.27-3.19-9.56-2.78-3.29.41-5.17 2.39-5.17 2.39l-1.48.75.48.39s-3.13 2.59-3.97 2.55c-.84-.04-2.04-1.27-1.97-3.59.07-2.32 3.08-5.09 3.08-5.09s-.48.18-1.49.66c0 0 1.23-1.86 4.52-3.33 3.3-1.47 9.08-1.46 10.9-.54L84 64.16s4.38 1.8 5.44 3.25l.17-1.09c-.01-.01 2.89 2.54 1.89 5.9z" fill="#2a232b" stroke-width="none" opacity="1" stroke="none"></path><path id="SvgjsPath9751" d="M91.49 68.91c-.18-.54-.44-1.04-.74-1.5-.3-.46-.63-.89-1.03-1.27l-.24-.24-.07.37-.11.62c-.3-.32-.63-.57-.97-.8-.45-.31-.91-.59-1.38-.85-.94-.52-1.88-.99-2.86-1.42l-.75-.33.37.82.13.29c-.45-.13-.9-.21-1.35-.28-.7-.09-1.4-.13-2.1-.13-1.4 0-2.79.12-4.17.4-.69.14-1.37.32-2.04.56-.67.25-1.31.56-1.94.91-.63.35-1.23.76-1.8 1.23-.57.47-1.11.97-1.57 1.63l-.57.81.85-.4.47-.22c-.59.67-1.12 1.39-1.57 2.19-.31.58-.58 1.22-.67 1.92-.07.7 0 1.4.21 2.07.21.66.58 1.27 1.11 1.65.27.18.58.32.92.25.31-.08.58-.23.85-.37 1.06-.62 2.06-1.35 3.04-2.11l.2-.16-.21-.18-.2-.17 1.19-.57.02-.01.04-.03c.56-.52 1.23-.95 1.91-1.29.68-.35 1.4-.61 2.13-.78.74-.17 1.47-.28 2.22-.21.75.06 1.5.2 2.25.38 1.49.39 2.96.93 4.41 1.55l1.08.48c.18.08.36.16.55.23.21.08.44.07.64.01.4-.13.72-.41 1.01-.71.29-.31.53-.65.75-1.02.15-.53.28-1.09.25-1.66.02-.56-.07-1.13-.26-1.66zm.1 2.7-.04.2-.08.4c-.23.33-.51.64-.8.92-.29.27-.62.51-.96.59-.17.03-.35.03-.5-.04-.17-.08-.35-.17-.53-.26l-1.07-.53c-1.43-.69-2.9-1.32-4.42-1.75-.76-.21-1.54-.38-2.33-.44l-.6-.02c-.2 0-.4.02-.6.03a9.226 9.226 0 0 0-3.41 1.05c-.7.38-1.35.84-1.95 1.43l-1.44.78-.31.16.28.22.28.22c-.87.74-1.77 1.46-2.72 2.05-.26.15-.52.3-.79.37-.25.06-.54-.06-.78-.22-.49-.34-.84-.92-1.02-1.54-.19-.62-.25-1.31-.18-1.95.08-.64.35-1.24.67-1.79.65-1.09 1.5-2.04 2.4-2.87l.95-.87-1.14.47-.45.19c.23-.21.47-.42.71-.61.55-.43 1.14-.8 1.75-1.13.61-.33 1.24-.62 1.87-.84.64-.21 1.3-.38 1.97-.5.67-.12 1.34-.21 2.02-.26.68-.07 1.36-.08 2.04-.09.68.01 1.36.04 2.03.12.66.09 1.35.2 1.92.47l.82.38-.42-.88-.11-.24c.7.3 1.39.62 2.07.97.46.24.92.5 1.36.79.43.28.87.6 1.18.98l.31.38.07-.49.1-.7c.27.27.52.57.75.88.3.42.56.89.76 1.38.21.49.32 1.03.37 1.57l.02.41-.03.41c-.01.06-.01.13-.02.2z" fill="#1b141c" stroke-width="none" opacity="1" stroke="none"></path></g></g></g><g id="svga-group-eyebrows-right-move" transform="matrix(1,0,0,1,0,0)"><g id="svga-group-eyebrows-right-rotate" transform="matrix(1,1.7453292519943295e-9,-1.7453292519943295e-9,1,1.2733161725009268e-7,-2.111723063080717e-7)"><g id="svga-group-eyebrows-right"><path id="SvgjsPath9752" d="M109.22 76.81s1.57 1.57 2.57.99 5.71-3.72 9.02-3.89c3.31-.17 5.46 1.24 5.46 1.24l1.57.41-.41.41s3.48 1.74 4.3 1.57c.83-.17 1.82-1.41 1.41-3.39-.41-1.99-3.81-3.89-3.81-3.89s.5.08 1.57.33c0 0-1.49-1.41-4.96-2.15s-9.18.17-10.84 1.24l.33-.99s-4.05 2.23-4.88 3.64l-.33-.91c-.01.01-2.49 2.66-1 5.39z" fill="#2a232b" stroke-width="none" opacity="1" stroke="none"></path><path id="SvgjsPath9753" d="M133.17 73.9c-.19-.59-.55-1.09-.95-1.55-.56-.62-1.2-1.16-1.88-1.64l.5.12.9.21-.69-.61c-.56-.49-1.16-.84-1.8-1.15-.63-.31-1.29-.57-1.96-.77-.67-.2-1.35-.37-2.05-.48-.7-.1-1.4-.15-2.1-.16-1.4-.03-2.79.09-4.17.31-.69.11-1.37.25-2.05.44-.43.13-.87.27-1.29.45l.09-.27.25-.76-.69.4c-.9.52-1.76 1.07-2.61 1.66-.42.3-.83.61-1.23.95-.3.25-.58.54-.83.86l-.21-.54-.12-.31-.21.24c-.33.39-.6.81-.83 1.25-.23.44-.4.91-.5 1.4-.11.49-.11 1-.04 1.49.05.5.27.96.5 1.39.28.29.57.54.89.76.33.21.69.4 1.11.45.21.02.43-.01.63-.11.18-.09.34-.19.51-.29l1-.58c1.34-.76 2.71-1.45 4.12-2.02.71-.27 1.43-.52 2.16-.68.73-.17 1.47-.2 2.23-.17.75.03 1.5.15 2.22.34.72.19 1.45.45 2.08.81l.04.02.03.01 1.26.3-.17.18-.18.19.22.1c1.08.5 2.17.97 3.31 1.34.29.08.58.17.9.19.34 0 .63-.17.87-.36.47-.41.74-1 .85-1.6.1-.6.06-1.22-.11-1.81zm-.09 1.78c-.09.56-.35 1.12-.78 1.48-.21.17-.48.32-.74.31-.27-.02-.56-.11-.84-.19-1.03-.35-2.02-.84-2.99-1.33l.24-.23.24-.23-.33-.09-1.54-.44a8.24 8.24 0 0 0-2.14-.92 10.3 10.3 0 0 0-2.34-.38c-.4-.02-.79-.02-1.19.01-.2.02-.4.04-.6.07l-.59.11c-.77.18-1.51.44-2.23.75-1.44.61-2.79 1.38-4.11 2.19l-.98.62c-.16.1-.32.22-.48.31-.14.08-.31.12-.49.11-.36-.02-.71-.17-1.04-.36-.32-.19-.64-.42-.92-.67l-.14-.33-.07-.16c-.02-.06-.03-.12-.05-.17l-.09-.35-.04-.35c-.04-.47 0-.95.13-1.41.13-.46.31-.89.54-1.31.18-.31.39-.6.61-.88l.2.59.14.41.25-.37c.25-.38.63-.72 1.02-1.03.39-.31.8-.61 1.22-.89.62-.41 1.25-.79 1.9-1.16l-.08.22-.28.82.76-.45c.53-.32 1.19-.53 1.83-.7a26 26 0 0 1 1.99-.42c.67-.1 1.35-.2 2.02-.25.68-.06 1.36-.09 2.03-.09.68 0 1.35.04 2.02.12.66.09 1.32.24 1.97.43.65.19 1.29.41 1.9.7.27.12.54.26.8.41l-.47-.09-1.2-.23 1.06.6c1.01.57 1.99 1.25 2.8 2.09.4.42.76.89.93 1.43.19.53.24 1.13.15 1.7z" fill="#1b141c" stroke-width="none" opacity="1" stroke="none"></path></g></g></g><g id="svga-group-beardwrap"><g id="svga-group-beard-single-move" transform="matrix(1,0,0,1,0,0)"><g id="svga-group-beard-single"></g></g></g><g id="svga-group-mustache-single-move" transform="matrix(1,0,0,1,0,0)"><g id="svga-group-mustache-single"></g></g><g id="svga-group-nose-single-move" transform="matrix(1,0,0,1,0,0)"><g id="svga-group-nose-single"><path id="SvgjsPath9940" d="M109.5 107.91c-1.24.49-2.69.36-3.82.07s-2.48.69-2.95 1.13c-.47.44-1.71 1.71-3.93.91-2.22-.8-2.15-1.57-3.35-1.86-1.2-.29-2.07.66-3.42.29-1.35-.36-1.97-1.38-1.86-2.8.11-1.42.82-3.92 1.48-4.96s10.31-4.3 17.37.43c0 0 1.49 2.39 1.46 4.32s-.14 2.14-.98 2.47z" fill="#f0c7b1" stroke-width="none" opacity="1" stroke="none"></path><path id="SvgjsPath9941" d="M91.66 100.69c-.5 1.38-.97 2.79-1.14 4.22-.08.7-.12 1.45.12 2.05l.09.22c.04.07.09.13.13.2.04.07.09.13.15.19.06.05.1.12.16.16.23.21.53.32.83.39.63.13 1.33.02 2.02-.13l.53-.12.28-.06.15-.03.18-.02c.49-.03.91.14 1.27.31.73.36 1.3.86 1.88 1.29l.21.16c.07.04.12.08.19.12.13.07.27.13.42.17.3.09.63.13.95.12.64-.01 1.28-.21 1.77-.6l.17-.16.21-.2c.14-.13.29-.26.45-.38.31-.24.64-.46 1.01-.64.36-.17.75-.31 1.17-.37a2.43 2.43 0 0 1 1 .07l.29.11c.25.1.61.15.95.17.34.02.69.01 1.04-.03.68-.08 1.4-.27 1.8-.7.19-.19.27-.52.31-.86.04-.34.03-.69-.01-1.05-.14-1.43-.62-2.84-1.24-4.17.8 1.24 1.38 2.63 1.68 4.11.07.37.1.76.09 1.15-.02.39-.08.82-.37 1.2-.28.35-.66.56-1.03.71-.37.15-.75.24-1.14.31-.38.07-.77.09-1.16.09-.4-.01-.78-.04-1.22-.19l-.22-.08c-.07-.01-.13-.03-.2-.03-.14-.02-.29 0-.44.02-.3.05-.61.17-.91.32-.29.16-.58.34-.85.56-.13.11-.26.22-.39.34l-.19.18-.24.21c-.66.54-1.5.8-2.32.82-.41.01-.83-.05-1.23-.17-.2-.06-.4-.15-.59-.25-.09-.05-.19-.12-.28-.18l-.23-.17c-.59-.45-1.15-.92-1.73-1.23-.29-.15-.59-.26-.84-.25h-.09l-.12.02-.26.05-.55.11c-.74.14-1.54.25-2.35.04-.4-.11-.8-.29-1.11-.6-.3-.31-.55-.64-.66-1.06-.25-.8-.14-1.58 0-2.32.16-.74.39-1.45.66-2.14.29-.68.6-1.35.95-2z" fill="#c27b55" stroke-width="none" opacity="1" stroke="none"></path><path id="SvgjsPath9942" d="M102.11 103.91c-.52-.52-1.24-.61-1.94-.46-.09.02-.17.04-.25.06-.29-.19-.59-.32-.98-.32-.43 0-.95.19-1.25.52-.67.73-.68 1.78 0 2.5 1.14 1.22 3.69 1.57 4.66-.08.4-.68.33-1.65-.24-2.22z" fill="#f8d5c3" stroke-width="none" opacity="1" stroke="none"></path></g></g><g id="svga-group-hair-front"><path id="SvgjsPath9977" d="M98.1 20.4s-7.2-5.9-16.9-6.4l1.7 3s-14.6-.6-27.6 11.1l3.6 2.2s-9.5 8.5-11 21c-1.4 12.5-.5 24.1-.5 24.1s4.5-1.4 5.8-2.7l1.6-4.4 3.3 10.3 5.9 5.5s-2-8.5-1.7-14.6c.3-6.1.6-7.8.6-7.8l.6 4.5s1.2 4.1 5 5.5c0 0-1.7-12.1.5-17.7 0 0 0 8.8 2.7 11.6 0 0 2.3-1.6 3.1-3s1.7-5.2 2.5-7.7 3.1-9.4 5.5-11.7c2.3-2.3 5-5.2 5-5.2s6.7 2 9.4 5.6c0 0 4.1-2.5 7.2-3.6 3.1-1.1 7.4-2.3 7.4-2.3s5.2 7.4 6.6 12.1 2.7 11 2.7 12.5.2 3 .2 3 2.5-1.1 3.8-2.7c0 0 3.4-.5 5.2-2 1.7-1.6 3.9-4.4 3.4-13.6 0 0 1.2.6 2 5.8s1.7 14.2.6 19.1c0 0 1.4-.3 3.1-1.7 0 0-1.2 9.7 0 13.6 0 0 2.5-4.5 4.2-6.7s3.1-6.3 3.1-6.3l1.1-5.2 4.4-.2s-.2-7.8-1.1-11.1c-.9-3.3-2.8-13.8-7.1-19.9s-11.9-10.3-13-11-14.9-7.2-27.7-3.1c0 0 6.3-5 15.8-3s10.8 5.2 10.8 5.2l2.2.9 1.6-.5s-4.5-6.7-12.8-8.3-17.3.4-22.8 5.8z" fill="#2a232b" stroke-width="none" opacity="1" stroke="none"></path><path id="SvgjsPath9978" d="M87.3 38.1c-3.6 2.7-6.3 6.4-8.2 10.5-2.1 4.6-2.3 9.7-4.8 13.8 1-4.6 1.8-9.2 3.1-13.7 1.4-4.9 2.7-11.2 6.8-14.6.3-.2-.1-.6-.3-.5-4 1.9-5.1 7.6-6.2 11.4-1.8 5.9-3.4 12.1-3.8 18.2-.5.7-1.1 1.4-1.9 2.1v.1c-.5-1.9-1.1-3.8-1.4-5.7-.4-2.5-.5-4.9-.7-7.3.2-1.5.5-3 .9-4.5 0-.2-.2-.3-.3-.1-.5 1.4-.8 2.9-1.2 4.3V52.4c-.8 3.4-1.2 6.9-1.3 10.5 0 1 .7 7.9.4 8-1 .5-3.7-3.4-4.3-4.3-.2-.2-.5 0-.3.2 1.3 2.6 2.8 4.3 5.1 6.2.4.3.8 0 .8-.4-.8-5.2-.8-10.2-.3-15.3.3 3.2 1.2 6.5 2.6 9.2.1.2.4.1.4-.2 0-.1-.1-.2-.1-.3.1.1.2.1.3 0 3.7-2.5 4.6-6.5 5.6-10.7 1.7-6.8 4.9-11.8 9.8-16.7-.1-.3-.4-.7-.7-.5zm-4.6-21.3c.2.2.6 0 .4-.3-.4-.7-.8-1.3-1.3-1.9 6.1.8 11.1 3.1 16.3 6.3.3.2.6-.2.4-.5-4.9-4.4-11.5-6.4-17.9-7-.5-.1-.6.6-.4.9.8.9 1.5 1.7 2.5 2.5zM54.6 29.2c1.1.4 2.2.6 3.4.8.4.1.6-.5.2-.7-3.9-1.4.3-3.2 2.4-4.6 2-1.3 4.1-2.5 6.2-3.5 4.9-2.2 9.9-3.1 15.1-4 .3 0 .2-.5-.1-.5-10.2-.1-19.9 5.1-27.5 11.6-.2.3-.1.8.3.9zm8.2 36.6c.1-.2.3-.4.4-.6l.3.9c.1.4.7.2.6-.2-.3-1.7-.6-3.4-.5-5.2 0-.4-.7-.5-.8-.1-1.3 7.6-1.1 15.3 1.1 22.7-.7-.8-1.4-1.4-2.2-2.2-.9-.9-1.8-1.9-2.9-2.7-.1-.1-.3-.1-.4 0-1-3.5-2.2-6.9-3.3-10.4-.1-.3-.5-.3-.6 0-.4 1.4-.9 2.8-1.2 4.2-.1 0-.3 0-.4.1-1.3 1.2-4.3 3.9-5.3 1.9-.3-.7-.1-2.3-.2-3.1-.1-2.3-.2-4.6-.2-6.9 0-5.4.5-10.8 1.8-16C52.7 34 62.6 26.1 76.1 21.6c.2-.1.1-.4-.1-.3-12.4 2.5-22.5 11-26.7 22.9-3.6 10.1-3.2 21-2.7 31.5 0 .3.3.5.6.5 2.5-.5 4.3-1.4 6.2-3.1.2-.2.2-.4.1-.5.4-1.1.8-2.2 1.1-3.3 1 3.3 1.9 6.7 3 10 .1.3.5.3.7.1.7.9 1.6 1.7 2.4 2.5.9.9 1.8 1.9 2.8 2.7.1.1.3.1.4 0 .1.2.4.1.4-.2-1.2-5-2.1-10-2-15.2.3-1.1.4-2.3.5-3.4zm69.4-42.1c.6 0 1.2-.1 1.7-.1s.7-.6.4-.9c-9.4-10.7-25.2-12.2-36-2.6-.2.1.1.4.2.3 5.5-3.9 11.9-6.3 18.7-5.7 3.5.3 6.9 1.5 9.9 3.3 1.5.9 3.4 1.9 4.4 3.4.9 1.4 1.1 1.4-.1 1.5-.1-.1-.2-.1-.3-.2-7.6-7.3-19.4-8.2-28.2-2.4-.2.1 0 .4.2.3 8.6-4.7 17.3-4.3 25 .9-7.7-2.9-16.7-2.8-24.5-1-.2.1-.1.4.1.4 9.5-1.7 17.5-.3 26.4 2.4-.1.2.1.6.4.6h1.3c-.1.1-.1.2 0 .3 8.1 5.1 13.5 11.9 16.5 21 1.6 5 2.5 10.1 3.1 15.3.2 1.4.7 3.1.1 4.3.2-.5-2.4.8-3.1 1.2-.2.2 0 .7.3.6h3.7c.3.1.7-.2.7-.5-1.7-15.8-4.7-35.3-20.9-42.4zm16.1 42.2c1.1-6.7.4-14-2.7-19.9-.1-.2-.5-.1-.4.2 2.3 8.8 3.2 16.4 1.1 25.3-2.5 3.6-4.5 7.6-6.7 11.3-.5-4.2-.3-8.2.3-12.4 3.4-2.8 5.8-6.5 5.9-11.2 0-.4-.6-.5-.6-.1-.4 2.2-1.1 4.4-2.2 6.3-.2.3-1.5 1.9-2.8 3.4-.1-.2-.5-.3-.6 0-.1.3-.1.5-.2.8-1.1 1.1-2.1 1.9-2.4 1.6-.6-.6.1-3.1.1-3.9.2-2.3.2-4.5.1-6.8-.3-8.1-2.4-16.2-6.4-23.2-.2-.3-.5 0-.4.2.1.2.1.4.2.5v.1c1.3 4.3 2.6 8.4 2.6 12.9 0 2.8-.2 6.5-2.3 8.6-1.4 1.4-3.4 2-5.4 2.6 2.1-3.4 2.1-8 1.2-12.1 0-.2-.2-.2-.3-.2 0-6.3-4.8-13.8-10.4-16.6-.1 0-.2 0-.3.1-6.6 1.6-13.2 5.1-18.1 9.9-2.4-2.4-5.7-4.7-9.1-5.2-.5-.1-.6.5-.2.7 3.4 1.4 6.3 2.7 8.9 5.2.3.3.6 0 .7-.2 2.3-1.4 4.8-2.5 7.3-3.4 1.2-.4 2.4-.8 3.7-1.2.8-.3 2.3-.9 3.1-.9v.2c5 8.6 8.4 16.7 8.8 26.8 0 .4.4.6.8.4 1.5-.7 2.7-1.7 3.5-2.9 4.5-.9 7.8-2.5 8.7-7.5.4-2.4.5-5 .3-7.6 2.2 7.9 2.8 16 1.3 24.5-.1.5.4.8.8.6 1-.5 2-1.1 2.9-1.8-.9 4.4-.8 8.9-.1 13.3.1.4.7.4.9.1 2.6-4.4 5.5-8.7 7.6-13.4.1-.2 0-.4-.2-.5.3-1.4.7-3 1-4.6 0 0 .1 0 .2-.1l.1-.1c-.2.1-.3.1-.3.2zm-26.4-2c-1.1-1.4-1.1-7-1.6-8.8-1.5-6-4-12.1-8-16.9.2-.3.2-.8-.3-.9-.8-.1-.9 0-1.6.2-1.7.5-3.5 1.3-5.2 1.9-1.3.5-2.6 1.1-3.8 1.7 4.4-3 8.9-5.1 14.4-6.7.1 0 .2-.1.2-.2 2.4 2.1 4.6 4 6.3 6.8 1.8 2.9 2.5 6 3.3 9.3 0 .1.1.2.3.2 0 2.2.3 4.5 0 6.7-.1.6-.9 3.6-1.8 5.5h-.1c-.2 0-.2.2-.1.3-.6 1.1-1.4 1.8-2 .9zM86.2 33.6c-.2-.1-.3.2-.1.3 3.2 1.3 5.7 3.3 8.3 5.4.2.2.6-.1.4-.3-2.1-2.8-5.4-4.5-8.6-5.4zm-26.6 4.8c-5 6.1-7.4 15.2-7.2 23.1-.7.2-1.4.5-2 .9.5-9.8 3.6-18.4 9-26.5.1-.2-.2-.4-.3-.2-5.9 7.8-8.9 17.1-9.4 26.8 0 .3.3.4.5.3.1.1.2.2.3.1.7-.2 1.5-.5 2.1-.8.2.1.4 0 .4-.2v-.2c.7-8.7 3.1-15.2 6.9-23 .1-.3-.1-.5-.3-.3z" fill="#1b141c" stroke-width="none" opacity="1" stroke="none"></path></g><g id="svga-group-glasses-single-move" transform="matrix(1,0,0,1,0,0)"><g id="svga-group-glasses-single"></g></g></g></g></g><rect id="svga-credit-rect" width="200" height="15" x="0" y="185" fill="#ecf0f1" opacity="0.5" style="display: none;"></rect><text id="svga-credit-text" font-family="Avenir Next, Roboto, Helvetica, Arial, sans-serif" font-size="10px" text-anchor="start" font-weight="400" size="10px" anchor="start" weight="400" fill="#333333" x="33.43669891357422" y="182.60824704170227" style="display: none;"><tspan id="SvgjsTspan9744" dy="13" x="33.43669891357422">Created on AvatarMaker.com</tspan></text></g><defs id="SvgjsDefs9691"></defs></svg>