<svg xmlns="http://www.w3.org/2000/svg" version="1.1" width="600px" height="600px" viewBox="0 0 200 200" style="overflow:hidden!important;"><g id="svga-group-wrapper"><g id="svga-group-backs-single"><path id="SvgjsPath7053" d="M0 0h200v200H0V0z" fill="#ecf0f1" stroke-width="none" opacity="1"></path><path id="SvgjsPath7054" d="M0 0v10.1L76.5 100 0 0zm0 34.1V50l76.5 58.3L0 34.1zm0 37.1v13.6l76.5 33.4L0 71.2zM38.3 0H21.1l67.2 108.3L38.3 0zm36.3 0H61l27.2 90L74.6 0zM0 108.3v9.9l76.5 9.9L0 108.3zM0 144v13.6l76.5-22.1L0 144zm0 35.7V200l88.3-64.5L0 179.7zM38.3 200h16.4l26.5-42.4L38.3 200zm85.2-100L200 10.1V0l-76.5 100zM200 50V34.1l-76.5 74.2L200 50zm0 34.8V71.2l-76.5 47L200 84.8zM178.9 0h-17.2l-50 108.3L178.9 0zM139 0h-13.6l-13.6 90L139 0zm61 118.2v-9.9L123.5 128l76.5-9.8zm0 39.4V144l-76.5-8.5 76.5 22.1zm0 42.4v-20.3l-88.3-44.2L200 200zm-54.7 0h16.4l-43-42.4 26.6 42.4zM111.7 0H88.3L100 100 111.7 0zM76.5 200h11.7l6.4-58.5L76.5 200zm35.2 0h11.7l-18.2-58.5 6.5 58.5zm-17 0h10.6l-5.3-42.4-5.3 42.4z" fill="#c6dce2" stroke-width="none" opacity="1"></path></g><g id="svga-group-humanwrap-move" transform="matrix(1,0,0,1,0,0)"><g id="svga-group-humanwrap"><g id="svga-group-hair-back-move" transform="matrix(1,0,0,1,0,0)"><g id="svga-group-hair-back"><path id="SvgjsPath5757" d="m59.8 88.3 9.1 69.3 10.3 1.6 1.8-3.1 1.9 2.9 36-1.4 1-12.2.9 12.2 19-.9 1.6-71.5z" fill="#4c342a" stroke-width="none" opacity="1" stroke="none"></path></g></g><g id="svga-group-humanbody-back"><path id="SvgjsPath3440" d="M77.8 105.9s4.8 37.7 10 55.8c0 0-6.4 8.8-14.5 11.9-28.7 11.2-35 11.2-39.6 15.2-2.4 2.1.2 11.1 1.8 17.2 1.3 5 1.7 13.2 1.7 13.2h132.2s1.6-33-.6-39.8-7.1-2.9-21.9-4.5c-14.8-1.6-28.7-10.3-31-13.2l.3-60-38.4 4.2z" fill="#f3d4cf" stroke-width="none" opacity="1" stroke="none"></path></g><g id="svga-group-chinshadow-single"><path id="SvgjsPath5255" d="M86.1 156.4c4.7.8 10.3 1 10.3 1s11.6-.6 15.5-2.3c.7-.3 2.1-1.4 3.7-2.8l.3-50.7-38.4 4.2s4 31.4 8.6 50.6z" fill="#d4958a" stroke-width="none" opacity="1" stroke="none"></path></g><g id="svga-group-humanbody-front"><path id="SvgjsPath3441" d="M72.1 183.1s14.6-.2 20.4 2.6c5.8 2.9 12.7 2.4 16.1-1s21.6-7 21.6-7-19.7 1.9-25 4.6c-5.3 2.7-22.3-2.8-33.1.8z" fill="#d4958a" stroke-width="none" opacity="1" stroke="none"></path><path id="SvgjsPath3442" d="M74.2 173.2c6.7-1.3 14.7-6.4 14.7-6.4l6.2 5.5c-4.3-7.9-12.7-41.1-12.7-41.1l-.7.7c1.7 10.5 3.9 21.9 6.1 29.7 0 0-6 8.2-13.6 11.6z" fill="#d4958a" stroke-width="none" opacity="1" stroke="none"></path><path id="SvgjsPath3443" d="M170.7 188.5c-.1-2.1-.2-4.1-.4-6.2-.1-1-.3-2.1-.6-3.2-.2-.5-.4-1-.6-1.6-.2-.5-.6-1-1-1.5s-.9-.9-1.5-1.1c-.6-.3-1.1-.4-1.7-.6-1.1-.2-2.2-.2-3.2-.2-2.1 0-4.1.1-6.1.1s-4-.1-6-.2-4-.4-6-.7c-1-.2-2-.4-2.9-.6l-1.5-.4c-.5-.1-1-.3-1.4-.4-3.8-1.1-7.6-2.6-11.2-4.4l-1.3-.7-1.3-.7c-.4-.2-.9-.5-1.3-.8s-.9-.5-1.3-.8-.8-.5-1.3-.8l-1.2-.9-.6-.5-.3-.2-.3-.2c-.2-.2-.4-.3-.5-.5l-.2-.3v-44.6l-.1-15v-.6l-.6.1c-6.4.8-12.9 1.5-19.3 2.3l-19.1 2.3v.5l.1.4.1.9.2 1.8c.1 1.2.3 2.3.4 3.5l.9 7c.6 4.7 1.3 9.4 2.1 14 .8 4.7 1.5 9.3 2.5 14 .9 4.5 1.8 9 3 13.5-1.1 1.4-2.3 2.7-3.6 4-1.3 1.3-2.8 2.6-4.3 3.8-1.5 1.1-3.1 2.2-4.8 3l-1.3.6c-.4.2-.9.3-1.3.5l-2.7 1c-7.2 2.7-14.5 5.3-21.8 7.7l-5.5 1.8c-1.8.6-3.7 1.3-5.5 2.2-.4.2-.9.5-1.3.7-.4.3-.9.5-1.3.9l-.6.5c-.2.2-.5.5-.6.8-.3.5-.4 1.1-.5 1.6-.2 1.1-.1 2.1 0 3.1s.3 2 .4 2.9c.4 1.9.8 3.8 1.3 5.7l.8 2.8c.3.9.5 1.8.7 2.8.4 1.9.7 3.8.9 5.7s.4 3.8.5 5.7v.8h133.4v-.8c.2-4.1.4-8.2.5-12.3s.2-8.2.2-12.3c0-1.8-.1-3.8-.1-5.9zm-67.4 30.3H70.2l-16.5-.1-16-.1c-.1-1.8-.2-3.5-.4-5.3-.2-1.9-.4-3.9-.8-5.8-.2-1-.4-1.9-.7-2.9l-.7-2.8c-.5-1.9-.9-3.7-1.2-5.6-.2-.9-.3-1.9-.4-2.8-.1-.9-.1-1.9 0-2.7.1-.4.2-.8.4-1.1.1-.2.2-.3.3-.4l.5-.4c.3-.3.7-.5 1.1-.8.4-.2.8-.5 1.2-.7 1.7-.8 3.5-1.4 5.3-2l5.5-1.8c7.3-2.4 14.6-5 21.8-7.8l2.7-1c.5-.2.9-.3 1.4-.5l1.4-.6c1.8-.9 3.4-2 5-3.2s3-2.5 4.4-3.9 2.7-2.9 3.8-4.5l.2-.3-.1-.3c-1.3-4.5-2.3-9.1-3.3-13.7s-1.9-9.3-2.7-13.9c-.8-4.6-1.6-9.3-2.4-14l-2.2-13.9 19.3-1.8c6.2-.6 12.3-1.2 18.5-1.8l-.2 14.4-.2 15-.3 30v.4l.2.2.6.7.6.6.3.3.3.2.6.5c.4.3.9.6 1.3.9.4.3.9.6 1.3.9.4.3.9.5 1.3.8s.9.5 1.3.8l1.4.8 1.4.7c.5.2.9.5 1.4.7l1.4.7c1 .4 1.9.8 2.9 1.2s1.9.8 2.9 1.1l1.5.5c.5.2 1 .3 1.5.4.5.1 1 .3 1.5.4l1.5.4c1 .3 2 .4 3 .6 2 .4 4.1.6 6.2.8 2.1.2 4.1.2 6.2.2 2.1 0 4.1-.1 6.1-.1s4 .1 5 1.3c.5.6.9 1.4 1.2 2.3.3.9.4 1.9.6 2.8.3 2 .4 4 .5 6s.1 4.1.2 6.1c.1 7.9-.1 15.8-.4 23.7-10.8.1-21.5.1-32.3.2h-33.1z" fill="#c5796d" stroke-width="none" opacity="1" stroke="none"></path><path id="SvgjsPath3444" d="M150.7 219.2 147 198l-.4 21.2z" fill="#d4958a" stroke-width="none" opacity="1" stroke="none"></path><path id="SvgjsPath3445" d="M47.3 203.5s2.2 11.5 2.9 15.7h3.5l-6.4-15.7z" fill="#d4958a" stroke-width="none" opacity="1" stroke="none"></path></g><g id="svga-group-clothes-single"><path id="SvgjsPath5796" d="M67.44 197.26s-7.93 11.38-14.61 21.69l94.93.05s-6.01-7.26-17.72-24.24c0 0-17.31 12.83-27.99 20.08.01.01-20.1-8.8-34.61-17.58z" fill="#3e09c5" stroke-width="none" opacity="1" stroke="none"></path><path id="SvgjsPath5797" d="M148.33 218.53c-3.06-3.91-5.97-7.99-8.88-12.05-2.5-3.5-4.95-7.04-7.38-10.6.58-5.92 3.97-24.68 3.97-24.68l-2.54-.91-5.78 24.88-12.21 8.89c-4.5 3.28-9.02 6.54-13.57 9.74-2.8-1.2-5.6-2.45-8.38-3.72-2.93-1.36-5.88-2.69-8.79-4.09-2.92-1.38-5.81-2.84-8.7-4.28-1.44-.74-2.88-1.47-4.31-2.23l-1.33-.71-7.23-22.68-2.09.75 4.78 22.32-.49.65-1.93 2.64c-1.28 1.76-2.58 3.52-3.83 5.31-2.51 3.57-5.01 7.15-7.44 10.77l-.78 1.16 1.42.02c7.91.09 15.82.17 23.73.14 7.91-.04 15.82-.27 23.73-.41 7.91-.17 15.82-.18 23.73-.11 7.91.06 15.82.25 23.73.39l1.53.03-.96-1.22zm-48.03-.02c-7.91-.15-15.82-.38-23.73-.43-7.45-.04-14.9.02-22.34.1 2.07-3.29 4.14-6.58 6.26-9.84l3.52-5.51 1.77-2.75.88-1.38.44-.69.22-.35c.07-.12.17-.23.16-.3 1.38.9 2.62 1.74 4.05 2.57 1.38.85 2.79 1.66 4.18 2.48 2.81 1.62 5.67 3.16 8.53 4.68 2.87 1.51 5.75 3 8.67 4.42s5.84 2.82 8.8 4.17l.45.2.43-.29c4.81-3.17 9.5-6.49 14.18-9.82 2.35-1.66 4.66-3.37 6.98-5.06 2.04-1.49 4.06-2.99 6.08-4.5 2.68 3.81 5.39 7.6 8.15 11.35 1.48 2.02 3 4.02 4.53 6 1.23 1.59 2.47 3.16 3.75 4.72-7.41.13-14.81.3-22.22.34-7.92.09-15.83.07-23.74-.11z" fill="#2f00a6" stroke-width="none" opacity="1" stroke="none"></path></g><g id="svga-group-head" transform="matrix(1,0,0,1,0,0)"><g id="svga-group-ears-left-move" transform="matrix(1,0,0,1,0,0)"><g id="svga-group-ears-left"><path id="SvgjsPath7015" d="M65.8 98.48s-4.2-8.27-8.66-11.42c-4.46-3.15-9.84-3.15-9.84-3.15s-3.02 2.1-1.97 12.6c0 0 4.46 10.76 12.47 14.7 0 0 5.77 1.31 8.66.66-.01-.01 2.09-6.18-.66-13.39z" fill="#f3d4cf" stroke-width="none" opacity="1"></path><path id="SvgjsPath7016" d="M64.88 101.76s-3.67-7.87-6.04-9.84c-2.36-1.97-7.87-5.12-9.32-3.28-1.44 1.84-1.57 7.61-1.57 7.61s1.57 4.59 6.3 7.09c4.72 2.49 10.37 2.76 10.37 2.76l.26-4.34z" fill="#e4b3ab" stroke-width="none" opacity="1"></path><path id="SvgjsPath7017" d="M44.99 93.25c.02 1.09.09 2.19.17 3.28v.02l.01.03a39.54 39.54 0 0 0 2.2 4.42c.82 1.43 1.75 2.79 2.75 4.11 1.02 1.3 2.15 2.51 3.38 3.64 1.25 1.1 2.62 2.07 4.12 2.83l.04.02.05.01c1.45.31 2.89.55 4.36.7.73.07 1.47.13 2.22.13.74-.01 1.5-.05 2.25-.23l.19-.05.05-.17c.33-1.14.5-2.27.58-3.42.08-1.15.08-2.3-.01-3.44a23.99 23.99 0 0 0-.52-3.38c-.23-1.12-.59-2.2-.99-3.27-.94-1.86-2.02-3.63-3.13-5.4-1.14-1.74-2.35-3.46-3.85-4.95-.75-.74-1.6-1.4-2.5-1.96-.91-.56-1.88-.98-2.87-1.35-1.99-.73-4.08-1.08-6.19-1.12h-.08l-.04.04c-.89.85-1.22 1.93-1.54 2.98-.29 1.06-.45 2.16-.54 3.25-.09 1.09-.13 2.18-.11 3.28zm.33-3.27c.11-1.08.28-2.15.59-3.19.15-.52.35-1.02.59-1.49.23-.44.53-.89.86-1.18 2.01.12 4.01.6 5.9 1.29 1.9.73 3.7 1.74 5.19 3.13 1.5 1.39 2.82 2.99 4.04 4.67 1.22 1.67 2.29 3.46 3.28 5.28.37 1.07.71 2.15.91 3.27.24 1.11.32 2.24.36 3.37.04 1.13-.04 2.26-.19 3.37-.14 1.04-.35 2.09-.65 3.07-.62.1-1.26.12-1.91.1-.71-.01-1.43-.06-2.14-.14-1.41-.15-2.83-.4-4.21-.7-1.39-.74-2.72-1.62-3.93-2.66-1.2-1.07-2.33-2.24-3.35-3.49a42.391 42.391 0 0 1-2.82-3.96c-.86-1.37-1.66-2.79-2.33-4.25l-.16-1.59c-.05-.54-.06-1.09-.09-1.63-.04-1.1-.03-2.18.06-3.27z" fill="#e4b3ab" stroke-width="none" opacity="1"></path><path id="SvgjsPath7018" d="M49.2 91.53c.18-.69.39-1.36.67-2.03.07-.16.16-.33.26-.48.11-.15.23-.33.48-.37.45.02.72.22 1.06.37a18.3 18.3 0 0 1 3.48 2.44c.53.48 1.03 1.01 1.42 1.66.18.33.36.69.38 1.14.01.25-.01.36-.01.54l.01.51c.16 2.77.58 5.56.83 8.36l-.07.01c-.34-1.37-.61-2.75-.86-4.13-.26-1.39-.44-2.78-.55-4.2l-.03-.54v-.51c0-.26-.13-.56-.28-.84-.31-.57-.74-1.11-1.21-1.61-.94-1-2.01-1.94-3.22-2.61-.29-.16-.65-.33-.91-.33-.23.06-.41.43-.53.73-.26.63-.39 1.33-.52 2.01-.23 1.37-.39 2.77-.48 4.15-.02.34-.04.7-.02 1.01-.01.17.21.46.41.71.42.52.91 1.02 1.4 1.5.81.79 1.65 1.57 2.5 2.33.09-.91.18-1.82.24-2.74.04-.59.07-1.17.08-1.75.01-.53.01-1.07-.06-1.58-.15-.02-.33-.03-.5-.02a4.1 4.1 0 0 0-.69.1c-.46.1-.91.25-1.35.43l-.03-.07c.41-.25.85-.46 1.32-.62.23-.08.47-.15.72-.19.26-.04.49-.07.79-.01l.11.02.03.13c.15.61.18 1.21.22 1.81.02.6.02 1.19.01 1.79-.03 1.19-.08 2.37-.19 3.56l-.07.75-.58-.49c-1.08-.92-2.11-1.87-3.11-2.88-.49-.51-.98-1.03-1.43-1.61-.11-.15-.22-.3-.32-.47-.05-.09-.1-.18-.14-.29-.05-.11-.07-.28-.07-.37-.01-.39.03-.74.06-1.1.14-1.45.39-2.84.75-4.22z" fill="#c5796d" stroke-width="none" opacity="1"></path></g></g><g id="svga-group-ears-right-move" transform="matrix(1,0,0,1,0,0)"><g id="svga-group-ears-right"><path id="SvgjsPath7019" d="M134.2 98.48s4.2-8.27 8.66-11.42c4.46-3.15 9.84-3.15 9.84-3.15s3.02 2.1 1.97 12.6c0 0-4.46 10.76-12.47 14.7 0 0-5.77 1.31-8.66.66.01-.01-2.09-6.18.66-13.39z" fill="#f3d4cf" stroke-width="none" opacity="1"></path><path id="SvgjsPath7020" d="M135.12 101.76s3.67-7.87 6.04-9.84c2.36-1.97 7.87-5.12 9.32-3.28 1.44 1.84 1.57 7.61 1.57 7.61s-1.57 4.59-6.3 7.09c-4.72 2.49-10.37 2.76-10.37 2.76l-.26-4.34z" fill="#e4b3ab" stroke-width="none" opacity="1"></path><path id="SvgjsPath7021" d="M154.91 89.96c-.09-1.09-.25-2.18-.54-3.25-.32-1.05-.65-2.13-1.54-2.98l-.04-.04h-.08c-2.11.04-4.21.39-6.19 1.12-.99.37-1.96.79-2.87 1.35-.9.56-1.75 1.22-2.5 1.96-1.5 1.49-2.71 3.21-3.85 4.95-1.11 1.77-2.18 3.54-3.13 5.4-.39 1.07-.76 2.15-.99 3.27a23.99 23.99 0 0 0-.52 3.38c-.1 1.14-.09 2.29-.01 3.44s.25 2.28.58 3.42l.05.17.19.05c.75.18 1.51.22 2.25.23.75 0 1.48-.05 2.22-.13 1.47-.15 2.91-.39 4.36-.7l.05-.01.04-.02c1.5-.76 2.87-1.73 4.12-2.83 1.23-1.12 2.36-2.34 3.38-3.64 1-1.31 1.93-2.68 2.75-4.11.82-1.43 1.57-2.89 2.2-4.42l.01-.03v-.02c.07-1.09.14-2.18.17-3.28.01-1.09-.03-2.18-.11-3.28zm-.16 3.28c-.03.54-.04 1.09-.09 1.63l-.16 1.59c-.67 1.47-1.47 2.89-2.33 4.25-.87 1.37-1.8 2.7-2.82 3.96a29.855 29.855 0 0 1-3.35 3.49 21.554 21.554 0 0 1-3.93 2.66c-1.38.3-2.8.54-4.21.7-.71.08-1.43.13-2.14.14-.64.01-1.29 0-1.91-.1-.3-.98-.51-2.03-.65-3.07-.15-1.11-.22-2.24-.19-3.37.04-1.13.12-2.26.36-3.37.2-1.12.54-2.2.91-3.27.98-1.82 2.05-3.61 3.28-5.28 1.21-1.67 2.54-3.28 4.04-4.67 1.49-1.39 3.28-2.4 5.19-3.13 1.88-.69 3.89-1.17 5.9-1.29.34.29.63.74.86 1.18.25.47.44.97.59 1.49.3 1.03.48 2.11.59 3.19.08 1.1.09 2.18.06 3.27z" fill="#e4b3ab" stroke-width="none" opacity="1"></path><path id="SvgjsPath7022" d="M150.8 91.53c-.18-.69-.39-1.36-.67-2.03-.07-.16-.16-.33-.26-.48-.11-.15-.23-.33-.48-.37-.45.02-.72.22-1.06.37a18.3 18.3 0 0 0-3.48 2.44c-.53.48-1.03 1.01-1.42 1.66-.18.33-.36.69-.38 1.14-.01.25.01.36.01.54l-.01.51c-.16 2.77-.58 5.56-.83 8.36l.07.01c.34-1.37.61-2.75.86-4.13.26-1.39.44-2.78.55-4.2l.03-.54v-.51c0-.26.13-.56.28-.84.31-.57.74-1.11 1.21-1.61.94-1 2.01-1.94 3.22-2.61.29-.16.65-.33.91-.33.23.06.41.43.53.73.26.63.39 1.33.52 2.01.23 1.37.39 2.77.48 4.15.02.34.04.7.02 1.01.01.17-.21.46-.41.71-.42.52-.91 1.02-1.4 1.5-.81.79-1.65 1.57-2.5 2.33-.09-.91-.18-1.82-.24-2.74-.04-.59-.07-1.17-.08-1.75-.01-.53-.01-1.07.06-1.58.15-.02.33-.03.5-.02.23.01.46.05.69.1.46.1.91.25 1.35.43l.03-.07c-.41-.25-.85-.46-1.32-.62a4.23 4.23 0 0 0-.72-.19c-.26-.04-.49-.07-.79-.01l-.11.02-.03.13c-.15.61-.18 1.21-.22 1.81-.02.6-.02 1.19-.01 1.79.03 1.19.08 2.37.19 3.56l.07.75.58-.49c1.08-.92 2.11-1.87 3.11-2.88.49-.51.98-1.03 1.43-1.61.11-.15.22-.3.32-.47.05-.09.1-.18.14-.29.05-.11.07-.28.07-.37.01-.39-.03-.74-.06-1.1a26.8 26.8 0 0 0-.75-4.22z" fill="#c5796d" stroke-width="none" opacity="1"></path></g></g><g id="svga-group-faceshape-wrap"><g id="svga-group-faceshape-single"><path id="SvgjsPath5245" d="M135.9 49.8c-6.7-7.4-11.3-13.2-28.8-17.3-1.8-.4-12.3-.4-14.1 0-17.5 4.1-22.1 9.9-28.8 17.3-7.1 7.8-9.5 29-9.5 29 0 21.4 2.7 35.2 5 41.3 2.3 6.2 21.1 25.2 24.9 27s15.5 2.3 15.5 2.3 11.6-.6 15.5-2.3c3.8-1.8 22.6-20.8 24.9-27s5.1-19.9 5-41.3c-.1 0-2.5-21.2-9.6-29z" fill="#f3d4cf" stroke-width="none" opacity="1" stroke="none"></path><path id="SvgjsPath5246" d="M107.1 32.5c-1.8-.4-12.3-.4-14.1 0-17.5 4.1-22.1 9.9-28.8 17.3-7.1 7.8-9.5 29-9.5 29 0 21.4 2.7 35.2 5 41.3 2.3 6.2 21.1 25.2 24.9 27s15.5 2.3 15.5 2.3 11.6-.6 15.5-2.3c3.8-1.8 22.6-20.8 24.9-27s5.1-19.9 5-41.3c0 0-2.4-21.2-9.5-29-6.8-7.4-11.4-13.2-28.9-17.3zm35 31.2c.7 2.5 1.2 5 1.6 7.5.4 2.5.8 5 1 7.5-.1 3.9-.3 7.8-.7 11.7l-.3 2.9-.3 2.9-.3 2.9-.4 2.9c-.6 3.9-1.2 7.7-2.1 11.4-.5 1.9-1 3.7-1.6 5.5-.81 1.95-2.2 3.8-2.7 4.6-1.2 1.5-2.4 3-3.7 4.5-1.3 1.5-2.6 2.9-3.9 4.4-2.6 2.9-5.4 5.6-8.2 8.3-1.4 1.3-2.8 2.7-4.3 3.8-.4.3-1.22.92-2.1 1.3-.8.3-1.7.5-2.6.7-1.8.4-3.8.6-5.7.9-1.9.2-3.8.4-5.7.5-1.9-.1-3.8-.2-5.7-.4-1.9-.2-3.9-.4-5.7-.7-.9-.2-2.76-.53-4.8-1.9-1.5-1.1-3-2.4-4.4-3.7-2.9-2.6-5.7-5.3-8.4-8.2-2.7-2.8-5.4-5.7-7.8-8.8-.6-.8-1.2-1.5-1.7-2.3-.3-.4-.5-.8-.7-1.2l-.3-.6c-.1-.2-.2-.4-.3-.7-.7-1.8-1.2-3.7-1.7-5.6s-.9-3.8-1.2-5.7c-.2-1-.3-1.9-.5-2.9l-.4-2.9c-1-7.8-1.2-15.6-1.1-23.4.7-4.6 1.7-9.3 3-13.7.7-2.2 1.4-4.5 2.3-6.6.4-1.1.9-2.1 1.4-3.1s1.1-2 1.7-2.9c1.87-2.75 3.8-4.3 4.6-5.2 1.6-1.7 3.3-3.3 5-4.7 1.8-1.4 3.7-2.6 5.7-3.7s4.1-2 6.3-2.8l1.6-.6c.5-.2 5.91-1.79 8.3-2.1 1.2-.1 2.3-.1 3.5-.2 2.3-.1 4.65-.14 6.95-.14.1 0 3.35.64 3.35.64l1.8.4 1.7.4c2.3.6 4.5 1.3 6.7 2.3.3.1.5.2.8.3l.8.4c.5.3 1.1.5 1.6.8l1.5.9 1.5.9c2 1.3 3.8 2.8 5.4 4.5 1.7 1.7 3.3 3.4 4.9 5.2 1.7 1.9 2.9 4.2 3.9 6.6 1 2.3 1.8 4.8 2.4 7.2z" fill="#c5796d" stroke-width="none" opacity="1" stroke="none"></path></g></g><g id="svga-group-mouth-single-move" transform="matrix(1,0,0,1,0,0)"><g id="svga-group-mouth-single"><path id="SvgjsPath6745" d="M90.88 126.51s-.27 1.69.86 2.88c1.14 1.19 11.47 2.31 17.34.11 5.87-2.2 6.74-5.28 6.74-5.28s-5.39.45-7.07.11c-1.69-.34-7.66-1.1-8.9-1s-3.37.96-4.36 1.36-4.61 1.82-4.61 1.82z" fill="#da7c87" stroke-width="none" opacity="1" stroke="none"></path><path id="SvgjsPath6746" d="M87.57 126.62s1.87 1.37 4.84.17c2.96-1.19 6.58-2.22 8.13-2.32s7.17 1.35 10.39 1.07c3.22-.29 6.81-1.1 8.21-3.3s.26-3.18-.22-2.66c-.48.51-.69 4.46-3.65 4.22-2.96-.24-6.51-2.62-9.97-3.46-3.46-.83-4.82.93-5.53 1.53s-1.58.42-3.12.41c-1.54-.02-4.73.33-5.43 2.15-.71 1.82-2.27 2.85-3.65 2.19z" fill="#d26d79" stroke-width="none" opacity="1" stroke="none"></path></g></g><g id="svga-group-eyes-left-move" transform="matrix(1,0,0,1,0,0)"><g id="svga-group-eyes-left"><g id="svga-group-eyesback-left"><path id="SvgjsPath5655" d="M80.2 77.2c7.5 0 13.5 5.8 13.5 13s-6 13-13.5 13-13.5-5.8-13.5-13 6-13 13.5-13z" fill="#ffffff" stroke-width="none" opacity="1"></path></g><g id="svga-group-eyesiriswrapper-left" transform="matrix(1,0,0,1,0,0)"><g id="svga-group-eyesiriscontrol-left" transform="matrix(1,0,0,1,0,0)"><g id="svga-group-eyesiris-left"><path id="SvgjsPath3460" d="M80.2 84.6c3.1 0 5.6 2.5 5.6 5.6s-2.5 5.6-5.6 5.6-5.6-2.5-5.6-5.6 2.5-5.6 5.6-5.6z" fill="#8ab42d" stroke-width="none" opacity="1" stroke="none"></path><path id="SvgjsPath3461" d="M80.2 87.2c1.7 0 3 1.3 3 3s-1.3 3-3 3-3-1.3-3-3 1.3-3 3-3z" fill="#000000" stroke-width="none" opacity="1"></path><path id="SvgjsPath3462" d="m79.5 87.8-.6-.6c-.2-.2-.5-.3-.8-.3s-.6.1-.8.3c-.2.2-.3.5-.3.8s.1.6.3.8l.6.6c.2.2.5.3.8.3s.6-.1.8-.3c.4-.6.4-1.2 0-1.6zm2.7 5.1c1 0 1-1.5 0-1.5-.9 0-.9 1.5 0 1.5z" fill="#ffffff" stroke-width="none" opacity="1"></path></g></g></g><g id="svga-group-eyesfront-left"><path id="SvgjsPath5663" d="M80.2 76.7c-7.8 0-14.1 6.1-14.1 13.6s6.3 13.6 14.1 13.6 14.1-6.1 14.1-13.6S88 76.7 80.2 76.7zm-3.1 16.8c-5-2-8.7-5.1-9-5.9s6.6-2.2 9.6-1.9c3 .3 10.2 3.4 11.2 4.9 1 1.5 1.9 4.5 1.9 4.5-4.6 1.6-8.7.4-13.7-1.6z" fill="#f3d4cf" stroke-width="none" opacity="1" stroke="none"></path><path id="SvgjsPath5664" d="M89.7 89.6C88 87.4 78.2 85 77.4 84.8c-.3-.1-2.1 0-4.3 0-.5-.4-2.1-1.9-2.6-3.3-.1-.3-.4-.4-.7-.3s-.4.4-.3.7c.4 1.2 1.4 2.3 2.1 3-.6.1-1.2.1-1.8.1-.8-.5-2.2-1.6-2.9-2.8-.2-.3-.5-.3-.7-.2-.3.2-.3.5-.2.7.5.9 1.3 1.7 2.1 2.3-1.3.1-2.5.1-3.3.2-.3 0-.4.5-.1.6l3.4 1.8v.1c.1.2.2.2.3.4l1.2 1.2c.8.7 1.7 1.3 2.7 1.9 1.8 1.2 3.8 2.2 5.9 2.9 2 .8 4.2 1.5 6.3 1.7 2.2.3 4.4.1 6.4-.7.1.2.1.3.2.5.2.3.7.2.6-.2-.4-1.8-1-4.4-2-5.8zm-5.3 5.9c-2.1-.3-4.2-1.1-6.2-1.8-2-.8-4-1.7-5.8-2.8l-2.7-1.8c-.4-.3-.8-.7-1.2-1.1l-.1-.1c1.1-.3 6.8-1.9 8.8-2 .4 0 .7.1 1.1.2 2.5.7 9.5 3.8 10.3 4.9.5.6 1.4 2.6 2.2 4.3-2.1.4-4.3.5-6.4.2z" fill="#000000" stroke-width="none" opacity="1" stroke="none"></path></g></g></g><g id="svga-group-eyes-right-move" transform="matrix(1,0,0,1,0,0)"><g id="svga-group-eyes-right"><g id="svga-group-eyesback-right"><path id="SvgjsPath5656" d="M119.8 77.2c7.5 0 13.5 5.8 13.5 13s-6 13-13.5 13-13.5-5.8-13.5-13 6-13 13.5-13z" fill="#ffffff" stroke-width="none" opacity="1"></path></g><g id="svga-group-eyesiriswrapper-right" transform="matrix(1,0,0,1,0,0)"><g id="svga-group-eyesiriscontrol-right" transform="matrix(1,0,0,1,0,0)"><g id="svga-group-eyesiris-right"><path id="SvgjsPath3463" d="M119.8 85.3c2.7 0 4.9 2.2 4.9 4.9s-2.2 4.9-4.9 4.9-4.9-2.2-4.9-4.9 2.2-4.9 4.9-4.9z" fill="#8ab42d" stroke-width="none" opacity="1" stroke="none"></path><path id="SvgjsPath3464" d="M119.8 87.5c1.5 0 2.7 1.2 2.7 2.7s-1.2 2.7-2.7 2.7-2.7-1.2-2.7-2.7 1.2-2.7 2.7-2.7z" fill="#000000" stroke-width="none" opacity="1"></path><path id="SvgjsPath3465" d="M119.2 88.1c-.2-.2-.3-.4-.5-.5s-.4-.3-.7-.3c-.2 0-.5.1-.7.3-.2.2-.3.4-.3.7 0 .2.1.5.3.7.2.2.4.3.5.5s.4.3.7.3c.2 0 .5-.1.7-.3.3-.5.3-1.1 0-1.4zm2.4 4.5c.8 0 .8-1.3 0-1.3s-.8 1.3 0 1.3z" fill="#ffffff" stroke-width="none" opacity="1"></path></g></g></g><g id="svga-group-eyesfront-right"><path id="SvgjsPath5665" d="M119.8 76.7c-7.8 0-14.1 6.1-14.1 13.6s6.3 13.6 14.1 13.6 14.1-6.1 14.1-13.6-6.3-13.6-14.1-13.6zm3.4 16.1c-4.7 1.9-8.4 3.1-13 3.6 0 0 1.7-3.9 2.7-5.4s9.3-5 12-5.1 7.1 1.9 6.7 2.7c-.3.7-3.7 2.3-8.4 4.2z" fill="#f3d4cf" stroke-width="none" opacity="1" stroke="none"></path><path id="SvgjsPath5668" d="M135.6 86.6c-.8-.1-2-.2-3.3-.4.8-.7 1.1-1.4 1.1-1.4.1-.3.1-.6-.2-.8-.3-.2-.6-.1-.7.2 0 0-.6 1-1.8 1.8-.5-.1-1-.1-1.4-.2 1-1.2 1.2-2.7 1.2-2.8 0-.3-.2-.6-.5-.7s-.6.2-.6.5c0 0-.2 1.7-1.5 2.7l-.1.1c-2-.2-3.7-.4-4-.3-.8.2-9.9 2.2-11.7 4.5-1.1 1.5-1.9 4.7-2.3 6.7-.1.3.3.4.4.2.1-.1.1-.3.2-.4 4-.3 7.8-1.4 11.6-2.8 1.9-.7 3.8-1.5 5.7-2.4.9-.4 1.9-.9 2.8-1.5.2-.1.4-.3.7-.5l.3-.3 4-1.8c.4-.1.4-.4.1-.4zm-5.1 2.6c-.9.5-1.8.9-2.8 1.3-.9.4-1.9.8-2.8 1.2-.9.4-1.9.8-2.9 1.2-1.9.7-3.8 1.5-5.8 2-1.8.6-3.7.9-5.5 1.3.8-1.8 2-4.3 2.6-5 .9-1.2 11.4-4.9 12.9-5 1.3-.1 4.1 2.2 4.8 2.7-.2.1-.4.2-.5.3z" fill="#000000" stroke-width="none" opacity="1" stroke="none"></path></g></g></g><g id="svga-group-facehighlight-single"></g><g id="svga-group-eyebrows-left-move" transform="matrix(1,0,0,1,0,0)"><g id="svga-group-eyebrows-left-rotate" transform="matrix(1,1.7453292519943295e-9,-1.7453292519943295e-9,1,1.2995914744351467e-7,-1.3809918186780124e-7)"><g id="svga-group-eyebrows-left"><path id="SvgjsPath3548" d="M64.55 76.13s7.64-5.4 8.86-5.62 19.49 3.09 19.95 4.12c.46 1.03-.07 3.12-1.4 3.76-1.33.64-12.63-3.98-17.91-5.17-2-.45-9.5 2.91-9.5 2.91z" fill="#2a232b" stroke-width="none" opacity="1"></path><path id="SvgjsPath3549" d="M64.52 76.15c.01.02.08.01.08 0l.03-.01.06-.02.12-.05.23-.09.47-.18.94-.35c.63-.23 1.26-.45 1.89-.67 1.26-.44 2.54-.84 3.83-1.12.32-.07.64-.12.96-.16.32-.03.63-.04.89.02.64.16 1.28.34 1.92.54 1.27.39 2.55.8 3.81 1.23 2.54.85 5.07 1.71 7.65 2.49.64.19 1.29.39 1.95.55.66.16 1.32.33 2.04.38.19 0 .37.02.62-.06l.09-.03.06-.04.12-.07c.08-.04.15-.1.23-.16.29-.23.51-.51.69-.8.34-.59.52-1.24.53-1.9 0-.33-.03-.67-.16-.99-.02-.05-.02-.07-.06-.13-.04-.07-.09-.09-.13-.13-.08-.06-.16-.1-.24-.14-.16-.08-.32-.13-.48-.19-.65-.22-1.3-.39-1.95-.55-1.31-.33-2.62-.61-3.94-.9-2.63-.58-5.25-1.18-7.9-1.68-1.33-.24-2.66-.47-4.01-.63-.34-.04-.68-.08-1.03-.09-.09 0-.18-.01-.28-.01-.05 0-.1 0-.17.01-.06.01-.1.03-.15.04-.21.06-.36.14-.52.22-.62.32-1.18.67-1.74 1.02-1.12.71-2.19 1.48-3.27 2.24-.54.38-1.07.77-1.59 1.17l-.79.59-.39.3-.19.15-.1.08c-.05.01-.1.08-.12.12zm.92-.49-.34.16.32-.2.83-.53 1.67-1.06c1.11-.71 2.23-1.41 3.36-2.09.56-.34 1.14-.67 1.71-.95l.21-.1c.07-.04.13-.04.19-.07l.09-.03h.08c.07 0 .15 0 .23.01.32.02.65.06.98.1 1.32.18 2.65.38 3.98.59 1.33.2 2.66.4 3.99.62 1.33.22 2.65.45 3.97.72 1.32.27 2.63.57 3.92.92.65.17 1.29.36 1.9.6.15.06.3.12.44.19.07.04.13.07.18.11.02.02.05.04.04.04.01 0 .02.06.03.08.09.27.11.57.09.87a3.7 3.7 0 0 1-.57 1.69c-.17.25-.37.47-.6.64-.06.04-.12.09-.18.12l-.09.05-.05.03h-.03c-.07.03-.24.02-.38.01-.62-.06-1.27-.24-1.91-.42-.64-.18-1.28-.38-1.91-.58-2.54-.82-5.05-1.74-7.61-2.57-1.28-.41-2.56-.82-3.86-1.17-.65-.18-1.31-.35-1.98-.49-.4-.09-.77-.05-1.12 0-.35.05-.69.12-1.02.2-1.33.34-2.58.82-3.83 1.32-.62.25-1.23.52-1.84.79l-.89.4z" fill="#1b141c" stroke-width="none" opacity="1"></path></g></g></g><g id="svga-group-eyebrows-right-move" transform="matrix(1,0,0,1,0,0)"><g id="svga-group-eyebrows-right-rotate" transform="matrix(1,1.7453292519943295e-9,-1.7453292519943295e-9,1,1.365545756470965e-7,-2.1299837271726574e-7)"><g id="svga-group-eyebrows-right"><path id="SvgjsPath3550" d="M135.56 80.74s-6.82-5.75-7.95-6.03c-1.13-.28-18.27 2.16-18.75 3.17-.48 1.01-.1 3.12 1.11 3.82s11.94-3.37 16.91-4.31c1.88-.36 8.68 3.35 8.68 3.35z" fill="#2a232b" stroke-width="none" opacity="1"></path><path id="SvgjsPath3551" d="m135.5 80.64-.09-.08-.17-.16-.35-.32-.7-.63c-.47-.42-.94-.84-1.42-1.24-.96-.81-1.92-1.62-2.93-2.39-.5-.38-1.01-.76-1.56-1.1-.14-.08-.28-.17-.47-.24-.05-.02-.09-.04-.14-.05-.06-.01-.12-.02-.16-.02-.09-.01-.18-.01-.26-.01-.33 0-.64.02-.96.05-1.26.1-2.51.26-3.76.44-2.49.37-4.96.85-7.43 1.3-1.24.23-2.47.45-3.7.72-.61.14-1.23.28-1.84.46-.15.05-.31.1-.46.17-.08.03-.15.07-.23.13-.04.04-.08.06-.13.12-.04.06-.04.09-.06.13-.13.32-.18.65-.2.98-.02.66.12 1.32.4 1.93.15.3.34.59.6.83.06.06.13.12.2.17l.11.08.06.04.08.04c.23.09.39.08.57.09.68-.02 1.29-.15 1.92-.28.62-.13 1.23-.3 1.84-.46 2.43-.66 4.83-1.4 7.24-2.13 1.2-.37 2.4-.72 3.6-1.05.6-.16 1.21-.32 1.81-.44.24-.06.54-.03.83.02.29.05.59.12.89.21 1.18.35 2.35.81 3.5 1.3.57.25 1.15.5 1.72.76l.85.4.43.2.21.1.11.05.05.03.03.01c-.01 0 .06.02.07 0a.339.339 0 0 0-.1-.16zm-1.56-.86c-.55-.3-1.11-.6-1.67-.88-1.13-.55-2.27-1.1-3.49-1.5-.31-.1-.62-.18-.94-.25-.32-.06-.67-.11-1.04-.05-.63.11-1.25.25-1.86.39-1.23.29-2.44.64-3.65.99-2.41.71-4.8 1.5-7.2 2.21-.6.17-1.2.34-1.81.49-.6.15-1.21.29-1.79.33-.13.01-.29 0-.36-.03l-.03-.01-.04-.03-.08-.06a.653.653 0 0 1-.16-.13c-.21-.18-.39-.41-.53-.67a3.91 3.91 0 0 1-.44-1.71c0-.3.03-.6.13-.86.01-.03.03-.08.03-.08l.04-.04c.05-.04.11-.07.18-.1.13-.07.28-.12.42-.17.58-.21 1.19-.36 1.8-.5 1.22-.29 2.45-.53 3.69-.73 1.24-.21 2.48-.37 3.73-.53 1.25-.16 2.49-.3 3.74-.43 1.25-.14 2.49-.28 3.73-.4.31-.03.62-.05.92-.06h.21c.03 0 .06.01.07.01.02.01.05.02.08.03.06.03.11.04.17.08l.19.11c.52.31 1.04.66 1.54 1.03 1.01.73 2.02 1.48 3.02 2.24l1.5 1.14.75.57.28.22-.31-.18-.82-.44z" fill="#1b141c" stroke-width="none" opacity="1"></path></g></g></g><g id="svga-group-nose-single-move" transform="matrix(1,0,0,1,0,0)"><g id="svga-group-nose-single"><path id="SvgjsPath6279" d="M92.19 104.66c-.45 1.23-.86 2.48-1.01 3.75-.07.63-.1 1.29.11 1.82l.08.19.12.18c.04.06.08.12.13.16.05.05.09.11.15.15.2.18.47.29.74.35.56.12 1.18.02 1.8-.11l.47-.11.25-.06.13-.03.16-.02c.44-.03.81.12 1.13.27.65.32 1.16.76 1.67 1.14l.19.14c.06.04.11.07.17.1.12.06.24.12.38.15.27.08.56.11.84.11.57-.01 1.14-.19 1.58-.54l.16-.14.19-.17a5.859 5.859 0 0 1 1.29-.91c.32-.16.67-.28 1.04-.33.19-.02.38-.03.59 0 .1.01.2.04.3.06l.26.1c.23.09.54.13.84.15.3.02.62.01.92-.03.6-.07 1.24-.24 1.6-.62.17-.17.24-.46.28-.76.03-.3.03-.62-.01-.93-.12-1.27-.55-2.52-1.1-3.71.71 1.1 1.23 2.34 1.5 3.65.06.33.09.67.08 1.02-.02.34-.07.73-.33 1.07-.25.32-.59.5-.91.63-.33.14-.67.21-1.01.27-.34.06-.69.08-1.03.08-.35-.01-.7-.03-1.08-.17l-.2-.07c-.06-.01-.12-.03-.18-.03-.12-.02-.26 0-.39.02-.27.05-.55.15-.81.29-.26.14-.52.3-.75.49-.12.09-.23.2-.35.3l-.17.16-.21.19c-.59.48-1.33.72-2.06.73-.37.01-.73-.04-1.09-.15a2.7 2.7 0 0 1-.53-.22c-.08-.05-.17-.11-.25-.16l-.2-.15c-.52-.4-1.02-.81-1.54-1.09-.26-.13-.52-.23-.74-.22h-.08l-.11.02-.23.05-.49.1c-.66.12-1.37.22-2.09.03-.35-.1-.71-.26-.99-.53-.26-.27-.48-.57-.59-.94-.22-.71-.12-1.41 0-2.06.14-.66.35-1.28.58-1.9.22-.58.49-1.18.8-1.76z" fill="#c5796d" stroke-width="none" opacity="1" stroke="none"></path><path id="SvgjsPath6280" d="M101.48 107.53c-.46-.46-1.1-.54-1.72-.41-.08.02-.15.03-.22.05-.26-.17-.52-.28-.87-.28-.39 0-.85.17-1.11.46-.59.64-.6 1.58 0 2.22 1.02 1.09 3.28 1.39 4.14-.07.35-.61.28-1.47-.22-1.97z" fill="#fbe5e2" stroke-width="none" opacity="1" stroke="none"></path></g></g><g id="svga-group-hair-front"><path id="SvgjsPath5755" d="M98.8 29.6s-6.6-4.7-8.6-4.8c0 0-2.9.5-6.9 3.5-3.8 3.1-18.6 13.7-20.4 15.8S60 48.7 60 48.7s-4.1 10.7-5.5 16.2l-3.9 17.5 1 19.6 2.4 31.7 3.1 16.5 1.5 6.8-.1-8 6.1 10.8 7 1.8-1.4-9.1 6.9 9.7-4.4-16.2-4.9-19.7-1-26.7s-.1-15.6.3-18.6.8-5.8.8-5.8l2.9-8.9s2.8-7.7 3.9-10 3.5-8.1 4.4-9.4c1-1.3 2.3-2.2 2.3-2.2s2.9.4 4.1.8 14.7 4.6 14.7 4.6l9-4.6s3.3-1.9 4.8-1.8c1.5.1 4.6 1.4 4.6 1.4s5.5 4.1 6.9 6.2 6.9 10.7 6.9 10.7 1.8 14.7 1.9 18.3c.1 3.6.9 10.1.9 10.1s1.4 11.6 1.4 13.7.3 7.9.3 7.9l-.3 8.5s-1.8 15.5-1.9 16.4c-.1.9-2.2 17.3-2.2 17.3l-.7 5.9 3.7-2.3 1-6.1 2 4.3 2.1 3.6.4-12 7.5 10.8-1.7-18.1-2.4-23.3.3-26.4.9-20.9.1-9.1-5.2-10.2s-5.1-8.4-8.2-10.8c-3.1-2.3-10-8.3-15-10.3s-9.9-3.1-9.9-3.1l-8.6 3.4z" fill="#543c32" stroke-width="none" opacity="1" stroke="none"></path><path id="SvgjsPath5756" d="M136.9 123.2c.2-2.1.4-4.1.6-6.2.2-2.1.4-4.1.4-6.3-.6-8.3-1.4-16.5-2.1-24.7-.8-8.2-1.5-16.4-2.3-24.7v-.2l-.1-.1c-.8-1.8-1.7-3.2-2.7-4.7-1-1.5-2-2.9-3.1-4.3-2.2-2.7-4.5-5.5-7.6-7.6-1.5-1-3.4-1.8-5.3-1.8-1 0-2 .2-2.9.6-.9.4-1.6.8-2.4 1.2l-9.1 4.7c-2.7-.9-5.4-1.7-8.1-2.5-2.8-.8-5.7-1.7-8.6-2.3-.4-.1-.7-.1-1.1-.2l-.6-.1c-.2 0-.5 0-.7.1-.9.4-1.3 1-1.8 1.6-.9 1.2-1.6 2.5-2.2 3.9-1.3 2.7-2.4 5.4-3.5 8.1-2.1 5.5-4.1 11-5.9 16.6-.2.7-.3 1.5-.5 2.2l-.3 2.2c-.2 1.5-.3 2.9-.4 4.4-.2 2.9-.3 5.9-.4 8.8-.1 5.9-.2 11.8 0 17.6.1 2.9.2 5.9.3 8.8l.2 4.4c0 .7.1 1.5.2 2.2.1.8.2 1.5.3 2.3 1.2 5.8 2.8 11.5 4.3 17.2 1.3 4.7 2.7 9.4 4 14.1l-5.1-6.6-.9-1.1.3 1.4c.6 3.1 1.2 6.3 1.9 9.4h.2l-1.2-8.1c1.9 2.7 3.8 5.4 5.8 8.1l1.7 2.4-.8-2.9-4.5-17c-1.5-5.7-3-11.4-4.1-17.1-.2-.7-.2-1.4-.3-2.1l-.1-2.2-.2-4.4c-.1-2.9-.3-5.9-.3-8.8-.2-5.9-.4-11.7-.4-17.6 0-2.9 0-5.9.1-8.8.1-2.9.2-5.9 1-8.6 1.4-5.5 3.3-11 5.5-16.5 1.1-2.7 2.3-5.4 3.6-8 .7-1.3 1.4-2.6 2.2-3.7.4-.5.9-1.1 1.4-1.3h.4l.5.1c.3.1.7.2 1.1.2 5.6 1.4 11.2 3.4 16.7 5.3l.3.1.3-.1L110 46c.8-.4 1.6-.8 2.3-1.1.7-.3 1.5-.4 2.2-.4 1.5 0 3 .7 4.4 1.6 2.7 1.8 5 4.5 7.1 7.2 1.1 1.4 2.1 2.8 3 4.2.9 1.4 1.8 2.9 2.4 4.3.7 8.2 1.5 16.3 2.3 24.5l2.4 24.6c.1 1.9-.1 4-.2 6.1-.2 2.1-.3 4.1-.5 6.2l-1.2 12.3-2.6 24.6h.2c1.3-8.1 2.6-16.3 3.6-24.5.5-4.2 1-8.3 1.5-12.4zm2.9 7.4c.2-1.5.4-3 .4-4.7l-.1-1.2v-3.4c.1-12.2.5-24.5.4-36.7 0-1.5 0-3.1-.1-4.6 0-.8-.1-1.6-.1-2.3 0-.4-.1-.8-.1-1.2l-.1-.6-.1-.6c-.5-3-1-6-1.6-9-.6-3-1.2-6-2.1-9-.4-1.5-.8-3-1.4-4.5-.3-.7-.6-1.5-.9-2.2-.4-.7-.8-1.5-1.6-2.2-2.5-1.9-5-3.6-7.6-5.3-2.6-1.7-5.2-3.3-8-4.7-.7-.3-1.4-.7-2.2-.9-.4-.1-.8-.2-1.5-.2-.5.1-.9.3-1.2.4-1.5.6-2.8 1.3-4.2 2.1-2.6 1.4-5.2 2.9-7.8 4.4-5.2-2-10.4-4-15.8-5.7-1.4-.4-2.7-.9-4.1-1.2-.7-.2-1.4-.3-2.1-.5H77c-.1 0-.3 0-.4.1-.4.2-.7.5-.9.8-.9 1.2-1.5 2.5-2.1 3.8-.6 1.3-1.2 2.6-1.7 3.9-2.2 5.2-4.1 10.6-6.1 15.9-1.9 5.3-3.8 10.7-5.6 16.1-.9 2.7-1.8 5.4-2.6 8.1-.4 1.4-.8 2.7-1.2 4.1-.2.7-.4 1.4-.5 2.1 0 .2-.1.4-.1.6V94c.1 5.8.5 11.4.9 17.1.4 5.7.9 11.3 1.4 17l1.6 17v.1c1.6 4.9 3.1 9.8 4.7 14.7l.2-.1c-1.3-5-2.6-9.9-3.9-14.9L58.4 111l-.5-8.5c-.1-2.8-.3-5.7-.4-8.5v-1.5c0-.2 0-.3.1-.5.1-.7.3-1.3.5-2 .3-1.4.7-2.7 1.1-4.1.8-2.7 1.5-5.5 2.3-8.2 3.2-10.9 6.6-21.7 10.9-32.2.5-1.3 1.1-2.6 1.7-3.9.6-1.3 1.3-2.5 2.1-3.6.2-.3.4-.5.7-.6h.8c.7.1 1.4.3 2 .5 1.4.4 2.7.8 4 1.3 5.3 1.9 10.6 4 15.8 6.2l.2.1.3-.1c2.7-1.5 5.4-2.9 8.1-4.3 1.4-.7 2.7-1.4 4.1-1.9.3-.1.7-.2.9-.3.1 0 .5 0 .8.2.7.2 1.3.5 2 .9 2.7 1.4 5.2 3.1 7.7 4.8 2.5 1.7 5 3.5 7.4 5.3.4.3.7.9 1 1.5.3.6.6 1.3.8 2 .5 1.4.9 2.8 1.3 4.3.8 2.9 1.4 5.9 1.9 8.9l1.6 9 .1.6.1.5c0 .3.1.7.1 1.1 0 .8.1 1.5.1 2.3 0 1.5.1 3 .1 4.6 0 12.2-.1 24.5.1 36.7 0 .8 0 1.5.1 2.3 0 .4 0 .8.1 1.2l.1.6v.5c.1 1.4-.1 3-.2 4.5-.3 3-.6 6.1-1 9.1-.7 6.1-1.5 12.1-2.3 18.2h.2c1.1-6 2.1-12.1 3.1-18.1.7-3.2 1.1-6.2 1.5-9.3zm9.3 30.1-.2-2.4-2.1-24.3-1.1-12.1c-.4-4-.5-8-.5-12 0-8.1.2-16.2.5-24.3l.9-24.3v-.2l-.1-.2c-.8-2.3-1.7-4.3-2.7-6.4-1-2.1-2.2-4-3.4-6-2.5-3.9-5.5-7.4-8.8-10.6-3.3-3.2-7.1-5.8-11.2-8-2-1.1-4.2-1.9-6.3-2.7-2.2-.7-4.4-1.4-6.7-1.7h-.1l-.1.1-8.2 3.6c-1.3-1-2.6-1.9-3.9-2.7-.7-.4-1.5-.9-2.2-1.2-.8-.3-1.6-.7-2.5-.8-.4 0-.9-.1-1.4.1-.4.1-.8.3-1.2.5-.8.4-1.5.8-2.2 1.3-1.4.9-2.8 1.9-4.1 2.9-5.4 4-10.7 8-15.9 12.2-1.3 1.1-2.6 2.1-3.9 3.2-1.2 1.4-1.8 2.9-2.5 4.5-1.3 3.1-2.4 6.2-3.5 9.4-1 3.2-2 6.4-2.9 9.6-.9 3.2-1.7 6.5-2.4 9.8-.2.8-.3 1.7-.5 2.5-.1.4-.1.8-.2 1.3v1.3c0 1.7.1 3.4.1 5 .1 3.3.3 6.7.5 10 .4 6.7.9 13.3 1.5 20 .3 3.3.5 6.7.9 10 .2 1.7.3 3.3.5 5 .2 1.7.5 3.4.8 5 1.3 6.6 2.8 13.1 4.3 19.5l.5-.1-.5-7.8h-.2l.1 4.7-1.3-6.8c-.6-3.3-1.3-6.6-1.8-9.8-.3-1.6-.6-3.3-.7-4.9-.2-1.6-.3-3.3-.4-5l-.7-10c-.5-6.7-.9-13.3-1.2-20l-.5-10c-.1-1.7-.2-3.3-.2-5v-1.2c0-.4.1-.8.1-1.2.1-.8.3-1.6.4-2.4 1.3-6.5 2.9-13 4.8-19.3 1-3.2 2-6.3 3.2-9.4.6-1.5 1.3-3.1 2.3-4.3.5-.5 1.2-1.1 1.8-1.6l1.9-1.6c5.2-4.2 10.3-8.4 15.8-12.3 1.3-1 2.7-1.9 4.1-2.8.7-.4 1.4-.9 2.1-1.2.4-.2.7-.4 1.1-.5.3-.1.7-.1 1.1 0 1.5.2 3 1.1 4.4 1.9 1.4.9 2.7 1.9 4 2.9l.2.2.2-.1 8.2-3.4c2.1.4 4.2 1 6.3 1.8 2.1.8 4.1 1.7 6.1 2.8 3.9 2.2 7.6 4.8 10.7 7.9 3.2 3.1 6 6.6 8.4 10.4 1.2 1.9 2.3 3.8 3.3 5.8 1 1.9 1.8 4 2.5 6-.4 8-.8 16.1-1.1 24.1-.3 8.1-.5 16.2-.4 24.4 0 2 0 4.1.1 6.1s.3 4.2.5 6.1l1.3 12.1 2.4 21.9-6.4-9-.8-1.1v12.8l-1.9-3.2-.2.1 2.1 3.8.3.6v-.7l.4-10.8 6.7 10.1 1.7 2.1z" fill="#452c22" stroke-width="none" opacity="1" stroke="none"></path></g><g id="svga-group-glasses-single-move" transform="matrix(1,0,0,1,0,0)"><g id="svga-group-glasses-single"></g></g></g></g></g><rect id="svga-credit-rect" width="200" height="15" x="0" y="185" fill="#ecf0f1" opacity="0.5" style="display: none;"></rect><text id="svga-credit-text" font-family="Avenir Next, Roboto, Helvetica, Arial, sans-serif" font-size="10px" text-anchor="start" font-weight="400" size="10px" anchor="start" weight="400" fill="#333333" x="33.43669891357422" y="182.60824704170227" style="display: none;"><tspan id="SvgjsTspan3371" dy="13" x="33.43669891357422">Created on AvatarMaker.com</tspan></text></g><defs id="SvgjsDefs3323"></defs></svg>